<svg xmlns="http://www.w3.org/2000/svg" width="94" height="26" viewBox="0 0 94 26">
    <path d="M90.73 10.88c-1.38.69-3.08 1.04-5.11 1.04-.81 0-1.65-.07-2.51-.19-2.08-.3-3.48-.44-4.23-.44-1.11 0-2.03.13-2.74.4-.49.18-1.03.5-1.63.97l-.15-.22c.72-.8 1.51-1.47 2.37-2.01 1.19-.74 2.3-1.12 3.34-1.12.62 0 1.11.08 1.5.21.38.14.79.4 1.24.8h.22c-.05-.25-.07-.45-.07-.59 0-.48.11-.85.33-1.14.22-.28.57-.43 1.04-.43.14 0 .31.06.5.15.18.1.31.17.38.19-.12.15-.2.26-.26.33-.14.2-.21.41-.21.63 0 .53.21.98.66 1.38.44.4 1.01.59 1.7.59 1.63 0 3.05-.46 4.24-1.39 1.2-.93 1.8-2.07 1.8-3.44 0-1.28-.33-2.22-1-2.8-.67-.58-1.62-.87-2.85-.87-1.83 0-4.26.9-7.3 2.71-2.1 1.26-4.53 3-7.29 5.2-1.34 1.09-2.67 2.18-4.01 3.27-1.31.89-2.99 1.79-5.07 2.71-2.66 1.19-4.75 1.78-6.26 1.78-2.44 0-4.53-.73-6.25-2.21-1.74-1.47-2.99-3.61-3.78-6.4h-2.3-2.29c-.8 2.77-2.06 4.9-3.78 6.39-1.73 1.48-3.82 2.22-6.26 2.22-1.54 0-3.61-.58-6.22-1.74-2.03-.92-3.74-1.84-5.12-2.75-1.33-1.07-2.65-2.14-3.96-3.23-2.89-2.31-5.32-4.05-7.29-5.24-3.04-1.81-5.49-2.71-7.34-2.71-1.23 0-2.18.28-2.85.85-.67.57-1 1.51-1 2.82 0 1.37.59 2.51 1.78 3.44 1.18.93 2.6 1.39 4.26 1.39.66 0 1.22-.19 1.68-.57.46-.39.69-.85.69-1.4 0-.24-.16-.57-.49-.96.13-.05.28-.12.45-.2.17-.09.32-.14.44-.14.45 0 .79.16 1.02.47.24.31.36.68.36 1.13 0 .13-.03.31-.08.56h.22c.45-.4.86-.66 1.24-.8.39-.13.89-.21 1.51-.21 1.01 0 2.11.38 3.29 1.12.91.57 1.72 1.24 2.41 2.01l-.15.22c-.62-.47-1.15-.79-1.59-.97-.72-.27-1.65-.4-2.78-.4-.89 0-2.28.13-4.19.4-1.03.15-1.89.23-2.55.23-2.05 0-3.74-.34-5.08-1.01C1.26 9.85.22 8.08.22 5.6c0-1.61.65-2.94 1.98-4.01C3.52.53 5.1-.01 6.96-.01c1.75 0 3.45.34 5.09 1.02 1.64.69 3.13 1.66 4.46 2.92 0-.86.13-1.6.39-2.21.26-.61.67-1.07 1.24-1.39.99.49 1.67.91 2.04 1.26.61.6 1.28 1.6 2 3.01.37-.47.72-.81 1.03-1 .55-.32 1.28-.49 2.19-.49 1.14 0 2.15.38 3.04 1.12 1.18.99 1.78 1.86 1.78 2.6l-.15.22c-.18-.2-.47-.36-.87-.48-.41-.12-.8-.19-1.17-.19-.71 0-1.29.29-1.72.86-.43.57-.65 1.24-.65 2 0 1.91.85 3.75 2.56 5.54 1.92 2.03 4.19 3.04 6.81 3.04 2.07 0 3.88-.59 5.41-1.78 1.73-1.34 2.98-3.36 3.78-6.05h-.41c-.67 2.05-1.58 3.67-2.74 4.86-1.36 1.39-2.97 2.08-4.82 2.08-2.69 0-4.63-.64-5.81-1.93-.79-.87-1.19-1.9-1.19-3.08 0-.65.22-1.21.65-1.69.43-.49.98-.73 1.65-.73.49 0 .86.04 1.09.11.24.08.43.31.58.71-.23.22-.35.36-.37.41-.1.17-.15.41-.15.7 0 1.24.59 2.26 1.78 3.05 1.06.72 2.25 1.08 3.59 1.08 1.08 0 2.13-.54 3.13-1.62s1.76-2.39 2.27-3.95c-.37-.15-.64-.38-.83-.69-.18-.31-.28-.61-.28-.91 0-.17.01-.33.03-.47-1.02 0-1.69 0-1.69.01 0-.47.12-.85.37-1.07.25-.22.55-.33.93-.33.34 0 .57.02.7.07.12.05.4.17.65.37.39-1.66.52-2.55.57-2.67.59-1.54 1.63-2.94 3.11-4.2 1.5 1.29 2.55 2.7 3.15 4.23.19.9.31 1.77.54 2.64.17-.12.42-.23.57-.32.15-.08.41-.12.78-.12.37 0 .68.11.93.33.24.22.36.6.36 1.07-.13.01-.82.01-1.79.01.07.15.13.31.13.45 0 .32-.09.63-.26.92-.18.3-.46.53-.85.68.51 1.56 1.27 2.87 2.28 3.95 1 1.08 2.04 1.62 3.12 1.62 1.33 0 2.54-.36 3.6-1.08 1.18-.79 1.77-1.81 1.77-3.05 0-.27-.04-.48-.13-.63-.08-.15-.22-.31-.39-.48.15-.35.36-.57.63-.67.28-.1.62-.15 1.04-.15.66 0 1.22.24 1.65.73.43.48.65 1.04.65 1.69 0 1.63-.68 2.91-2.04 3.82-1.18.8-2.84 1.19-4.96 1.19-1.88 0-3.48-.68-4.81-2.04-1.14-1.17-2.06-2.8-2.75-4.9h-.41c.79 2.67 2.04 4.67 3.75 6.01 1.55 1.22 3.37 1.82 5.44 1.82 2.64 0 4.91-1 6.82-3.01 1.7-1.78 2.55-3.64 2.55-5.57 0-.76-.21-1.43-.65-2-.43-.57-1-.86-1.72-.86-.44 0-.85.06-1.2.17-.36.11-.64.28-.84.5l-.15-.22c0-.45.36-1.09 1.08-1.93 1.01-1.19 2.26-1.79 3.74-1.79.86 0 1.58.17 2.15.49.35.19.71.53 1.07 1 .72-1.41 1.38-2.41 2-3.01.37-.35 1.05-.77 2.04-1.26.69.39 1.16 1.04 1.4 1.93.15.52.23 1.08.23 1.67 1.33-1.26 2.81-2.23 4.44-2.92C83.62.33 85.33-.01 87.1-.01c1.83 0 3.41.54 4.74 1.6 1.33 1.07 2 2.4 2 4.01 0 2.48-1.03 4.24-3.11 5.28zm-65.42.39c-.19-.71-.28-1.36-.28-1.96 0-1.03.3-1.89.89-2.56.59-.66 1.33-1 2.22-1 .12 0 .34.03.63.08-.32-.58-.74-1.04-1.26-1.4-.52-.36-1.13-.54-1.85-.54-.96 0-1.7.29-2.22.86-.37.4-.62.94-.74 1.63h-.52c-.1-.1-.63-.94-1.59-2.52-.77-1.29-1.64-2.16-2.63-2.6-.32.49-.54.93-.65 1.32-.11.38-.17.91-.17 1.57 0 .38.09.83.26 1.38.17.54.26.83.26.85h-.26c-.81-1.29-1.86-2.41-3.15-3.38C12.11 1.37 9.72.55 7.1.55c-1.3 0-2.45.25-3.44.74-.86.43-1.48.97-1.85 1.64.54-.27.91-.45 1.11-.52.57-.17 1.36-.26 2.37-.26 1.31 0 2.56.22 3.74.67 1.85.69 3.88 1.95 6.07 3.78.33.28 1.4 1.15 3.23 2.61 1.7 1.36 3.16 2.57 4.37 3.63l.66.15c-.96-.99-1.71-1.89-2.25-2.71-.13-.2-.52-.9-1.19-2.12-.3-.54-.54-1.14-.74-1.82-.05-.22-.12-.53-.22-.92h.29c.52 1.43 1.09 2.65 1.71 3.64.61.99 1.64 2.3 3.07 3.93h.48c-.29-.54-.52-1.12-.67-1.72-.14-.61-.22-1.2-.22-1.77 0-.37.06-.94.19-1.71 0-.12.02-.29.07-.52.1.03.2.03.3 0-.05.52-.09.92-.11 1.19-.03.28-.04.54-.04.78 0 .84.16 1.66.48 2.45.25.62.54 1.11.89 1.45l.67.22c-.32-.69-.58-1.39-.76-2.09zm12.54 4.81c-1.56 0-2.92-.36-4.08-1.08-1.31-.82-2.11-2.01-2.4-3.57-.13 0-.25.05-.38.15-.32.25-.48.67-.48 1.26 0 1.15.62 2.06 1.85 2.75 1.09.62 2.34.93 3.74.93.33 0 .6-.01.82-.03.4-.1.7-.17.93-.19v-.22zm18.37.22c.22.05.46.1.72.15.26.05.6.07 1.02.07 1.43 0 2.67-.29 3.74-.89 1.23-.69 1.85-1.62 1.85-2.79 0-.49-.09-.85-.26-1.07-.18-.22-.37-.34-.59-.34-.3 1.56-1.1 2.75-2.41 3.57-1.14.72-2.5 1.08-4.07 1.08v.22zM47 3.25s-2.31 1.47-2.34 3.72c.06.03 4.59 0 4.59 0C49.22 4.78 47 3.25 47 3.25zm3.08 5.79c.19-.19.29-.4.29-.65 0-.18-.03-.33-.07-.46-1.97 0-4.51-.01-6.49-.01-.07.14-.11.3-.11.47 0 .25.09.46.27.65.19.19.41.27.66.27H49.44c.25 0 .46-.08.64-.27zm40.36-7.71C89.43.81 88.26.55 86.96.55c-2.05 0-3.96.5-5.71 1.49-1.9 1.09-3.43 2.53-4.59 4.34h-.26c.03-.17.12-.51.28-1.02.16-.51.24-.91.24-1.21 0-.64-.05-1.16-.15-1.56-.1-.39-.32-.84-.67-1.33-.98.47-1.86 1.32-2.63 2.56-.98 1.63-1.51 2.49-1.59 2.56h-.51c-.13-.64-.38-1.17-.74-1.59-.53-.6-1.27-.9-2.23-.9-.69 0-1.3.18-1.83.52-.53.35-.96.82-1.28 1.42.3-.05.5-.08.63-.08.89 0 1.63.34 2.22 1 .59.67.89 1.53.89 2.56 0 .6-.09 1.25-.28 1.96-.19.7-.43 1.4-.76 2.09l.67-.22c.3-.3.6-.82.91-1.58.3-.75.46-1.52.46-2.32 0-.32-.02-.68-.05-1.08-.04-.39-.07-.69-.1-.89.1.03.2.03.3 0 .05.33.1.71.17 1.17.05.46.09.81.09 1.06 0 .8-.1 1.51-.3 2.16-.1.34-.29.79-.59 1.33h.48c1.34-1.51 2.34-2.81 3.02-3.9.68-1.09 1.26-2.31 1.75-3.67h.31l-.12.52c-.2.81-.49 1.57-.87 2.26-.38.69-.76 1.39-1.13 2.08-.47.72-1.23 1.63-2.3 2.71l.68-.15c1.18-1.04 2.29-1.98 3.33-2.82 1.4-1.14 2.82-2.27 4.26-3.42 2.22-1.85 4.23-3.11 6.04-3.78 1.18-.45 2.44-.67 3.77-.67.99 0 1.77.09 2.33.26.27.07.66.25 1.15.52-.35-.62-.95-1.15-1.81-1.6zM42 17.49c.39 0 .69-.02.9-.06.21-.03.48-.15.8-.35.94-.54 1.73-1.6 2.37-3.16.52-1.24.77-2.18.77-2.82h.27c0 1.11.36 2.34 1.11 3.68.56 1.04 1.28 1.81 2.15 2.3.26.17.55.28.85.33.29.05.57.08.85.08.47 0 .8.04.99.11.21.07.3.27.3.59 0 .47-.12.82-.36 1.04-.25.23-.56.34-.93.34s-.63-.04-.78-.13c-.15-.09-.31-.2-.48-.32-.22.87-.44 1.75-.63 2.64-.6 1.53-1.65 2.95-3.15 4.23-1.48-1.26-2.52-2.66-3.11-4.19-.05-.13-.27-1.02-.67-2.68-.24.2-.43.32-.55.37-.13.06-.36.08-.7.08-.38 0-.68-.11-.93-.34-.25-.22-.37-.57-.37-1.04 0-.34.08-.55.26-.61.17-.06.51-.09 1.04-.09zm2.81 3.08c.42 1.12 1.16 2.04 2.22 2.79 1.06-.75 1.8-1.67 2.22-2.79.3-1.19.49-1.98.59-2.38-.88-.84-1.56-1.74-2.03-2.69-.47-.95-.7-1.79-.7-2.51h-.27c0 .67-.26 1.54-.79 2.6-.53 1.07-1.14 1.94-1.83 2.6.19.8.39 1.59.59 2.38z" fill="#232121"/>
</svg>
