<svg xmlns="http://www.w3.org/2000/svg" width="427" height="572" viewBox="0 0 427 572">
    <path d="M-1.1 400.03v-10.9c4.5-2.2 9.59-3.4 14.69-3.4 7.59-.4 15.69 2.7 20.79 9.6 12.49 18.1.5 42.99-10.5 56.19-6.69 8.2-15.99 16.3-25.18 24.1v-10.2c5.1-4.9 9.99-10.3 14.69-15.8 7.39-8.7 17.39-21.79 19.39-31.19 2-9.4-.5-20.7-8.2-23-5.09 1.8-8.69 5.6-10.49 10.5-3.1-4.4 3.8-10.5 8.69-11.8-1.3-.5-1.8-.5-2.49-.5-6.9-.5-11.8 7.4-12.5 14.3-3.79-6.2 3.1-14.3 8.2-16.1h-2.5c-7.4 0-10.49 9.4-9.99 18.7-5.1-3.8-1.3-14.3 2.49-16.1-3.09.2-5.59 2.4-7.09 5.6zm-.4 40.59v-6.9l3.4-.3-3.4 7.2zm0-22.59c.5 1.1 1.3 2.2 2.2 2.9h2.5c10.49 0 9.39-11.8 16.89-14.3 5.59 20.69-11.8 30.59-19.39 43.69-.7.7-1.5 1.3-2.2 2v-10.7c1.5-1.8 2.9-3.4 4-5.1 3.79-5.1 6.89-8.2 8.69-12.49-2.5 1.8-5.1 2.5-9.39 2.5h-3.1-.2v-8.5zm403.33-241.06c4.4 8.7 20.69 5.1 21.19 18.1-3.8 4.39-10.5 3.79-15.59 6.19-2.5 1.3-3.8 3.8-6.2 4.4-5.09 1.8-10.49 3.1-15.59 3.1-21.78 0-40.57-16.89-47.47-31.69-6.89 5.1-11.19 16.9-21.18 16.9-1.3 0-2.5 0-4.4-.5 4.4-16.9-4.4-32.4-18.09-35-2.5-.5-4.39-.5-6.19-.5-22.99 0-38.58 23.7-40.58 41.89 9.4-7.39 21.79-16.89 37.28-16.89 2.5 0 5.6 0 8.69 1.3 6.2 17.39 1.3 41.89-4.39 52.89 5.09-1.8 9.99-2.5 14.29-2.5 19.88 0 34.27 16.1 55.46 16.1 3.1 0 6.2-.5 9.99-1.3 3.1 6.19-3.09 13.09-6.89 18.09-11.19 13.1-31.18 23.7-52.37 23.7-5.09 0-9.99-.5-15.59-1.8 2.5 6.9 10 10 14.29 15.6 7.4 9.99 10.5 21.19 18.09 30.59 7.4 9.4 18.69 13.8 26.78 22.5-7.39 11.19-23.68 23.69-42.97 23.69-1.8 0-4.39 0-6.19-.5-9.4-1.3-16.09-8.2-23.69-9.99 1.8 14.29 5.1 28.59 16.09 29.39h.5c8.7 0 12.49-10.5 20.69-10.5 1.8 0 3.79.5 5.59 1.3 10 35-14.29 58.49-44.97 58.49h-3.09c-26.79-1.3-45.47-23-48.57-46.19-5.1 8.2-17.39 12.5-28.58 12.5-16.09 0-31.68-8.7-28.08-28.6h2.49c16.89 0 22.99-11.2 20.69-29.39-2.5-15-16.89-28.6-34.28-28.6-3.79 0-8.19.5-11.79 2.5-3.8 1.3-6.89 5.1-9.99 7.4-10.5 7.4-20.69 9.4-32.38 17.4-6.2 13.1-15.59 27.39-21.79 38.59 8.7-4.4 18.09-8.7 29.38-11.2 7.4-1.8 16.09-1.3 21.79-3.8 3.1-1.3 6.89-8.7 9.99-8.7 5.1 0 8.2 8.7 8.2 15.6.5 26.3-11.2 39.3-21.79 52.39 13.09 13.1 22.99 28.6 22.49 49.79-.5 25.6-15.59 41.9-31.18 51.1-4.4 2.49-9.4 3.09-14.99 6.19-9.4 4.4-15.59 15-18.69 25-13.79-4.4-16.89-28.1-8.19-39.89-11.8-10.5-5.1-34.3 11.19-36.3 1.3 6.9 8.69 12.5 15.59 12.5 3.79 0 6.89-1.8 8.19-5.6 3.8-10.5-3.1-22.99-8.19-29.39-5.1-6.2-16.09-10-26.29-11.8-3.79-.5-6.89-.5-10.49-.5-24.28 0-37.27 15.6-52.86 28.59-6.2 5.1-12.49 10.5-18.99 15.8v-15.8c10.49-8.19 20.99-16.29 32.58-23.69 13.79-8.7 24.98-14.3 44.17-14.3h5.59c19.89 1.3 37.28 16.9 41.08 34.99 4.39-15.59-9.4-20.69-16.09-27.39 15.59 1.8 24.28 18.1 18.69 36.79 5.59-3.8 4.39-20.69 1.3-26.79-6.9-15.6-29.89-23.7-47.97-26.8.5-2.5 5.09-3.1 8.19-3.1h1.8c17.39 0 30.58-1.3 41.07-13.79 8.7-10 14.99-25 14.29-42.4-9.99 6.9-29.38 5.1-41.07 11.2-1.8 1.3-3.1 3.1-5.1 4.4-3.79 2.5-9.39 3.8-12.49 6.2-13.09 9.4-19.88 26.29-36.77 34.29-1.3-5.6 3.79-8.7 4.39-14.99 1.8-13.8-3.79-27.4-6.89-38.1-6.9-3.8-11.79-14.3-21.79-16.1-1.8-.5-4.39-.5-6.19-.5-6 0-12.69 1.5-18.99 3.8v-7.29c3.9-1.3 7.69-2.2 11.39-2.4h3.8c13.09 0 29.38 5.1 31.68 17.39 0-24.29 5.6-45.49 21.18-57.49 5.1-3.8 11.8-5.1 15.59-10 2.5-3.09 3.8-9.39 6.2-14.29 6.2-13.8 11.19-28.6 14.99-43.7-11.79 0-22.98 6.2-31.18 11.8-3.1 3.8-4.4 11.2-9.39 11.2h-1.3c-5.1-.5-6.2-12.5-6.2-19.9 1.3-14.29 14.29-26.29 18.69-30.59-20.69-3.8-35.48-16.1-36.78-36.79 6.2 1.3 15.59 3.8 24.29 3.8 5.59 0 10.49-.5 14.29-3.8-3.1-2.5-7.4-3.1-11.19-6.2-20.69-14.3-32.38-64.89-10.5-86.59 10.5 11.8 28.58 16.9 45.47 22.5.5-3.8-5.59-6.2-8.19-10-11.79-15.6-14.99-34.99-17.39-56.69-.5-4.4-1.8-10.5-4.4-15.6-1.3-3.1-5.09-6.2-4.39-8.7.5-3.1 3.79-3.79 8.19-3.79 9.99 0 24.98 6.19 27.38 9.99 2.5-8.2 11.79-14.29 12.49-22.99.4-3.1-.7-8-1.8-12.7h22.09c-11.39 15.4-23.68 29.69-31.48 46.39-6.19-6.9-11.79-13.8-24.98-14.3 7.39 13.1 5.59 36.3 11.19 51.09 1.8-10.49 0-27.39 0-36.79 7.5 10.4.6 35.5 6.2 48.49 1.3-12.49 2.49-28.59.5-41.89 9.39 13.1-1.8 34.29 4.39 48.59 1.8 3.8 6.2 7.4 8.2 10.5 2.5 3.8 5.09 8.2 8.69 10-10.49-14.3-19.89-55.49-3.8-74.89C120.12 24.99 135.81 12 155.2 0h37.17c10.49 2.7 19.89 6.9 30.08 11.4 10.49 4.4 21.19 6.9 32.38 10 4.4 1.3 8.19 3.8 12.49 3.8h3.1c20.69 0 34.98-12.5 48.57-22.5.2-1.1.5-2 1.1-2.7h12.09c-3.4 8.7-10.5 15.8-17.59 21.6-12.49 9.99-26.78 13.79-41.87 13.79-10 0-19.89-1.8-30.58-5.1 8.69 38.6-18.69 61.09-52.87 61.09-3.1 0-6.19 0-9.39-.5-1.3-11.79 9.99-19.89 7.39-31.19-1.79-8.7-13.09-13.8-21.78-14.3 4.4 14.3 0 31.2 2.5 44.99.5 3.1 1.8 5.1 2.5 7.4.49 4.4-.5 8.7 0 12.5 3.09 13.1 12.49 22.5 18.08 34.29 7.4 15.6 6.9 31.2 10.5 51.8 4.39-45 20.68-80.99 53.66-95.29 11.19-5.1 23.68-6.9 35.48-6.9 19.88 0 39.87 5.6 54.86 13.8 12.49 6.9 26.78 19.9 44.97 19.9 5.6 0 11.19-1.3 17.39-3.8 1.8-1.8 0-7.4 3.8-8.2 6.19 1.8 10.49 5.6 13.79 10.5 13.79 23.69-11.79 42.39-21.19 50.59zM122.72 442.12c-1.3 2.5 5.09 6.9 8.19 11.8 6.2 9.4 15.59 28.1 8.2 44.19 1.79-24.99-6.2-45.49-22.99-53.69 9.99 12.5 28.08 26.3 21.19 51.09-3.1 11.8-16.09 21.2-28.08 21.2-7.4 0-14.99-3.8-18.69-13.1-4.4.5-6.2 3.1-7.4 6.9 1.8 1.8 5.6 1.8 7.4 3.1-.5.5-1.3 1.3-2.5 1.3-1.8 0-4.4-1.3-5.6-1.3-.5 0-.5 0-.5.5.5 5.6 7.4 3.8 11.8 5.1 0 1.8-1.3 2.5-2.5 2.5-2.5 0-6.2-1.8-7.4-1.8h-.5c2.5 4.4 11.2 3.1 18.09 3.8-.5 1.8-2.5 2.5-5.1 2.5-3.09 0-6.89-1.3-9.39-1.3h-.5c1.3 2.5 4.4 3.1 8.2 3.1 4.39 0 9.39-.5 12.49-1.3-1.3 2.5-3.8 3.1-7.4 3.1h-7.99c-6.2 4.4-11.79 17.39-5.1 24.99 12.49-22.49 47.97-23.69 56.66-50.59 7.5-24.59-5.49-48.89-20.58-62.09zm107.33-76.68c2.49 9.39 2.49 19.39 3.79 30.59 1.8 17.4 10 31.7 21.79 38.59 4.4 3.1 16.09 5.1 26.78 5.1 7.4 0 14.99-1.3 19.39-3.1 10.49-5.6 18.69-24.99 14.99-38.59-3.8 2.5-1.3 7.4-1.3 11.2-2.5 16.9-21.79 28.09-39.87 28.09-8.2 0-16.09-2.5-22.99-7.4-8.69-6.89-11.19-18.69-13.79-32.99 7.39 9.4 5.1 24.3 15.59 31.19 5.6 3.8 14.99 5.6 22.98 5.6h3.1c17.39-1.3 32.98-13.79 31.18-33.69-5.1 3.1-2.5 8.2-3.8 11.8-1.79 6.2-8.19 13.1-13.79 15.6-5.59 2.49-10.49 3.09-14.99 3.09-16.09 0-28.58-11.79-33.67-24.29-3.8-10-3.1-21.8-4.4-33-2.5-14.99-9.4-29.89-19.39-38.09 6.2 11.8 18.09 29.4 14.99 50.59-4.4-22.49-9.99-44.99-26.28-56.19 7.89 8.5 15.29 20.3 19.69 35.9zm-13.1-12.5c1.8-5.1-3.09-10-5.09-13.8-.5 4.5 4.39 8.9 5.09 13.8zm1.8 2.5l-.5-.5c-.5 0 1.8 6.9 1.8 9.4 1.3 16.09-3.8 34.99-14.99 39.89 20.59-.7 22.39-30.7 13.69-48.79zm-23.68 49.29c14.29 0 22.98-17.4 22.48-36.79-1.3-19.9-14.99-38.6-25.58-45.5 9.39 10.5 28.08 39.9 18.69 63.09-3.8 8.7-11.79 14.3-21.19 18.7 1.9.5 3.8.5 5.6.5zm-14.89-84.79c3.1 3.8 8.19 5.1 11.79 7.4-3.1-3.1-6.89-6.1-11.79-7.4zm6.89 82.29c4.4 0 9.4-3.8 11.8-5.6 2.49-2.5 7.39-8.2 8.69-11.2 7.4-15.59-1.3-36.79-7.39-47.49 8.69 17.4 11.19 59.79-18.09 60.49 1.2 2.5 3 3.8 4.99 3.8zm6.7-64.89c10.49 14.3 11.19 47.49-3.8 53.69-1.3.5-2.5.5-3.8.5h-1.29c-3.1-.5-6.2 0-5.6 4.4 4.4-.5 10.49-1.8 14.29-4.4 15.59-10 13.09-45.49-1.3-60.49-4.4-4.4-11.19-9.4-18.09-9.4-1.8 0-4.39.5-6.19 1.8 8.39 2.7 19.58 5.9 25.78 13.9zm-8.69-24.3c5.59 0 11.79.5 18.08 3.1 18.69 5.6 38.58 21.8 44.17 41.9 6.2 21.79 2.5 44.19 17.39 56.69 4.4 3.8 12.49 6.2 19.89 6.2 9.39 0 18.69-4.4 18.09-15.6-8.7-3.1-19.39-3.1-23.69-12.5-4.39-9.4-1.8-22.99-4.39-34.99h1.3c5.09 0 7.39 5.1 11.19 7.4 5.59 4.4 14.99 6.89 23.68 6.89 13.09 0 26.28-5.09 31.18-16.89-29.88-13.8-36.27-51.79-64.86-72.29-9.39-6.9-31.17-15-45.47-16.1-3.79-.5-7.39-.5-11.19-.5-34.97 0-54.16 16.9-74.05 35 15.59-7.4 36.78-8.7 58.46-10.5 8.2-.5 15.59-1.3 21.79-1.3 15.59 0 27.38 3.1 38.07 13.1 9.4 10 12.49 18.09 23.69 27.39-8.2 0-14.29-8.7-21.19-13.8 0-.5-.5-.5-.5-.5s0 .5.5 1.3c13.79 19.9 34.28 32.4 59.76 40.6h-2.5c-8.69 0-16.89-3.8-22.98-6.9-7.4-3.8-13.79-8.7-19.89-15-16.89-15.6-24.28-38.09-52.86-40.59 14.99 5.6 26.28 10.5 34.97 21.79 6.9 8.7 11.8 19.9 21.19 26.8 9.99 7.4 21.78 9.4 32.98 17.4h-.5c-5.1 0-11.19-3.1-18.09-6.2-8.19-3.8-16.89-9.4-22.49-15.6-11.19-13.1-19.88-33.69-40.57-38.09 3.8 4.4 8.7 5.6 12.49 8.7 11.2 8.69 16.89 23.69 26.79 33.69 8.69 8.2 19.38 11.8 29.88 18.7h-1.8c-4.4 0-8.7-3.8-12.49-5.6-13.1-6.9-24.29-18.1-31.18-30.6.5 3.8 5.09 10.5 5.09 17.4-5.59-3.1-6.89-10.5-11.19-15.6-8.69-10.5-22.49-22.49-38.57-26.29-8.2-1.8-16.89-3.1-25.59-3.1-21.78 0-42.97 6.2-56.66 18.09 12.49-4.4 28.58-13.09 47.97-14.29h6.89c21.79 0 42.38 6.2 52.37 18.69-7.4-3.1-14.99-9.99-23.69-12.49-7.39-1.8-16.08-3.1-24.28-3.1-29.88 0-61.06 12.49-75.35 29.39 14.29-6.9 34.28-22.99 56.66-25.59 3.8-.5 6.9-.5 10.5-.5 17.38 0 32.37 5.09 44.97 13.09-8.2-.5-14.29-7.4-22.49-8.7-5.59-1.29-11.19-1.29-16.09-1.29-31.68 0-60.46 15.59-77.85 31.69 21.39-9.3 43.87-30.5 72.46-30.5zm-77.85 18.1c3.1-19.89 14.29-31.19 16.09-51.79-5.6 13.1-8.2 28.1-15.59 38.09 3.09-16.09 12.49-29.89 14.29-45.49h-.5c-.5 0-1.3.5-1.8.5-13.09 41.89-29.88 79.19-49.77 113.48.5 4.4-1.3 6.2-.5 10.5 5.1-10 10-19.4 14.99-29.39-1.8 16.89-14.99 28.59-18.69 45.49 17.19-23.4 27.09-54.49 41.48-81.39zm-51.67 52.39c.5 1.3.5 3.8.5 3.8v-3.8c.5-8.7-2.5-21.19 0-29.39 3.8 16.89 3.1 36.79 2.5 54.89 8.19-13.8 1.3-41.09 4.4-58.49 1.8-11.8 8.19-18.7 11.79-28.6-16.79 8-26.08 38.6-19.19 61.59zm30.38-64.29c-5.1 11.8-13.79 22.5-14.99 33.7 1.3-5.1 4.4-8.2 8.2-11.2-2.5 9.4-10 13.1-10 25 15.59-28.6 29.88-58.49 41.08-91.69 2.49-3.8 7.39-9.4 4.39-13.8-5.09 11.2-9.39 23.7-14.29 34.3.5-13.1 9.4-24.3 11.79-38.1-4.39 2.5-4.39 8.2-6.19 12.5-5.6 15-13.09 33.1-19.99 49.29zm19.39-198.26l-.5 3.8c1.8.5 3.8 1.3 5.6 1.8-2-1.8-3.8-3.6-5.1-5.6zM165.19 2.4c-1.3.5-2.5 1.8-3.8 2.5 3.1-.5 6.2-1.3 9.4-1.8l-5.6-.7zm66.05 18.9s-1.29 0-1.79-.5c0 .5.5.5 0 0 1.3 1.3 1.79 1.8 2.49 3.1l-.7-2.6zm-43.67 60.29c10.5-5.1 19.89-11.8 19.39-27.4-3.2 12.6-15.59 15.6-19.39 27.4zm3.8-27.3c3.8-2.5 3.8-11.8 2.5-17.4h-2.5c1.3 7.4-3.2 12.5 0 17.4zm.6 6.8c5.6-3.1 9.39-12.5 6.9-21.2-1.8 7.5-3.8 14.4-6.9 21.2zm0 8.2c2.5 0 10.49-9.4 12.49-14.3 1.3-3.8.5-7.4-.5-10.5-1.3 11.6-8.89 15.9-11.99 24.8zm-4.4-21.9c2.5-3.1 1.3-8.7 0-11.8h-3.09c1.3 3.6-.7 10.5 3.09 11.8zm-6.09-4.9c1.8-2.5.5-7.4-1.8-7.4-.5 0-1.3 0-1.8.5-.2 3.6 1.6 5.6 3.6 6.9zm9.89-14.3c4.4.5 9.99 4.4 13.79 6.9 4.4 1.3 6.2 5.6 10 5.6.5 5.1 1.79 9.4 2.49 14.3 3.8-5.1 1.8-13.1.5-19.4 10 10.5-1.8 26.8-6.19 35 8.69-6.2 16.89-20.7 10.49-35 5.1 1.3 6.2 11.2 5.1 17.4-1.8 12.5-14.99 19.9-21.79 26.8 18.09-3.1 38.08-35.5 19.89-53.7-9.4-9.39-29.38-14.99-44.97-16.09h-5.1c-16.09 0-26.78 6.9-36.27 16.09-16.09 15.6-36.78 47.5-24.99 79.19 3.8 10 10.5 16.9 14.29 27.4-3.09-16.1-13.79-27.4-14.29-45.5-1.3-35.49 19.89-56.19 47.47-64.88h.5c-25.18 13.79-51.27 33.69-43.07 76.08-3.1-38.59 19.89-72.29 57.96-72.29 4.3.11 9.19.8 14.19 2.1zm-59.16 107.79l-6.89-2.5c2.49 1.3 4.39 3.1 6.89 5.1v-2.6zm.5-29.9c4.4-10-.5-31.19-.5-45.49-4.4 12.3-.8 34.29.5 45.49zm-8.09 5.6c-.5-5.1-2.5-8.2-3.8-12.5-1.1.6 3.8 12.5 3.8 12.5zm10.09-56.69c2.5 14.3 1.8 31.19 3.8 45.49 1.3-1.3 2.49-3.1 3.79-4.4-3.09-13.09-1.79-29.89-5.09-42.39-1.4 0-1.4 1.3-2.5 1.3zm16.69 26.1c-.5-11.8-1.3-25.6-3.1-36.3-3.8 2.5-1.3 6.2-.5 10.5 1.3 11.8 0 27.4 2.5 37.29 4.3-1.5 1.8-7.7 1.1-11.49zm3.8 9.99c3.79-13.79.5-33.69-2.5-46.19h-.5c-.5 0-1.3 0-1.3.5 3 13.9 3.7 30.1 4.3 45.69zm19.88-52.39c2.5-.5-.5-1.8 0-3.1h-.5c-1.3 0-1.3.5-2.5.5-.6 2.6 2.5.8 3 2.6zm-8.09-.6c0-1.3-.5-1.8 0-3.1l-.5-2.5c-4.4 1.3-8.7 2.5-12.49 5.1v1.3h1.8v-1.3l9.39.5h1.8zm168.79 77.99c-11.8-8.7-34.28-17.4-54.87-17.4-11.19 0-22.48 2.5-31.68 8.7-4.39 3.1-8.19 7.4-12.49 11.2-18.09 14.3-25.58 34.99-29.38 63.09-2.5 18.69-5.6 38.09-19.39 48.59-2.49-1.8.5-6.9.5-10 5.1-49.79-16.89-79.78-30.58-112.18 0-4.4-.5-7.4-3.09-8.7-5.6 1.3-10.5 4.4-13.8 8.2-8.19 11.8-1.29 31.7-5.09 44.99-5.6-.5-5.1-6.2-8.2-8.7-18.08-18.09-55.46-15.59-74.85-32.39-11.19 36.79 5.6 66.69 32.98 76.69-2.5 8.7-13.09 12.49-24.28 12.49-5.1 0-10-.5-14.29-1.8 5.59 16.1 23.68 19.4 42.37 22.5 1.8 5.6-9.39 5.6-5.1 8.2 2.5-1.8 5.6-2.5 10-2.5h3.09c-10.49 3.8-22.48 6.2-29.38 14.3 7.4-2.5 16.89-9.4 29.88-9.4h3.8c-1.8 2.5-5.1 2.5-7.39 2.5h-6.3c-11.19 2.5-22.98 9.4-26.78 19.9h.5c3.1 0 4.39-5.1 7.39-7.4 6.2-5.1 15.59-10 26.28-10 3.1 0 5.6.5 8.7 1.3-18.69 1.3-36.28 8.2-42.37 23.69 8.19-6.89 21.18-19.39 37.27-19.39 2.5 0 5.6.5 8.2 1.3 9.99 2.5 15.59 13.09 19.38 22.99 3.8-10-6.19-18.09-10.49-24.99 13.79 4.4 15.59 22.99 12.49 38.09 7.4-11.8 1.3-29.39-6.19-37.29 6.19 2.5 10.49 10 11.79 18.09 1.8 11.8-4.4 22.5-8.69 29.4h.49c4.4 0 10.5-13.1 10.5-21.8.5-22.99-18.69-38.09-31.18-48.59 1.3-.5 2.5-.5 3.1-.5 6.19 0 12.49 4.4 16.09 8.2 16.08 14.3 24.98 42.39 10.49 63.09-6.2 9.4-17.39 13.8-21.19 26.79 17.39-18.69 45.47-36.29 40.58-75.38-3.8-27.4-18.09-46.79-36.78-61.09-20.69-16.9-49.77-28.1-61.76-55.49 21.79 20.69 55.46 37.29 80.45 61.09 19.88 18.69 33.68 54.19 19.88 87.38 10.5-18.1 11.8-54.89 1.3-74.09 11.2 7.4 11.8 41.1 6.9 59.29 6.2-9.39 6.2-30.59 3.8-45.49-3.8-19.89-18.09-31.69-23.69-47.49 4.4 0 6.9 5.1 10 8.2 9.99 11.2 20.68 24.99 21.18 46.19 0 11.8-2.5 25-6.19 36.29 0 0 0 .5.5.5 1.29 0 4.39-4.39 6.89-5.59 10.49-6.9 24.98-10 38.58-12.5 18.68-3.8 34.27-13.1 44.97-23-10.5 38.1-77.35 23.7-92.94 54.89 22.48-13.8 53.66-17.39 86.54-17.39 23.68 0 48.57 1.79 72.25 3.79-6.19.5-13.09 1.3-19.39 1.3-19.38 0-40.57-2.5-60.46-2.5-10.49 0-20.68.5-29.88 3.1 5.6 1.3 12.5 1.8 19.89 1.8h17.59c19.39 0 39.27 2.5 58.46 2.5 10.49 0 21.19-.5 31.18-3.1-5.1 4.4-14.99 5.1-23.68 5.1H295.3c-16.09 0-29.88-2.5-46.17-2.5h-8.69c13.79 3.8 34.28 6.2 54.86 6.2 14.99 0 29.38-1.3 41.08-3.8-5.1 5.1-14.3 5.6-22.99 6.2H301.6c-12.49 0-25.58-1.3-36.78-2.5h-1.3c9.4 3.8 22.99 5.6 36.78 5.6 9.39 0 18.09-.5 26.28-1.8-5.09 3.1-13.09 3.8-21.18 3.8h-20.59c8.19 1.2 15.69 2.5 23.08 2.5 21.19 0 41.08-10.5 51.07-24.29-1.8 0-3.8.49-5.6.49-22.48 0-34.27-14.29-52.86-14.29h-1.3c-11.79.5-20.69 6.9-35.48 6.9h-3.79c16.88-10 33.67-30.6 25.58-56.19-22.99 0-29.88 16.09-50.57 18.69-1.8-4.4 1.8-7.4 3.8-11.8 5.1-12.49 7.4-26.29 15.59-36.29 8.19-9.4 22.48-16.9 36.28-16.9 3.79 0 7.39.5 10.49 1.8 13.09 4.4 19.89 15 21.18 33 27.39-23-7.39-61.09-34.27-64.89-1.8 0-3.8-.5-5.1-.5-12.49 0-22.98 6.2-29.38 12.5-17.39 16.09-18.09 38.59-32.38 56.69 4.4-41.1 25.58-74.89 62.36-74.89 3.1 0 6.2 0 9.39.5 13.79 1.8 25.59 10.5 33.68 18.7 8.2 8.2 9.4 19.39 14.29 31.19 2.5 6.2 12.49 23 18.09 27.4 3.8 3.1 6.9 3.8 12.49 6.2-31.68-16.9-28.58-69.19-64.16-82.99 28.59 1.8 33.68 46.19 48.57 65.39 3.8 5.1 9.4 8.2 13.79 11.8 3.8 3.1 7.4 8.7 13.09 8.7.5 0 1.8 0 2.5-.5-35.47-10.5-32.98-58.49-57.46-79.79-6.89-6.2-15.59-7.4-24.98-12.5 46.17 4.4 42.37 61.09 72.25 84.29 5.6 6.2 13.09 6.2 19.89 11.19-1.3-5.59-8.2-4.39-11.2-6.19-29.38-13.1-29.88-51.8-47.96-76.69zm79.14 11.2c-5.09 6.9-12.49 9.4-20.68 9.4-15.59 0-33.68-8.2-41.88-12.5 9.7 31.69 22.19 66.69 58.97 67.99-8.7-6.2-19.89-10.5-24.99-21.2 19.39-3.8 41.87-23.7 28.58-43.69zM162.59 22.2c.2-.2.4-.4.7-.4-.1.2-.5.4-.7.4zm103.43-4C245.94 16.7 230.15 6.1 212.76.4h6.69c9.6 4.4 18.99 9.6 28.48 12.1 6.9 1.8 14.99 3.1 22.99 3.1 14.99 0 29.38-3.8 38.57-12.5-8.49 10-22.78 15.1-38.37 15.1h-5.1zM235.64.6c-.2-.2-.5-.2-.7-.4h4.5c12.09 4.5 24.68 8.3 37.47 8.3 8.2 0 16.09-1.3 24.29-5.1-7.4 6.2-15.59 8.2-23.69 8.2-13.79.2-28.88-5.9-41.87-11zm23.89-.2h19.88c1.8.5 3.6 1.1 5.4 1.5-3.1 1.3-5.6 1.8-8.69 1.8-5.5 0-11-1.5-16.59-3.3z" fill="#CDC3AE"/>
</svg>
