<svg version="1" xmlns="http://www.w3.org/2000/svg" width="14" height="15" viewBox="0 0 33 26">
    <path d="M13.68 21.268h4.725v-4.726H13.68v4.726zm0-7.086h4.725V9.458H13.68v4.724zm-7.086 7.086h4.724v-4.726H6.594v4.726zm0-7.086h4.724V9.458H6.594v4.724zM25.49 2.37V.008h-4.725V2.37h-2.36V.008H13.68V2.37h-2.362V.008H6.594V2.37H1.87v23.62h28.345V2.37H25.49zm2.364 21.26H4.23V4.732h7.087v2.362h2.362V4.733h4.724v2.362h2.36V4.733h7.09V23.63zm-7.088-9.448h4.725V9.458h-4.724v4.724zm0 7.086h4.725v-4.726h-4.724v4.726z" fill-rule="evenodd" clip-rule="evenodd" fill="#746d6d"/>
</svg>
