<svg id="Layer_1" xmlns="http://www.w3.org/2000/svg" width="84" height="120" viewBox="48.5 10.2 84 120">
    <style>
        .st0{fill:rgba(255, 255, 255, 0.5);} .st1{fill:#E1E6ED;}
    </style>
    <path class="st0" d="M48.5 130.2l1.2-1.2h3.5l6.6-13.7 4.3 1.6-7.8 11.3h-1.2l-1.2 2h-5.4zm9.8-39.4c0-5.1 5.5-6.6 5.5-6.6l-2.3-1.6 3.1-1.2.4-1.6 2.7.8.3-1.6 2 1.2.8-1.6 1.2 1.2.8-.4.8 1.2 1.2-.8.8 1.6 1.6-.8 1.2 1.2h3.5c2.1 0 3.4-3.2 3.9-5.1.5-1.9 0-8.1-6.6-14.1-6.6-5.9-3.4-10.1-.4-14.9C81.8 43 87.5 33 89 26.2c1.4-6.5.4-16 .4-16s6.3 2.9 6.3 14.1c0 6.9-4.6 17.3-7 20.7-2.5 3.4-7.8 5.5-7.8 9.8 0 2.9 6.5 10.4 7 12.5.4 1.4 0 5.7 0 8.2 0 2.5-3.1 7-4.7 7-18.2 0-20.3 4.6-20.3 8.6 0 4.4 5.9 16 5.9 16l-.8 2c-.4 0-9.7-13.2-9.7-18.3zm25-38.4c.7-1.1 9.2-8.3 12.5-14.1 3.3-5.7 7.4-15.6 7.4-15.6 3.2 5.5 1.2 13.9-2.3 19.9-3.5 6-16.3 15-17.7 14.8-1.4-.1-1.1-3 .1-5zm17.6-5.4c2.9-3 8.2-9.8 8.2-9.8 2.3 3.7.5 9.7-4.3 14.1-5.4 4.9-15 7-16.8 8.6-1.4 1.3-.9 2.3-1.2 2.7-1 0-1.8-2.8-.8-4.3s9-5.2 14.9-11.3zm-14.5 53.5s-3.7-.2-5.5 1.2c1.8-2.3 1.6-8.6 1.6-8.6.4 4 3.9 7.4 3.9 7.4zm-7 16.4l-5.9-1.6 4.7-8.2s-.5 3.8-.4 5.9c.2 2.7 1.6 3.9 1.6 3.9zm-8.6 0l-8.6 11.7 4.3 1.6H54.7l.8-1.2h3.9l6.3-13.3 5.1 1.2z"/>
    <path class="st1" d="M62.9 77.5l5.5-3.1-4.7 1.6-.4-4s-3.5-3.7-3.1-4.7c.3-1 7.4 1.6 7.4 1.6s-5.5-3.2-8.2-2.7c-1.7.3-2 2-2 2s0-3.2 1.2-3.9c.9-.6 6.6.8 6.6.8s-1.2-1.8-.4-2c2.7-.4 15.2 2.7 15.2 2.7l-2.7 2.3L80.5 81h-2L77 79.4l-1.2.8-.8-1.6-1.6 1.2-.4-1.6-1.1.8-1.2-1.2-1.6 1.6-1.6-1.2-.4 1.6-2.6-.8-.8 2-3.5 2s1.8.9 2.3 1.2c-2.5.3-4.7 3.5-4.7 3.5l.4-2h-.8l.4-2.3-.4-.4.4-.8v-.4l.4-.4v-1.2l1.6-.4v-1.2H61l.4-.4h1.2l.3-.7zm9-11L68.8 65l-.8 2 3.9-.5zm11 16.8c2 0 4.7-3.8 5.5-6.6 1.3-4.8-.7-13.1 2-16 3.1-3.4 17.4-3.3 30.9-12.5 5.8-3.9 10.6-11.3 10.6-11.3 1.4 13.6-11.2 19.9-18.4 23.1-7.1 3.1-15.8 1.3-18.8 3.9-1.7 1.5-.3 3.1-3.1 12.9-2.8 9.8-9 9.8-9 9.8s-.2 7.7-1.6 12.5-9 17.2-9 17.2l-6.3-1.2 3.5-7s-2.4-5.9-3.9-10.2c-1.4-4.1-4.2-7.6.4-11.3 4.6-3.9 15.2-3.3 17.2-3.3zm32.8-20.7c6.8-1.5 16.8-6.3 16.8-6.3-2.1 7-11.4 12.3-18.4 12.9-7 .6-19.5-1.6-19.5-1.6s1-2.4 2.3-3.1c1.6-.7 9.8.1 18.8-1.9zm0 9.4c5.8-.4 12.1-1.6 12.1-1.6s-2.8 6.9-10.9 7c-9.6.2-17.9-5-19.5-5.5-1.3-.4-2.7 0-2.7 0s.5-1.6 2.7-1.6c2.2.1 10.6 2.2 18.3 1.7zm-4.3 7.4c4.8 1 10.6 1.6 10.6 1.6s-4.7 4.5-11.3 2.7c-7.9-2.1-13.2-7.9-14.5-8.7-1-.6-2.2-.6-2.2-.6s.8-1.2 2.6-.6c1.8.5 8.4 4.3 14.8 5.6zm-4.9 5.2c3.6 2 7.6 3.4 7.6 3.4s-4.5 3.1-9.4 0c-5.8-3.6-8.6-9.6-9.4-10.6-.6-.7-2.1-1.4-2.1-1.4s1.3-.4 2.6.5c1.5.9 5.9 5.5 10.7 8.1zm3.3 15.9s6.9 9.6 2.3 14.1c-2.8 2.7-10.9.4-10.9.4l-1.2-2s8.8 3.4 11.3.4c3.5-4.1-1.1-13-3.5-12.9-2.3.1-4 2.9-5.9 3.1-1.4.1-3.1-2.3-3.1-2.3s2.2.2 3.5-.4c1.4-.6.9-2.9 3.9-3.5 3.2-.6 3.6 3.1 3.6 3.1zM98.5 90.4c-3.6-4.4-4.3-9.6-4.7-10.5-.3-.7-.8-1.7-.8-1.7s.7.1 1.5 1.1 3 5.8 6 9.1c2.3 2.5 5.4 4.7 5.4 4.7s-4.4.9-7.4-2.7zm-6-8.9c.3 1.1 1.4 5.8 2.9 9.6 1.1 2.8 2.7 5.1 2.7 5.1s-4-.7-5.5-4.7c-1-2.6-.7-7.1-.8-8.6 0-.7-.3-2.8-.3-2.8s.7.3 1 1.4zm-2.2 9.6c.1 1.8 1.2 5.5 1.2 5.5s-3.1-2.9-3.1-5.1c0-2.9 1.1-5 1.2-7.4 0 0 .7.8.8 1.6 0 .8-.2 3.5-.1 5.4zm-3.9.4c-.2 1.8.4 5.1.4 5.1s-2.2-1.6-2-3.9c.2-2.3 3.1-6.6 3.1-6.6s-1.3 3.6-1.5 5.4zm6.6 12.9c2.2 2.5 14.9 23.8 14.9 23.8l-.8 1.6H83.3s2.5-3.7 3.5-3.5c9.8 1.8 12.9 0 12.9 0s-15.3-6.2-18.4-8.2c-3.2-2.1-3.7-9.1-1.6-13.3 2.8-5.4 10.4-3.8 13.3-.4zm-1.5 21.9l-16.8-9.4s3.6.3 4.3.8c2.4 1.7 18 8.6 18 8.6h-5.5zm-6.7.4l-2.3 3.1H77l3.1-3.9 4.7.8zM64.5 115l.4.4-.4.8-4.7-1.6 4.7-9 2.7 4.3-2.7 5.1z"/>
</svg>
