<svg id="Layer_1" xmlns="http://www.w3.org/2000/svg" width="84" height="120" viewBox="48.5 10.2 84 120">
    <style>
        .st0{fill:rgba(255, 255, 255, 0.5);} .st1{fill:#E1E6ED;}
    </style>
    <path class="st0" d="M127 130.2l-1.2-2h-1.2l-7.8-11.3 4.3-1.6 6.6 13.7h3.5l1.2 1.2H127zm-13.6-21.1l-.8-2s5.9-11.6 5.9-16c0-4-2.1-8.6-20.3-8.6-1.6 0-4.7-4.5-4.7-7s-.4-6.8 0-8.2c.5-2.1 7-9.6 7-12.5 0-4.2-5.3-6.3-7.8-9.8-2.5-3.4-7-13.8-7-20.7 0-11.1 6.3-14.1 6.3-14.1s-1 9.5.4 16c1.5 6.8 7.1 16.8 10.2 21.5 3 4.7 6.2 8.9-.4 14.9-6.6 5.9-7.1 12.2-6.6 14.1.5 1.9 1.8 5.1 3.9 5.1h3.5l1.2-1.2 1.6.8.8-1.6 1.2.8.8-1.2.8.4 1.2-1.2.8 1.6 2-1.2.4 1.6 2.7-.8.4 1.6 3.1 1.2-2.3 1.6s5.5 1.5 5.5 6.6c-.5 5.1-9.8 18.3-9.8 18.3zM97.9 57.5c-1.4.2-14.2-8.8-17.7-14.8s-5.5-14.4-2.3-19.9c0 0 4.1 9.9 7.4 15.6 3.3 5.8 11.8 13 12.5 14.1 1.1 1.9 1.4 4.8.1 5zm-2.9.8c1.1 1.5.2 4.3-.8 4.3-.3-.4.3-1.4-1.2-2.7-1.8-1.6-11.4-3.7-16.8-8.6-4.8-4.3-6.6-10.4-4.3-14.1 0 0 5.3 6.8 8.2 9.8C86 53.1 93.9 56.8 95 58.3zm3.5 34.8s-.3 6.3 1.6 8.6c-1.8-1.3-5.5-1.2-5.5-1.2s3.5-3.4 3.9-7.4zm4.7 19.9c.2-2-.4-5.9-.4-5.9l4.7 8.2-5.9 1.6s1.4-1.2 1.6-3.9zm12.1 2.8l6.3 13.3h3.9l.8 1.2h-11.7l4.3-1.6-8.6-11.7 5-1.2z"/>
    <path class="st1" d="M118.4 78.2h1.2l.4.4h1.2v1.2l1.6.4v1.2l.4.4v.4l.4.8-.4.4.4 2.3h-.8l.4 2s-2.2-3.2-4.7-3.5c.5-.3 2.3-1.2 2.3-1.2l-3.5-2-.8-2-2.7.8-.4-1.6-1.6 1.2-1.6-1.6L109 79l-1.2-.8-.4 1.6-1.6-1.2-.8 1.6-1.2-.8-1.6 1.6h-2l3.1-12.9-2.7-2.3s12.6-3.1 15.2-2.7c.9.1-.4 2-.4 2s5.7-1.4 6.6-.8c1.2.7 1.2 3.9 1.2 3.9s-.3-1.7-2-2c-2.7-.5-8.2 2.7-8.2 2.7s7.1-2.5 7.4-1.6c.3 1-3.1 4.7-3.1 4.7l-.4 3.9-4.7-1.6 5.5 3.1.7.8zM113 66.9l-.8-2-3.1 1.6 3.9.4zm2.3 19.6c4.6 3.7 1.8 7.3.4 11.3-1.5 4.2-3.9 10.2-3.9 10.2l3.5 7-6.3 1.2s-7.6-12.4-9-17.2-1.6-12.5-1.6-12.5-6.2.1-9-9.8c-2.8-9.8-1.4-11.4-3.1-12.9-3-2.6-11.6-.8-18.8-3.9-7.1-3.1-19.7-9.5-18.4-23.1 0 0 4.8 7.4 10.6 11.3 13.5 9.2 27.8 9.1 30.9 12.5 2.7 3 .7 11.3 2 16 .8 2.9 3.5 6.7 5.5 6.6 2 .1 12.6-.5 17.2 3.3zM84.1 64.6c1.4.7 2.3 3.1 2.3 3.1s-12.6 2.2-19.5 1.6c-7-.6-16.3-5.9-18.4-12.9 0 0 10 4.8 16.8 6.3 9 1.9 17.2 1.1 18.8 1.9zm-.4 5.8c2.2 0 2.7 1.6 2.7 1.6s-1.4-.4-2.7 0c-1.6.5-10 5.6-19.5 5.5-8.1-.1-10.9-7-10.9-7s6.3 1.2 12.1 1.6c7.6.4 16-1.7 18.3-1.7zm.8 3.4c1.8-.5 2.6.6 2.6.6s-1.3 0-2.2.6c-1.2.8-6.5 6.5-14.5 8.7C63.7 85.5 59 81 59 81s5.7-.5 10.6-1.6c6.4-1.3 13-5.1 14.9-5.6zm.5 2.7c1.3-.9 2.6-.5 2.6-.5s-1.4.7-2.1 1.4c-.8.9-3.5 6.9-9.4 10.6-4.9 3.1-9.4 0-9.4 0s4-1.4 7.6-3.4c5-2.6 9.4-7.2 10.7-8.1zM74.7 97.4c3 .6 2.6 2.9 3.9 3.5 1.4.6 3.5.4 3.5.4s-1.7 2.5-3.1 2.3c-1.9-.2-3.6-3.1-5.9-3.1-2.4-.1-7 8.8-3.5 12.9 2.6 3 11.3-.4 11.3-.4l-1.2 2s-8.2 2.3-10.9-.4c-4.6-4.5 2.3-14.1 2.3-14.1s.5-3.7 3.6-3.1zm.4-4.3s3.1-2.2 5.4-4.7c3-3.3 5.2-8.1 6-9.1.8-1 1.5-1.1 1.5-1.1s-.5.9-.8 1.7c-.4.9-1.1 6.1-4.7 10.5-3 3.6-7.4 2.7-7.4 2.7zm14.3-13s-.2 2.1-.3 2.8c-.1 1.5.2 6-.8 8.6-1.5 4-5.5 4.7-5.5 4.7s1.6-2.2 2.7-5.1c1.5-3.8 2.5-8.5 2.9-9.6.4-1.1 1-1.4 1-1.4zm1.3 5.6c.1-.8.8-1.6.8-1.6.1 2.5 1.2 4.6 1.2 7.4 0 2.2-3.1 5.1-3.1 5.1s1.1-3.6 1.2-5.5c0-1.9-.2-4.6-.1-5.4zm2.3.4s2.9 4.3 3.1 6.6c.2 2.3-2 3.9-2 3.9s.6-3.3.4-5.1c-.1-1.8-1.5-5.4-1.5-5.4zm8.2 18.7c2.1 4.2 1.7 11.1-1.6 13.3-3.1 2.1-18.4 8.2-18.4 8.2s3.1 1.8 12.9 0c1-.2 3.5 3.5 3.5 3.5H73.9l-.8-1.6s12.7-21.4 14.9-23.8c2.9-3.4 10.5-5 13.2.4zm-17.1 21.5s15.6-6.9 18-8.6c.7-.5 4.3-.8 4.3-.8l-16.8 9.4h-5.5zm16.8-.4l3.1 3.9h-5.5l-2.3-3.1 4.7-.8zm12.9-16l2.7-4.3 4.7 9-4.7 1.6-.4-.8.4-.4-2.7-5.1z"/>
</svg>
