<svg xmlns="http://www.w3.org/2000/svg" width="226" height="80" viewBox="0 0 226 80">
    <path d="M223.17 61.2c.4 1.34 1.07 2.01 2 2.01h.82v1.33h-9.44v-1.33h.87c.82 0 1.43-.53 1.85-1.58.3-.75.46-2.65.46-5.73V41.73c-.18.02-.35.04-.51.05-.17.01-.32.01-.45.01-.35 0-.8-.02-1.35-.06l-7.46 22.81h-5.89v-1.33c1.2-.29 2.18-.97 2.93-2.01.74-1.06 1.64-3.19 2.68-6.41l4.55-14.01c-1.86-.9-3.22-2.46-4.1-4.66-.89-2.21-1.33-4.82-1.33-7.82 0-2.81.39-5.22 1.16-7.25.78-2.03 1.72-3.42 2.83-4.17 1.11-.76 2.84-1.14 5.18-1.14h8.02v1.34h-.82c-.83 0-1.47.53-1.89 1.58-.3.74-.45 2.64-.45 5.71V55.9c0 2.78.11 4.55.34 5.3zm-3.44-42.03c-1.08-.46-1.93-.69-2.56-.69-1.42 0-2.56.96-3.42 2.86-.86 1.9-1.29 4.39-1.29 7.43 0 3.12.53 5.69 1.6 7.7 1.07 2.02 2.65 3.02 4.75 3.02.1 0 .23-.01.38-.02s.32-.01.54-.01V19.17zm-25.46 44.04c1.37-.09 2.24-.57 2.62-1.45.38-.86.57-2.89.57-6.11V18.4h-6.83v13.68c0 13.79-.54 22.74-1.61 26.86-1.07 4.11-2.55 6.18-4.43 6.18-.81 0-1.43-.44-1.86-1.32-.43-.87-.65-1.89-.65-3.04 0-.89.14-1.65.42-2.3.29-.65.63-.97 1.03-.97.33 0 .72.36 1.15 1.08.49.79.93 1.18 1.32 1.18.94 0 1.71-1.73 2.31-5.2.59-3.46.89-10.03.89-19.7V24.63c0-3.22-.19-5.26-.57-6.11-.38-.86-1.25-1.34-2.61-1.44v-1.34h17.73v1.34c-1.37.1-2.24.58-2.62 1.44-.38.85-.57 2.89-.57 6.11v31.02c0 3.22.19 5.25.57 6.11.38.88 1.25 1.36 2.62 1.45v1.33h-9.48v-1.33zm-31.69 1.33v-1.33h.78c.51 0 1.01-.28 1.47-.83.35-.38.59-.96.72-1.72.12-.78.18-2.35.18-4.72v-31.7c0-3.1-.14-5-.42-5.72-.39-.96-1.04-1.44-1.95-1.44h-.78v-1.34h16.98l.25 10.69h-.64c-.23-2.57-.48-4.33-.75-5.29-.28-.95-.69-1.69-1.23-2.19-.43-.36-1.2-.55-2.29-.55h-6.05v19.29h4.84c1.26 0 2.1-.42 2.52-1.25.57-1.11.88-3.05.95-5.84h.6v16.99h-.6c-.15-2.37-.31-3.89-.46-4.57-.19-.84-.51-1.5-.96-1.98-.44-.48-1.12-.72-2.05-.72h-4.84v16.09c0 2.16.05 3.47.13 3.94.09.47.24.84.45 1.12.22.27.64.4 1.24.4h3.74c1.24 0 2.15-.18 2.71-.57.57-.38 1.11-1.13 1.63-2.26.67-1.49 1.36-3.74 2.06-6.73h.65l-1.9 12.23h-16.98zm-10.76-1.33c1.35-.09 2.22-.57 2.6-1.42.38-.85.57-2.9.57-6.14V18.4h-10.23v37.25c0 3.22.19 5.25.56 6.11.38.88 1.25 1.36 2.63 1.45v1.33h-9.5v-1.33c1.37-.09 2.25-.57 2.62-1.45.38-.86.57-2.89.57-6.11V24.63c0-3.22-.19-5.26-.57-6.11-.37-.86-1.25-1.34-2.62-1.44v-1.34h22.85v1.34c-1.37.1-2.25.58-2.62 1.44-.38.85-.57 2.89-.57 6.11v31.02c0 3.22.19 5.25.57 6.11.37.88 1.25 1.36 2.62 1.45v1.33h-9.48v-1.33zM81.43 1.22c-20.62 0-39.64 2.96-54.89 7.95h-3.77C38.67 3.45 59.12 0 81.43 0c22.25 0 42.66 3.44 58.56 9.17h-3.57c-15.25-4.98-34.31-7.95-54.99-7.95zM27.31 28.28c0 .17-.21.19-.38.19l-.63.03-3.77-.22c.28.57.48.93.76 1.46.5.96.11.96.2 1.97l.05.68c.6.88 2.47 1.92 2.47 3.28 0 .5-.56.55-.94.71-.47.21-.75.21-.75.89 0 .34.13.83.24 1.06-.12.24-.33.29-.68.29-.03.13-.05.09-.05.2 0 .29.26.32.29.72-.33.08-.62.33-.62.73l.02.52.17 1.26c.14.86-1.35 1.07-2.12 1.06l-.05-.09c-.07.3-.36.61-.48.97-.14.42-.25.7-.25 1.25 0 .08.07.25.15.25.21 0 .17-.1.38-.1h.05c.25 0 .55.48.64.71.17.41.18.63.18 1.17.28.42.67.7 1.03 1.06.22.22.2.42.45.61.23.17.39.27.59.47.63.64 1.47 1.58 2.14 2.11.38.29.71.73 1.13 1 .57.38.68.51 1.15.98.36.36.68.74.85 1.28.04.14.15.74.15.9 0 .45.1.72.1.97v1.07c0 1.09-.47 2.47-.76 3.35-.16.5-.35 1.02-.55 1.48-.24.58.27.84.58 1.31l.05.53c.06.49-.48.86-.48 1.59l-.02.34C17.75 54.55 4.01 54.36 4.01 54.36c.22-.43.1-.83.34-1.25.22-.4.38-.6.54-1.06.2-.56.78-1.76.78-2.41v-.04c0-.28-.17-.51-.32-.65-.37-.33-.19-.01-.45-.52.27-1.17.91-2.25 1.15-3.49.12-.67.28-1.23.39-1.92.12-.8.7-.83 1.01-1.31l.06-.62c.01-.1-1.2-1.01-1.3-1.46-.09-.4-.12-.75-.32-1.04-.23-.34-.27-.59-.27-1.13-.17-.26-.36-.38-.5-.66-.15-.3-.24-.48-.42-.74.08-.32.41-.9.57-1.17.17-.26.14-.29.36-.51.07-.06.43-.4.43-.45.09-.28-9.6 4.37-.56-1.43.01-.01-.01-.03-.02-.05-.8-1.98-2.22-5.32-2.45-5.89-.49-1.24-1.03-2.44-1.51-3.66-.25-.63-.5-1.2-.76-1.85-.21-.53-.62-1.34-.75-1.87l14.6-6.42c1.62 3.07 3.1 6.31 4.67 9.44.36.72.76 1.74 1.17 2.35.24.35.44.71.67 1.08.2.31.39.91.83.95.86.09 5.36 1.23 5.36 1.7zm-5.9 13.11c-.39-.07-.67-.08-1.03-.19-.33-.09-.61-.16-.94-.26-.38-.1-.64-.09-1.06-.15-1.43-.19-2.9-.28-4.55-.28v.05c.84 0 3.3.67 4.18.89.4.11.64.1 1.01.25.32.12.58.24.89.36.47.18 1.36.66 1.79.76l.61-1.09c-.3-.08-.65-.3-.9-.34zm71.93 10.09h-.59c-.1-.93-.28-1.65-.52-2.16-.25-.5-.53-.84-.85-1-.31-.16-.85-.24-1.61-.24h-1.05v11.83c0 1.26.05 2.07.16 2.41.11.33.29.56.54.67.24.12.8.19 1.68.23v.69h-6.55v-.69c.85-.03 1.39-.22 1.63-.58s.36-1.27.36-2.73V48.08h-1.08c-.75 0-1.26.06-1.54.2-.27.12-.53.44-.78.92-.25.49-.46 1.26-.63 2.28h-.6l.5-4.61h10.41l.52 4.61zm-13.5-4.81c.47 0 .85.16 1.13.48.28.32.42.75.42 1.27 0 .43-.1.8-.3 1.1-.2.31-.49.46-.84.46-.2 0-.44-.08-.73-.23-.36-.18-.65-.27-.84-.27-.4 0-.74.49-1 1.46-.3 1.13-.51 1.86-.65 2.19-.14.33-.41.77-.8 1.31.27.11.56.39.88.86.32.46.92 1.76 1.78 3.92.7 1.72 1.21 2.81 1.56 3.27.35.46.84.7 1.5.73v.69h-3.54c-1.11-2.27-2.11-4.6-3-6.98-.21-.55-.4-.95-.57-1.22-.17-.27-.41-.4-.7-.4-.11 0-.28.01-.5.04v4.56c0 1.22.05 2.01.15 2.35.1.34.28.58.54.73.26.15.71.23 1.33.23v.69h-6.02v-.69c.78 0 1.28-.2 1.5-.61.22-.4.33-1.3.33-2.7v-9.04c0-1.33-.05-2.11-.14-2.35-.1-.24-.25-.46-.45-.65-.2-.2-.62-.29-1.24-.29v-.71h6.02v.71c-.73 0-1.18.07-1.35.22-.17.15-.32.33-.46.55-.14.21-.21 1.06-.21 2.52v3.35c.2.02.34.03.4.03.54 0 1.04-.21 1.51-.64.47-.43.88-1.33 1.25-2.72.35-1.32.63-2.2.85-2.66.22-.46.54-.83.93-1.13.4-.29.82-.43 1.26-.43zm-11.73 8.4c0 1.53-.26 3.07-.78 4.63-.52 1.57-1.23 2.75-2.13 3.54-.91.79-1.92 1.19-3.03 1.19-1.82 0-3.26-1.03-4.32-3.07-.91-1.73-1.36-3.66-1.36-5.8 0-1.57.27-3.12.82-4.66.55-1.54 1.27-2.69 2.16-3.42.9-.74 1.84-1.11 2.84-1.11 1.82 0 3.28.98 4.39 2.94.94 1.67 1.41 3.59 1.41 5.76zm-3.83-5.71c-.62-1.19-1.41-1.78-2.38-1.78-.46 0-.92.19-1.4.58-.46.4-.84 1.08-1.13 2.06-.29.98-.43 2.23-.43 3.77 0 2.48.35 4.62 1.04 6.42.7 1.79 1.61 2.7 2.75 2.7.85 0 1.55-.5 2.11-1.49.55-1 .82-2.7.82-5.12 0-3.02-.46-5.4-1.38-7.14zm-9.29-1.78c-.59 0-.99.08-1.19.25-.19.17-.35.37-.46.62-.12.25-.17 1.05-.17 2.42v8.42c0 1.78.11 2.86.32 3.27.21.4.71.62 1.5.66v5.41h-.49c-.04-1.02-.22-1.91-.54-2.66-.32-.76-.76-1.29-1.33-1.6-.57-.31-1.41-.46-2.52-.46h-3.1c-.97 0-1.72.12-2.26.36-.55.24-1 .75-1.36 1.51-.37.77-.59 1.72-.67 2.85h-.48v-5.41c.71-.04 1.37-.44 1.95-1.21.59-.77 1.11-2.28 1.55-4.52.45-2.24.67-4.45.67-6.62 0-2.14-.68-3.23-2.03-3.29v-.71h10.61v.71zm-4.01.5h-3.7v1.02c0 6.09-.78 10.62-2.34 13.6h4.47c.8 0 1.27-.1 1.39-.29.13-.19.18-.9.18-2.13v-12.2zm-3.59-19.92c.7 1.69 1.22 2.76 1.57 3.21.36.45.86.69 1.53.72v.67H46.9c-1.12-2.23-2.13-4.51-3.03-6.85-.22-.54-.41-.93-.58-1.2-.18-.26-.41-.39-.71-.39-.11 0-.28.01-.51.04v4.47c0 1.21.05 1.98.15 2.31.11.33.29.58.56.72.26.15.71.23 1.34.23v.67h-6.09v-.67c.79 0 1.29-.2 1.52-.6.22-.4.33-1.28.33-2.66v-8.87c0-1.3-.05-2.07-.15-2.31-.1-.23-.25-.45-.45-.64-.21-.18-.62-.28-1.25-.28v-.7h6.09v.7c-.74 0-1.19.07-1.37.22-.17.14-.32.32-.47.54-.14.21-.21 1.04-.21 2.47v3.29c.2.02.34.03.41.03.54 0 1.05-.2 1.53-.63.47-.42.89-1.31 1.26-2.67.35-1.29.64-2.16.86-2.61.23-.45.55-.82.95-1.1.4-.29.83-.44 1.27-.44.48 0 .86.17 1.14.48.29.32.43.73.43 1.24 0 .43-.11.79-.31 1.09-.2.3-.49.45-.85.45-.2 0-.44-.08-.73-.23-.37-.18-.66-.26-.86-.26-.4 0-.74.48-1 1.43-.31 1.11-.52 1.82-.67 2.15-.14.32-.41.75-.81 1.29.27.1.57.38.9.84.32.45.92 1.73 1.8 3.85zm14.54 2.98c.1.25.25.47.46.66.21.19.63.29 1.25.29v.67h-6.3v-.67c.68 0 1.15-.05 1.41-.15.26-.1.47-.33.62-.71.15-.37.23-1.17.23-2.4V17.22h-4.06v7.05c0 2.66-.09 4.54-.26 5.62-.17 1.07-.51 1.86-1.03 2.38-.5.52-1.08.78-1.74.78-1.14 0-1.7-.65-1.7-1.94 0-.43.09-.79.27-1.07.18-.28.42-.42.71-.42.31 0 .6.17.86.53.35.46.61.69.79.69.4 0 .69-.46.87-1.38.18-.91.27-2.53.27-4.83v-3.69c0-1.89-.1-3.05-.3-3.46-.2-.42-.71-.67-1.53-.75v-.7h10.89v.7c-.6 0-1.01.08-1.21.25-.2.16-.35.36-.47.61-.11.24-.17 1.03-.17 2.37v8.87c0 1.29.05 2.07.14 2.31zm14.56 0c.1.25.25.47.46.66.21.19.62.29 1.24.29v.67H72.3v-.67c.74 0 1.23-.19 1.48-.57.25-.36.38-1.26.38-2.69v-7.87l-5.27 8.38c.01 1.04.12 1.75.32 2.14.19.39.61.59 1.26.61v.67h-5.62v-.67c.79 0 1.29-.2 1.51-.6.23-.4.33-1.28.33-2.66v-8.87c0-1.3-.05-2.07-.14-2.31-.1-.23-.25-.45-.45-.64-.21-.18-.63-.28-1.25-.28v-.7h5.89v.7c-.6 0-1 .08-1.2.25-.2.16-.36.36-.48.61-.11.24-.17 1.03-.17 2.37v7.65l5.27-8.36c-.02-.93-.15-1.59-.39-1.95-.24-.37-.65-.56-1.24-.57v-.7h5.66v.7c-.59 0-.99.08-1.19.25-.2.16-.37.36-.48.61-.11.24-.17 1.03-.17 2.37v8.87c0 1.29.05 2.07.14 2.31zm14.53-.21c.07.34.23.62.49.83.25.22.67.33 1.26.33v.67h-5.89v-.67c.73 0 1.23-.19 1.48-.57.24-.36.37-1.26.37-2.69v-4.14h-5.27v4.14c0 1.06.04 1.76.1 2.1.07.34.23.62.48.83.26.22.69.33 1.27.33v.67h-5.89v-.67c.79 0 1.29-.2 1.52-.6.22-.4.33-1.28.33-2.66v-8.87c0-1.06-.03-1.76-.1-2.1-.07-.34-.23-.61-.49-.82-.26-.21-.67-.31-1.26-.31v-.7h5.89v.7c-.55 0-.95.08-1.21.26-.25.17-.42.42-.5.73-.1.33-.14 1.07-.14 2.24v3.54h5.27v-3.54c0-1.06-.03-1.75-.1-2.07-.06-.32-.21-.6-.46-.82-.24-.23-.67-.34-1.29-.34v-.7h5.89v.7c-.55 0-.95.08-1.21.26-.25.17-.42.42-.51.73-.08.33-.13 1.07-.13 2.24v8.87c0 1.06.03 1.76.1 2.1zm19.77 15.51v3.98c.62-1.5 1.25-2.55 1.87-3.15.63-.6 1.29-.9 1.98-.9 1.21 0 2.22.67 3.02 2.01.99 1.64 1.49 3.76 1.49 6.4 0 2.93-.6 5.36-1.79 7.28-.98 1.58-2.22 2.37-3.71 2.37-.64 0-1.2-.13-1.68-.39-.35-.19-.74-.56-1.18-1.12v5.19c0 1.17.05 1.9.15 2.22.1.32.28.57.53.75.25.19.7.28 1.36.28v.69h-6.31v-.69h.33c.48.02.89-.12 1.23-.39.17-.13.3-.36.4-.66.09-.3.13-1.07.13-2.31V51.89c0-1.1-.03-1.8-.1-2.1-.08-.3-.19-.52-.34-.67-.15-.15-.36-.22-.62-.22-.21 0-.48.08-.81.26l-.15-.6 3.7-2.12h.5zm0 11.44c0 1.38.04 2.28.12 2.72.12.72.42 1.34.9 1.89.48.55 1.08.82 1.81.82.87 0 1.58-.48 2.12-1.45.71-1.26 1.07-3.05 1.07-5.34 0-2.6-.4-4.61-1.21-6-.56-.97-1.23-1.46-1.99-1.46-.43 0-.84.16-1.26.45-.31.23-.83.89-1.56 2.01v6.36zm-10.9-11.51c1.82 0 3.28.98 4.39 2.94.93 1.67 1.4 3.59 1.4 5.76 0 1.53-.26 3.07-.77 4.63-.52 1.57-1.23 2.75-2.14 3.54-.9.79-1.91 1.19-3.03 1.19-1.81 0-3.25-1.03-4.32-3.07-.9-1.73-1.35-3.66-1.35-5.8 0-1.57.27-3.12.82-4.66.54-1.54 1.27-2.69 2.16-3.42.89-.74 1.84-1.11 2.84-1.11zm-3.38 7.62c0 2.48.35 4.62 1.05 6.42.69 1.79 1.61 2.7 2.75 2.7.85 0 1.55-.5 2.1-1.49.55-1 .83-2.7.83-5.12 0-3.02-.46-5.4-1.38-7.14-.62-1.19-1.42-1.78-2.38-1.78-.46 0-.93.19-1.4.58-.47.4-.85 1.08-1.13 2.06-.3.98-.44 2.23-.44 3.77zm9.13-22.85c.1.25.25.47.46.66.21.19.62.29 1.24.29v.67h-5.89v-.67c.73 0 1.23-.19 1.48-.57.24-.36.37-1.26.37-2.69v-7.87l-5.27 8.38c.02 1.04.13 1.75.32 2.14.2.39.62.59 1.27.61v.67h-5.63v-.67c.79 0 1.3-.2 1.52-.6.22-.4.33-1.28.33-2.66v-8.87c0-1.3-.05-2.07-.15-2.31-.1-.23-.24-.45-.45-.64-.2-.18-.62-.28-1.25-.28v-.7h5.89v.7c-.59 0-.99.08-1.19.25-.21.16-.37.36-.49.61-.11.24-.17 1.03-.17 2.37v7.65l5.27-8.36c-.02-.93-.15-1.59-.38-1.95-.25-.37-.66-.56-1.24-.57v-.7h5.66v.7c-.59 0-.99.08-1.19.25-.21.16-.37.36-.48.61-.12.24-.18 1.03-.18 2.37v8.87c0 1.29.05 2.07.15 2.31zm12.28-2.98c.71 1.69 1.23 2.76 1.58 3.21.35.45.86.69 1.52.72v.67h-3.59c-1.11-2.23-2.13-4.51-3.03-6.85-.21-.54-.4-.93-.58-1.2-.17-.26-.41-.39-.71-.39-.11 0-.27.01-.51.04v4.47c0 1.21.06 1.98.16 2.31.1.33.28.58.55.72.27.15.71.23 1.35.23v.67h-6.09v-.67c.78 0 1.29-.2 1.51-.6.22-.4.33-1.28.33-2.66v-8.87c0-1.3-.05-2.07-.14-2.31-.1-.23-.25-.45-.46-.64-.2-.18-.62-.28-1.24-.28v-.7h6.09v.7c-.74 0-1.2.07-1.37.22-.17.14-.33.32-.47.54-.14.21-.22 1.04-.22 2.47v3.29c.21.02.35.03.42.03.54 0 1.05-.2 1.52-.63.47-.42.9-1.31 1.27-2.67.35-1.29.63-2.16.86-2.61.22-.45.54-.82.94-1.1.4-.29.83-.44 1.27-.44.48 0 .86.17 1.14.48.29.32.43.73.43 1.24 0 .43-.1.79-.3 1.09-.21.3-.49.45-.86.45-.19 0-.44-.08-.73-.23-.37-.18-.65-.26-.85-.26-.4 0-.74.48-1.01 1.43-.3 1.11-.52 1.82-.66 2.15-.15.32-.42.75-.81 1.29.27.1.57.38.89.84.33.45.93 1.73 1.8 3.85zm5.48 23.82c-.21.32-.48.47-.81.47-.33 0-.59-.16-.8-.48-.2-.33-.31-.77-.31-1.32 0-1.07.39-2.05 1.16-2.94.77-.89 1.85-1.34 3.25-1.34 1.07 0 1.94.25 2.63.76.51.39.89.99 1.14 1.81.16.53.23 1.62.23 3.27v5.78c0 1.62.03 2.62.07 2.99.05.36.12.61.22.73.1.13.22.19.35.19.13 0 .26-.04.36-.13.19-.16.54-.62 1.07-1.36v1.04c-.98 1.86-1.92 2.79-2.82 2.79-.42 0-.76-.21-1.02-.63-.25-.42-.38-1.15-.39-2.16-1.24 1.35-2.01 2.13-2.33 2.34-.47.31-.97.47-1.51.47-.83 0-1.52-.41-2.06-1.21-.53-.81-.8-1.87-.8-3.18 0-.83.13-1.55.39-2.16.36-.84.98-1.63 1.87-2.38.89-.74 2.37-1.64 4.44-2.71v-.67c0-1.7-.19-2.87-.57-3.5-.38-.63-.94-.95-1.67-.95-.55 0-.99.21-1.31.64-.33.42-.5.9-.5 1.45l.03 1.07c0 .58-.1 1.01-.31 1.32zm1.77 3.35c-.7.55-1.19 1.12-1.49 1.71-.3.6-.45 1.25-.45 1.96 0 .89.19 1.63.57 2.22.38.58.81.88 1.3.88.67 0 1.54-.62 2.63-1.86v-6.49c-1.33.75-2.18 1.28-2.56 1.58zm-1.03-34.27c-.21.3-.48.45-.82.45-.33 0-.6-.15-.8-.47-.21-.32-.32-.75-.32-1.3 0-1.04.39-2 1.17-2.88.78-.88 1.88-1.32 3.29-1.32 1.08 0 1.96.25 2.66.75.52.38.91.97 1.16 1.78.16.52.23 1.58.23 3.2v5.68c0 1.6.03 2.57.07 2.94.05.35.12.59.22.71.1.13.22.19.35.19.14 0 .27-.04.37-.13.19-.16.55-.61 1.08-1.34v1.03c-.99 1.82-1.94 2.74-2.85 2.74-.43 0-.77-.21-1.03-.62-.26-.42-.39-1.13-.4-2.12-1.25 1.32-2.03 2.09-2.36 2.3-.47.3-.98.46-1.52.46-.84 0-1.54-.4-2.08-1.19-.55-.79-.82-1.83-.82-3.12 0-.82.13-1.52.4-2.12.36-.83.99-1.6 1.89-2.34.9-.73 2.4-1.61 4.49-2.66v-.66c0-1.66-.19-2.81-.58-3.43-.38-.62-.94-.93-1.68-.93-.56 0-1 .2-1.33.62-.34.41-.5.89-.5 1.42l.02 1.06c0 .56-.1.99-.31 1.3zm1.79 3.28c-.7.54-1.2 1.1-1.5 1.68-.31.59-.46 1.22-.46 1.92 0 .87.19 1.6.57 2.18.39.58.83.87 1.32.87.68 0 1.56-.61 2.66-1.83v-6.37c-1.34.73-2.2 1.25-2.59 1.55zm-44.5 54.44c19.83 0 38.17-2.74 53.1-7.38h3.94c-15.66 5.38-35.48 8.6-57.04 8.6-20.68 0-34.59-2.3-49.95-6.42l-.8-1.11-.35-.44c15.01 4.39 31.23 6.75 51.1 6.75z" fill="#FFF"/>
</svg>
