<svg xmlns="http://www.w3.org/2000/svg" width="50" height="50" viewBox="0 0 50 50">
    <path d="M25 49c13.23 0 24-10.77 24-24S38.23 1 25 1 1 11.77 1 25s10.77 24 24 24m0 1C11.19 50 0 38.81 0 25S11.19 0 25 0s25 11.19 25 25-11.19 25-25 25z" fill="#736D6D"/>
    <path d="M40.59 24.5c.85.31 1.43.51 1.41.5h-2.76c-1.57.59-3.45 1.34-4.61 1.95-2.07 1.09-10.31 8.02-16.45 8.05-2.03.01-5.18-1.8-5.18-4.81 0-2.56 1.63-4.47 4.14-4.47s3.46 1.58 3.46 3.44c0 1.85-2.08 2.4-2.08 2.4s.02-.04.04-.09c-.18.05-.36.09-.56.09-1.05 0-1.91-.84-1.91-1.89 0-1.04.86-1.89 1.91-1.89.38 0 .72.11 1.02.3-.25-.68-.79-1.33-1.88-1.33-1.68 0-2.78 1.91-2.76 3.44.02 1.17 1.59 3.09 3.8 3.09 5.4 0 6.36-6.87 6.52-8.78-.16-1.91-1.12-8.78-6.52-8.78-2.21 0-3.78 1.92-3.8 3.09-.02 1.53 1.08 3.44 2.76 3.44 1.09 0 1.63-.65 1.88-1.33-.3.19-.64.3-1.02.3-1.05 0-1.91-.85-1.91-1.89 0-1.05.86-1.89 1.91-1.89.2 0 .38.04.56.09-.02-.05-.04-.09-.04-.09s2.08.55 2.08 2.4c0 1.86-.95 3.44-3.46 3.44S13 21.37 13 18.81c0-3.01 3.15-4.82 5.18-4.81 6.14.03 14.38 6.96 16.45 8.05 1.16.61 3.04 1.36 4.61 1.95H42c.02-.01-.56.19-1.41.5z" fill="#736D6D"/>
</svg>
