<svg xmlns="http://www.w3.org/2000/svg" width="128" height="34" viewBox="0 0 128 34">
    <path d="M19.48 18.84c-.35.17-.88.26-1.59.26-1.76 0-3.55-.61-5.37-1.82-.52-.35-1.63-1.26-3.34-2.75-2.14-1.81-3.65-3-4.51-3.56-1.44-.95-2.73-1.42-3.89-1.42L0 9.67v-.26c.54-.4 1.12-.73 1.74-1.01.89-.39 1.71-.59 2.44-.59 1.59 0 2.89.33 3.93 1 .2.13.68.57 1.44 1.34.32-.47.58-.76.78-.86.4-.19.93-.29 1.59-.29.45 0 .92.14 1.41.42.5.29.9.68 1.22 1.17-.51 0-.94.13-1.29.38-.54.39-.81 1.01-.81 1.85 0 1.91.63 3.36 1.92 4.35 1.19.91 2.75 1.37 4.71 1.37l.4.3zM13 10.33c-.27-.44-.74-.66-1.41-.66-.69 0-1.16.24-1.4.74-.15.29-.23.75-.23 1.37h-.18c-.47-.94-.98-1.65-1.52-2.11-1.02-.9-2.37-1.34-4.08-1.34-.39 0-.74.05-1.05.17-.31.11-.65.27-1.02.5 1.06.37 2.1.89 3.11 1.56 1.76 1.16 3.83 2.92 6.22 5.27l.48-.15c-.91-1.01-1.85-1.98-2.81-2.89-1.04-1-2.13-1.89-3.3-2.68l.23-.15c.81.37 2.03 1.32 3.66 2.83 1.41 1.31 2.26 2.17 2.56 2.59l.19-.18c-.43-.87-.64-1.73-.64-2.6 0-.6.1-1.1.3-1.52.2-.42.49-.67.89-.75zm97.81 3.27c0 2.48-1.03 4.24-3.11 5.28-1.38.69-3.08 1.04-5.11 1.04-.81 0-1.65-.07-2.52-.19-2.07-.3-3.48-.44-4.22-.44-1.11 0-2.03.13-2.74.4-.49.18-1.03.5-1.63.97l-.15-.22c.72-.8 1.51-1.46 2.37-2.01 1.19-.74 2.29-1.12 3.33-1.12.62 0 1.12.08 1.51.21.38.14.79.4 1.24.8h.22c-.05-.25-.07-.45-.07-.59 0-.48.11-.85.32-1.14.23-.28.58-.42 1.04-.42.15 0 .32.05.5.14.19.1.32.17.39.19-.12.15-.21.26-.26.33-.14.2-.22.41-.22.63 0 .53.22.98.67 1.38.44.4 1.01.59 1.7.59 1.63 0 3.04-.46 4.24-1.39 1.2-.93 1.8-2.07 1.8-3.44 0-1.28-.33-2.22-1-2.8-.67-.58-1.62-.87-2.85-.87-1.83 0-4.26.9-7.3 2.71-2.1 1.26-4.53 3-7.29 5.2-1.34 1.09-2.67 2.18-4.01 3.27-1.31.89-3 1.79-5.07 2.71-2.66 1.19-4.75 1.78-6.26 1.78-2.44 0-4.53-.73-6.26-2.21-1.73-1.47-2.98-3.61-3.78-6.4H64h-2.3c-.79 2.77-2.05 4.9-3.78 6.39-1.72 1.48-3.81 2.22-6.26 2.22-1.53 0-3.6-.58-6.22-1.74-2.02-.92-3.73-1.84-5.11-2.75-1.33-1.07-2.65-2.14-3.96-3.23-2.89-2.3-5.32-4.05-7.29-5.24-3.04-1.81-5.49-2.71-7.34-2.71-1.24 0-2.19.28-2.85.85-.67.57-1 1.51-1 2.82 0 1.37.59 2.51 1.78 3.44 1.18.93 2.6 1.39 4.26 1.39.66 0 1.22-.19 1.68-.57.45-.39.68-.85.68-1.4 0-.24-.16-.57-.48-.96.13-.05.28-.12.45-.2.17-.09.32-.13.44-.13.45 0 .78.15 1.02.46.23.31.35.68.35 1.13 0 .13-.02.31-.07.56h.22c.45-.4.86-.66 1.24-.8.39-.13.89-.21 1.51-.21 1 0 2.1.38 3.29 1.12.91.57 1.71 1.24 2.41 2.01l-.15.22c-.62-.47-1.15-.79-1.59-.97-.72-.27-1.65-.4-2.78-.4-.89 0-2.29.13-4.19.4-1.04.15-1.89.23-2.55.23-2.05 0-3.74-.34-5.08-1.01-2.1-1.06-3.15-2.83-3.15-5.31 0-1.61.66-2.94 1.98-4.01 1.33-1.06 2.91-1.6 4.77-1.6 1.75 0 3.44.34 5.09 1.02 1.64.69 3.13 1.66 4.46 2.92 0-.86.13-1.6.39-2.21.26-.61.67-1.07 1.24-1.39.99.49 1.67.91 2.04 1.26.61.6 1.28 1.6 2 3.01.37-.47.71-.81 1.03-1 .55-.32 1.28-.49 2.19-.49 1.14 0 2.15.38 3.04 1.12 1.18.99 1.77 1.86 1.77 2.6l-.15.22c-.17-.2-.46-.36-.86-.48-.41-.12-.8-.19-1.17-.19-.72 0-1.29.29-1.72.86-.43.57-.65 1.24-.65 2 0 1.91.85 3.75 2.55 5.54 1.93 2.03 4.2 3.04 6.82 3.04 2.07 0 3.88-.59 5.41-1.78 1.72-1.34 2.98-3.36 3.78-6.05h-.41c-.67 2.05-1.58 3.67-2.74 4.86-1.36 1.39-2.97 2.08-4.82 2.08-2.69 0-4.63-.64-5.81-1.93-.79-.87-1.19-1.9-1.19-3.08 0-.65.22-1.21.65-1.69.43-.49.98-.73 1.65-.73.49 0 .86.04 1.09.12.23.07.43.3.57.7-.22.22-.34.36-.37.41-.1.17-.14.41-.14.7 0 1.24.59 2.26 1.77 3.05 1.06.72 2.26 1.08 3.6 1.08 1.08 0 2.13-.54 3.13-1.62.99-1.08 1.76-2.39 2.27-3.95-.37-.15-.64-.38-.83-.69-.18-.31-.28-.61-.28-.91 0-.57.14-1.01.41-1.3.02-.03.26-.19.7-.49 0-1.06-.18-2.04-.55-2.93-.52-1.24-1.29-1.86-2.3-1.86-.64 0-1.21.18-1.7.54-.5.36-.74.89-.74 1.58 0 .64.2 1.13.61 1.47.41.33.61.55.61.65 0 .32-.25.59-.74.82-.5.22-.85.33-1.08.33-1.08 0-1.9-.38-2.44-1.15-.45-.62-.67-1.38-.67-2.27 0-.96.38-1.81 1.13-2.54.76-.73 1.74-1.1 2.95-1.1.79 0 1.48.1 2.07.3.62.27 1.08.46 1.37.56.17-1.84.68-3.47 1.52-4.91.77-1.31 1.94-2.67 3.52-4.08 1.61 1.43 2.78 2.78 3.52 4.05.84 1.41 1.35 3.06 1.52 4.94.29-.1.63-.23.99-.37.82-.33 1.64-.49 2.45-.49 1.19 0 2.16.37 2.92 1.12.77.74 1.16 1.58 1.16 2.52 0 .89-.21 1.64-.64 2.23-.56.8-1.39 1.19-2.47 1.19-.25 0-.58-.09-.97-.26-.57-.25-.85-.55-.85-.89 0-.13.2-.36.61-.69.41-.33.61-.81.61-1.43 0-.67-.26-1.19-.76-1.56-.5-.37-1.07-.56-1.68-.56-1.02 0-1.78.62-2.3 1.86-.37.89-.55 1.87-.55 2.93.39.25.61.42.66.49.3.32.45.75.45 1.3 0 .32-.09.63-.26.92-.18.31-.46.53-.85.68.51 1.56 1.27 2.87 2.28 3.95 1 1.08 2.04 1.62 3.12 1.62 1.33 0 2.53-.36 3.6-1.08 1.18-.79 1.77-1.81 1.77-3.05 0-.27-.04-.48-.13-.63-.08-.15-.22-.31-.39-.48.15-.35.36-.57.63-.67.27-.1.62-.15 1.04-.15.66 0 1.22.24 1.65.73.43.48.65 1.04.65 1.69 0 1.63-.68 2.91-2.04 3.82-1.18.8-2.84 1.19-4.96 1.19-1.88 0-3.49-.68-4.82-2.04-1.13-1.17-2.05-2.8-2.74-4.9h-.41c.79 2.67 2.04 4.67 3.74 6.01 1.56 1.22 3.37 1.82 5.45 1.82 2.64 0 4.91-1 6.82-3.01 1.7-1.78 2.55-3.64 2.55-5.57 0-.76-.21-1.43-.65-2-.43-.57-1.01-.86-1.72-.86-.44 0-.85.06-1.21.17-.35.11-.63.28-.83.5l-.15-.22c0-.45.36-1.09 1.08-1.93 1.01-1.19 2.26-1.79 3.74-1.79.86 0 1.58.17 2.14.49.35.19.71.53 1.08 1 .72-1.41 1.38-2.41 2-3.01.37-.35 1.05-.77 2.04-1.26.69.39 1.16 1.04 1.4 1.93.15.52.22 1.08.22 1.67 1.34-1.26 2.82-2.23 4.45-2.92 1.63-.68 3.33-1.02 5.11-1.02 1.83 0 3.41.54 4.74 1.6 1.33 1.07 2 2.4 2 4.01zm-65.07.23c-.32-.58-.74-1.04-1.26-1.4-.52-.36-1.13-.54-1.85-.54-.96 0-1.7.29-2.22.86-.37.4-.62.94-.75 1.63h-.51c-.1-.1-.63-.94-1.59-2.52-.77-1.29-1.65-2.16-2.63-2.6-.32.49-.54.93-.65 1.32-.11.38-.17.91-.17 1.57 0 .38.09.83.26 1.38.17.54.26.83.26.85h-.26c-.81-1.29-1.86-2.41-3.15-3.38-2.14-1.63-4.53-2.45-7.15-2.45-1.3 0-2.45.25-3.44.74-.87.43-1.48.97-1.85 1.64.54-.27.91-.45 1.11-.52.57-.17 1.36-.26 2.37-.26 1.31 0 2.56.22 3.74.67 1.85.69 3.88 1.95 6.07 3.78.32.28 1.4 1.15 3.22 2.61 1.71 1.36 3.16 2.57 4.37 3.64l.67.14c-.96-.99-1.71-1.89-2.26-2.71-.12-.2-.51-.9-1.18-2.11-.3-.55-.55-1.15-.74-1.83-.05-.22-.12-.53-.23-.92h.3c.52 1.43 1.09 2.65 1.71 3.64.61.99 1.64 2.3 3.07 3.93h.48c-.3-.54-.52-1.12-.67-1.72-.14-.61-.22-1.2-.22-1.77 0-.37.06-.94.19-1.71 0-.12.02-.29.07-.52.1.03.2.03.3 0-.05.52-.09.92-.11 1.19-.03.28-.04.54-.04.78 0 .84.16 1.66.48 2.45.25.62.54 1.11.89 1.45l.67.22c-.33-.69-.58-1.39-.77-2.09-.18-.71-.27-1.36-.27-1.96 0-1.03.3-1.89.89-2.56.59-.66 1.33-1 2.22-1 .12 0 .33.03.63.08zm-21.41.77c0 .9-.36 1.71-1.07 2.46-.62.64-1.3 1.06-2.04 1.26l-.33-.19c1.78-.86 2.67-1.82 2.67-2.86 0-.49-.26-.81-.76-.96-.51-.15-.77-.31-.77-.48 0-.2.09-.36.27-.49.17-.12.34-.18.51-.18.47 0 .85.13 1.12.41.27.27.4.61.4 1.03zm30.48 9.7v-.22c-1.55 0-2.91-.36-4.07-1.08-1.31-.82-2.11-2.01-2.41-3.57-.12 0-.24.05-.37.15-.32.25-.48.67-.48 1.27 0 1.14.62 2.05 1.85 2.74 1.09.62 2.33.93 3.74.93.32 0 .6-.01.82-.03.39-.1.7-.17.92-.19zm2.34-15.01c-.44-.29-.99-.44-1.63-.44-.84 0-1.58.28-2.21.83-.63.56-.94 1.31-.94 2.25 0 .97.3 1.68.89 2.16.44.34.93.51 1.48.51.12 0 .27-.04.44-.12.18-.09.3-.2.37-.32-.74-.5-1.11-1.16-1.11-2.01 0-.84.28-1.5.82-1.99.54-.48 1.17-.77 1.89-.87zm13.18 16.9c0 .47-.12.82-.37 1.04-.24.23-.56.34-.92.34-.37 0-.63-.04-.78-.13-.15-.09-.31-.2-.48-.32-.22.87-.44 1.75-.63 2.64-.6 1.53-1.65 2.95-3.15 4.23-1.48-1.26-2.52-2.66-3.11-4.19-.05-.13-.28-1.02-.67-2.68-.24.2-.43.32-.55.37-.13.05-.36.08-.71.08-.37 0-.68-.11-.92-.34-.25-.22-.37-.57-.37-1.04 0-.34.08-.55.25-.61.17-.06.52-.09 1.04-.09.4 0 .7-.02.91-.06.21-.03.47-.15.8-.35.93-.54 1.72-1.6 2.37-3.16.52-1.24.77-2.18.77-2.82h.26c0 1.11.37 2.34 1.12 3.68.56 1.04 1.28 1.81 2.14 2.3.27.17.56.28.86.33.29.06.57.08.85.08.47 0 .8.03.99.11.2.08.3.27.3.59zM67.44 9.67c0-1.1-.4-2.34-1.2-3.74-.8-1.4-1.55-2.29-2.24-2.69-.69.4-1.42 1.26-2.19 2.6-.84 1.46-1.25 2.73-1.25 3.83 0 1.68.26 2.92.77 3.73.52.8 1.41 1.2 2.67 1.2 1.23 0 2.11-.4 2.65-1.22.53-.82.79-2.06.79-3.71zm-.11 6.72c0-.67-.3-1.01-.92-1.01H64h-2.41c-.27 0-.49.1-.67.3-.17.2-.25.44-.25.71 0 .25.09.46.27.65.19.19.41.27.65.27h4.82c.24 0 .46-.08.64-.27.19-.19.28-.4.28-.65zm-.52 9.8c-.88-.84-1.56-1.74-2.03-2.69-.47-.95-.71-1.79-.71-2.51h-.26c0 .67-.26 1.54-.79 2.6-.53 1.07-1.14 1.93-1.83 2.6.19.8.39 1.59.59 2.38.42 1.12 1.16 2.04 2.22 2.79 1.06-.75 1.8-1.67 2.22-2.79.3-1.19.49-1.98.59-2.38zm8.82-14.26c0-.94-.32-1.69-.95-2.25-.62-.55-1.36-.83-2.2-.83-.64 0-1.19.15-1.63.44.71.1 1.35.39 1.89.87.54.49.82 1.15.82 1.99 0 .85-.38 1.51-1.11 2.01.19.3.47.44.81.44.54 0 1.02-.15 1.44-.48.62-.47.93-1.2.93-2.19zm4.89 8.92c0-.5-.09-.86-.26-1.08-.18-.22-.37-.34-.6-.34-.29 1.56-1.09 2.75-2.4 3.57-1.14.72-2.5 1.08-4.08 1.08v.22c.23.05.47.1.73.15.25.05.6.07 1.02.07 1.42 0 2.67-.29 3.73-.89 1.24-.69 1.86-1.62 1.86-2.78zm28.7-9.92c-.35-.62-.95-1.15-1.81-1.6-1.01-.52-2.18-.78-3.49-.78-2.04 0-3.95.5-5.7 1.49-1.9 1.09-3.43 2.53-4.59 4.34h-.26c.02-.17.12-.51.28-1.02.15-.51.24-.91.24-1.21 0-.64-.06-1.16-.15-1.56-.1-.39-.32-.84-.67-1.33-.98.47-1.86 1.32-2.63 2.56-.99 1.63-1.52 2.49-1.59 2.56h-.52c-.12-.64-.37-1.17-.74-1.59-.52-.6-1.26-.9-2.22-.9-.69 0-1.3.18-1.83.52-.53.35-.96.82-1.28 1.42.3-.05.5-.08.63-.08.88 0 1.63.34 2.22 1 .59.67.89 1.53.89 2.56 0 .6-.1 1.25-.28 1.96-.19.7-.44 1.4-.76 2.09l.67-.22c.3-.29.6-.82.91-1.58.3-.75.46-1.52.46-2.32 0-.32-.02-.68-.06-1.07-.03-.4-.06-.7-.09-.9.1.03.2.03.3 0 .05.33.1.72.17 1.17.05.46.09.81.09 1.06 0 .8-.1 1.51-.3 2.16-.1.34-.29.79-.59 1.33H87c1.33-1.51 2.34-2.81 3.02-3.9.68-1.09 1.26-2.31 1.75-3.67h.31l-.12.52c-.2.81-.49 1.57-.87 2.26-.38.69-.76 1.39-1.13 2.08-.47.72-1.23 1.63-2.3 2.71l.67-.14c1.19-1.05 2.3-1.99 3.34-2.83 1.4-1.14 2.82-2.27 4.26-3.42 2.22-1.85 4.23-3.11 6.04-3.78 1.18-.45 2.44-.67 3.77-.67.99 0 1.76.09 2.33.26.27.07.66.25 1.15.52zm-2.11 7.2l-.34.19c-.71-.2-1.38-.62-1.99-1.26-.74-.77-1.11-1.59-1.11-2.46 0-.39.13-.73.38-1.02.26-.28.64-.42 1.14-.42.21 0 .4.07.55.22.15.15.22.3.22.45 0 .15-.25.29-.76.44-.51.15-.76.48-.76 1 0 .6.24 1.13.71 1.6.39.4 1.05.82 1.96 1.26zM128 9.67l-.78-.12c-1.43 0-3.07.7-4.93 2.08-.22.18-1.38 1.14-3.48 2.9-1.8 1.56-2.9 2.48-3.3 2.75-1.82 1.21-3.62 1.82-5.4 1.82-.35 0-.67-.03-.99-.09-.3-.07-.51-.12-.6-.17l.4-.3c1.95 0 3.51-.44 4.67-1.33 1.31-1.02 1.96-2.48 1.96-4.39 0-.84-.26-1.45-.77-1.82-.38-.27-.82-.41-1.33-.41.31-.49.72-.88 1.21-1.17.5-.28.97-.42 1.41-.42.67 0 1.19.08 1.56.26.22.1.49.39.82.89.85-.87 1.56-1.43 2.1-1.67.97-.45 2.05-.67 3.26-.67.79 0 1.61.18 2.45.56.54.24 1.12.59 1.74 1.04v.26zM125.89 9c-.25-.18-.57-.33-.97-.47-.39-.13-.77-.2-1.11-.2-1.68 0-3.03.44-4.07 1.34-.54.46-1.05 1.17-1.52 2.11h-.18c0-.62-.08-1.08-.22-1.37-.26-.5-.72-.74-1.42-.74-.24 0-.51.06-.79.2s-.49.29-.61.46c.37.08.66.33.87.77.21.43.31.93.31 1.5 0 .87-.21 1.73-.63 2.6l.19.18c.25-.34 1.1-1.2 2.56-2.56 1.68-1.56 2.9-2.51 3.66-2.86l.22.15c-1.16.79-2.23 1.68-3.22 2.66-.99.98-1.95 1.95-2.89 2.91l.48.15c2.35-2.3 4.41-4.05 6.19-5.24 1.06-.69 2.11-1.22 3.15-1.59z" fill="#232121"/>
</svg>
