<svg xmlns="http://www.w3.org/2000/svg" width="29" height="16" viewBox="0 0 29 16">
    <path d="M25.71 6.69c.42-.52.74-.93.98-1.24 1.75-2.24 2.5-3.67 2.27-4.29l-.09-.15c-.06-.09-.22-.17-.47-.24-.25-.07-.57-.09-.97-.04l-4.34.03c-.1-.01-.21-.01-.31.01-.1.01-.16.03-.19.04-.03.02-.06.03-.08.04l-.06.04c-.05.03-.1.08-.16.16-.06.07-.12.15-.16.25-.47 1.18-1.01 2.27-1.61 3.29-.37.6-.72 1.12-1.03 1.57-.31.44-.57.76-.78.97-.21.21-.41.38-.58.51-.17.12-.3.18-.39.16-.09-.02-.18-.04-.26-.06-.14-.09-.25-.21-.34-.36-.08-.15-.14-.34-.17-.57-.03-.23-.05-.42-.05-.59-.01-.16 0-.4.01-.7.01-.3.01-.51.01-.61 0-.37.01-.77.02-1.21.02-.43.03-.77.04-1.03.01-.25.02-.52.02-.8s-.02-.5-.06-.66c-.03-.16-.09-.32-.15-.47-.08-.15-.18-.27-.31-.35-.14-.08-.31-.15-.51-.2-.53-.12-1.21-.18-2.04-.19-1.87-.02-3.07.1-3.61.35-.21.11-.4.25-.57.44-.18.21-.21.33-.08.35.61.09 1.03.3 1.29.63l.09.17c.07.13.14.35.21.68.07.32.11.67.13 1.06.05.71.05 1.32 0 1.83-.05.5-.09.9-.14 1.18-.04.28-.11.51-.2.68-.09.18-.15.29-.18.33-.03.03-.06.06-.08.07-.13.05-.27.07-.41.07-.14 0-.31-.07-.51-.2-.2-.14-.41-.33-.63-.57-.21-.23-.46-.57-.73-1-.27-.42-.55-.93-.84-1.51l-.25-.43c-.15-.27-.35-.67-.62-1.19-.26-.52-.49-1.02-.69-1.51-.08-.2-.2-.36-.36-.47L5.69.92C5.64.88 5.56.84 5.45.8 5.34.75 5.22.72 5.1.7L.97.73c-.43 0-.71.09-.86.28l-.06.09c-.04.05-.05.12-.05.23 0 .11.03.24.09.39.6 1.38 1.26 2.7 1.97 3.97C2.77 6.97 3.39 8 3.91 8.78c.52.78 1.06 1.51 1.6 2.2.55.69.9 1.13 1.08 1.33.18.19.32.34.42.44l.37.35c.24.23.6.51 1.07.84.47.32.98.64 1.55.96.57.32 1.23.57 1.99.77.75.2 1.49.28 2.2.25h1.74c.35-.03.62-.14.8-.33l.06-.07c.04-.06.08-.15.11-.27.04-.12.06-.25.06-.4-.01-.42.02-.8.09-1.13.08-.34.17-.59.26-.76.1-.17.2-.31.33-.43.12-.12.2-.19.25-.21.05-.03.09-.04.12-.05.24-.08.53-.01.86.22.32.23.63.51.92.85.28.33.63.71 1.03 1.13.4.42.76.73 1.06.93l.3.18c.2.12.46.22.79.32.32.1.6.12.84.07l3.87-.05c.38 0 .68-.06.89-.19.21-.12.33-.25.38-.4.04-.14.04-.31 0-.49-.03-.19-.07-.32-.1-.39-.04-.07-.07-.13-.1-.18-.5-.88-1.47-1.95-2.89-3.23l-.03-.03-.01-.01-.02-.02h-.01c-.64-.59-1.05-.99-1.22-1.2-.32-.38-.39-.78-.21-1.18.12-.3.57-.94 1.35-1.91z" fill="#FFF"/>
</svg>
