<?xml version="1.0" encoding="utf-8"?>
<svg xmlns="http://www.w3.org/2000/svg"
	xmlns:xlink="http://www.w3.org/1999/xlink"
	width="12px" height="15px" viewBox="0 0 12 15">
<path fillRule="evenodd" d="M 6.63 14.35C 6.63 14.35 6 15 6 15 6 15 5.36 14.35 5.36 14.35 4.47 13.43-0 8.7-0 5.78-0 2.59 2.69-0 6-0 9.31-0 12 2.59 12 5.78 12 8.76 7.18 13.79 6.63 14.35ZM 6 3.77C 4.85 3.77 3.91 4.67 3.91 5.78 3.91 6.89 4.85 7.8 6 7.8 7.15 7.8 8.09 6.89 8.09 5.78 8.09 4.67 7.15 3.77 6 3.77Z" fill="rgb(253,223,151)"/></svg>