<?xml version="1.0" encoding="utf-8"?>
<svg xmlns="http://www.w3.org/2000/svg"
	xmlns:xlink="http://www.w3.org/1999/xlink"
	width="94px" height="26px" viewBox="0 0 94 26">
<path fillRule="evenodd" d="M 90.73 10.88C 89.35 11.57 87.65 11.92 85.62 11.92 84.81 11.92 83.97 11.85 83.11 11.73 81.03 11.43 79.63 11.29 78.88 11.29 77.77 11.29 76.85 11.42 76.14 11.69 75.65 11.87 75.11 12.19 74.51 12.66 74.51 12.66 74.36 12.44 74.36 12.44 75.08 11.64 75.87 10.97 76.73 10.43 77.92 9.69 79.03 9.31 80.07 9.31 80.69 9.31 81.18 9.39 81.57 9.52 81.95 9.66 82.36 9.92 82.81 10.32 82.81 10.32 83.03 10.32 83.03 10.32 82.98 10.07 82.96 9.87 82.96 9.73 82.96 9.25 83.07 8.88 83.29 8.59 83.51 8.31 83.86 8.16 84.33 8.16 84.47 8.16 84.64 8.22 84.83 8.31 85.01 8.41 85.14 8.48 85.21 8.5 85.09 8.65 85.01 8.76 84.95 8.83 84.81 9.03 84.74 9.24 84.74 9.46 84.74 9.99 84.95 10.44 85.4 10.84 85.84 11.24 86.41 11.43 87.1 11.43 88.73 11.43 90.15 10.97 91.34 10.04 92.54 9.11 93.14 7.97 93.14 6.6 93.14 5.32 92.81 4.38 92.14 3.8 91.47 3.22 90.52 2.93 89.29 2.93 87.46 2.93 85.03 3.83 81.99 5.64 79.89 6.9 77.46 8.64 74.7 10.84 73.36 11.93 72.03 13.02 70.69 14.11 69.38 15 67.7 15.9 65.62 16.82 62.96 18.01 60.87 18.6 59.36 18.6 56.92 18.6 54.83 17.87 53.11 16.39 51.37 14.92 50.12 12.78 49.33 9.99 49.33 9.99 47.03 9.99 47.03 9.99 47.03 9.99 44.74 9.99 44.74 9.99 43.94 12.76 42.68 14.89 40.96 16.38 39.23 17.86 37.14 18.6 34.7 18.6 33.16 18.6 31.09 18.02 28.48 16.86 26.45 15.94 24.74 15.02 23.36 14.11 22.03 13.04 20.71 11.97 19.4 10.88 16.51 8.57 14.08 6.83 12.11 5.64 9.07 3.83 6.62 2.93 4.77 2.93 3.54 2.93 2.59 3.21 1.92 3.78 1.25 4.35 0.92 5.29 0.92 6.6 0.92 7.97 1.51 9.11 2.7 10.04 3.88 10.97 5.3 11.43 6.96 11.43 7.62 11.43 8.18 11.24 8.64 10.86 9.1 10.47 9.33 10.01 9.33 9.46 9.33 9.22 9.17 8.89 8.84 8.5 8.97 8.45 9.12 8.38 9.29 8.3 9.46 8.21 9.61 8.16 9.73 8.16 10.18 8.16 10.52 8.32 10.75 8.63 10.99 8.94 11.11 9.31 11.11 9.76 11.11 9.89 11.08 10.07 11.03 10.32 11.03 10.32 11.25 10.32 11.25 10.32 11.7 9.92 12.11 9.66 12.49 9.52 12.88 9.39 13.38 9.31 14 9.31 15.01 9.31 16.11 9.69 17.29 10.43 18.2 11 19.01 11.67 19.7 12.44 19.7 12.44 19.55 12.66 19.55 12.66 18.93 12.19 18.4 11.87 17.96 11.69 17.24 11.42 16.31 11.29 15.18 11.29 14.29 11.29 12.9 11.42 10.99 11.69 9.96 11.84 9.1 11.92 8.44 11.92 6.39 11.92 4.7 11.58 3.36 10.91 1.26 9.85 0.22 8.08 0.22 5.6 0.22 3.99 0.87 2.66 2.2 1.59 3.52 0.53 5.1-0.01 6.96-0.01 8.71-0.01 10.41 0.33 12.05 1.01 13.69 1.7 15.18 2.67 16.51 3.93 16.51 3.07 16.64 2.33 16.9 1.72 17.16 1.11 17.57 0.65 18.14 0.33 19.13 0.82 19.81 1.24 20.18 1.59 20.79 2.19 21.46 3.19 22.18 4.6 22.55 4.13 22.9 3.79 23.21 3.6 23.76 3.28 24.49 3.11 25.4 3.11 26.54 3.11 27.55 3.49 28.44 4.23 29.62 5.22 30.22 6.09 30.22 6.83 30.22 6.83 30.07 7.05 30.07 7.05 29.89 6.85 29.6 6.69 29.2 6.57 28.79 6.45 28.4 6.38 28.03 6.38 27.32 6.38 26.74 6.67 26.31 7.24 25.88 7.81 25.66 8.48 25.66 9.24 25.66 11.15 26.51 12.99 28.22 14.78 30.14 16.81 32.41 17.82 35.03 17.82 37.1 17.82 38.91 17.23 40.44 16.04 42.17 14.7 43.42 12.68 44.22 9.99 44.22 9.99 43.81 9.99 43.81 9.99 43.14 12.04 42.23 13.66 41.07 14.85 39.71 16.24 38.1 16.93 36.25 16.93 33.56 16.93 31.62 16.29 30.44 15 29.65 14.13 29.25 13.1 29.25 11.92 29.25 11.27 29.47 10.71 29.9 10.23 30.33 9.74 30.88 9.5 31.55 9.5 32.04 9.5 32.41 9.54 32.64 9.61 32.88 9.69 33.07 9.92 33.22 10.32 32.99 10.54 32.87 10.68 32.85 10.73 32.75 10.9 32.7 11.14 32.7 11.43 32.7 12.67 33.29 13.69 34.48 14.48 35.54 15.2 36.73 15.56 38.07 15.56 39.15 15.56 40.2 15.02 41.2 13.94 42.2 12.86 42.96 11.55 43.47 9.99 43.1 9.84 42.83 9.61 42.64 9.3 42.46 8.99 42.36 8.69 42.36 8.39 42.36 8.22 42.37 8.06 42.39 7.92 41.37 7.92 40.7 7.92 40.7 7.93 40.7 7.46 40.82 7.08 41.07 6.86 41.32 6.64 41.62 6.53 42 6.53 42.34 6.53 42.57 6.55 42.7 6.6 42.82 6.65 43.1 6.77 43.35 6.97 43.74 5.31 43.87 4.42 43.92 4.3 44.51 2.76 45.55 1.36 47.03 0.1 48.53 1.39 49.58 2.8 50.18 4.33 50.37 5.23 50.49 6.1 50.72 6.97 50.89 6.85 51.14 6.74 51.29 6.65 51.44 6.57 51.7 6.53 52.07 6.53 52.44 6.53 52.75 6.64 53 6.86 53.24 7.08 53.36 7.46 53.36 7.93 53.23 7.94 52.54 7.94 51.57 7.94 51.64 8.09 51.7 8.25 51.7 8.39 51.7 8.71 51.61 9.02 51.44 9.31 51.26 9.61 50.98 9.84 50.59 9.99 51.1 11.55 51.86 12.86 52.87 13.94 53.87 15.02 54.91 15.56 55.99 15.56 57.32 15.56 58.53 15.2 59.59 14.48 60.77 13.69 61.36 12.67 61.36 11.43 61.36 11.16 61.32 10.95 61.23 10.8 61.15 10.65 61.01 10.49 60.84 10.32 60.99 9.97 61.2 9.75 61.47 9.65 61.75 9.55 62.09 9.5 62.51 9.5 63.17 9.5 63.73 9.74 64.16 10.23 64.59 10.71 64.81 11.27 64.81 11.92 64.81 13.55 64.13 14.83 62.77 15.74 61.59 16.54 59.93 16.93 57.81 16.93 55.93 16.93 54.33 16.25 53 14.89 51.86 13.72 50.94 12.09 50.25 9.99 50.25 9.99 49.84 9.99 49.84 9.99 50.63 12.66 51.88 14.66 53.59 16 55.14 17.22 56.96 17.82 59.03 17.82 61.67 17.82 63.94 16.82 65.85 14.81 67.55 13.03 68.4 11.17 68.4 9.24 68.4 8.48 68.19 7.81 67.75 7.24 67.32 6.67 66.75 6.38 66.03 6.38 65.59 6.38 65.18 6.44 64.83 6.55 64.47 6.66 64.19 6.83 63.99 7.05 63.99 7.05 63.84 6.83 63.84 6.83 63.84 6.38 64.2 5.74 64.92 4.9 65.93 3.71 67.18 3.11 68.66 3.11 69.52 3.11 70.24 3.28 70.81 3.6 71.16 3.79 71.52 4.13 71.88 4.6 72.6 3.19 73.26 2.19 73.88 1.59 74.25 1.24 74.93 0.82 75.92 0.33 76.61 0.72 77.08 1.37 77.32 2.26 77.47 2.78 77.55 3.34 77.55 3.93 78.88 2.67 80.36 1.7 81.99 1.01 83.62 0.33 85.33-0.01 87.1-0.01 88.93-0.01 90.51 0.53 91.84 1.59 93.17 2.66 93.84 3.99 93.84 5.6 93.84 8.08 92.81 9.84 90.73 10.88ZM 25.31 11.27C 25.12 10.56 25.03 9.91 25.03 9.31 25.03 8.28 25.33 7.42 25.92 6.75 26.51 6.09 27.25 5.75 28.14 5.75 28.26 5.75 28.48 5.78 28.77 5.83 28.45 5.25 28.03 4.79 27.51 4.43 26.99 4.07 26.38 3.89 25.66 3.89 24.7 3.89 23.96 4.18 23.44 4.75 23.07 5.15 22.82 5.69 22.7 6.38 22.7 6.38 22.18 6.38 22.18 6.38 22.08 6.28 21.55 5.44 20.59 3.86 19.82 2.57 18.95 1.7 17.96 1.26 17.64 1.75 17.42 2.19 17.31 2.58 17.2 2.96 17.14 3.49 17.14 4.15 17.14 4.53 17.23 4.98 17.4 5.53 17.57 6.07 17.66 6.36 17.66 6.38 17.66 6.38 17.4 6.38 17.4 6.38 16.59 5.09 15.54 3.97 14.25 3 12.11 1.37 9.72 0.55 7.1 0.55 5.8 0.55 4.65 0.8 3.66 1.29 2.8 1.72 2.18 2.26 1.81 2.93 2.35 2.66 2.72 2.48 2.92 2.41 3.49 2.24 4.28 2.15 5.29 2.15 6.6 2.15 7.85 2.37 9.03 2.82 10.88 3.51 12.91 4.77 15.1 6.6 15.43 6.88 16.5 7.75 18.33 9.21 20.03 10.57 21.49 11.78 22.7 12.84 22.7 12.84 23.36 12.99 23.36 12.99 22.4 12 21.65 11.1 21.11 10.28 20.98 10.08 20.59 9.38 19.92 8.16 19.62 7.62 19.38 7.02 19.18 6.34 19.13 6.12 19.06 5.81 18.96 5.42 18.96 5.42 19.25 5.42 19.25 5.42 19.77 6.85 20.34 8.07 20.96 9.06 21.57 10.05 22.6 11.36 24.03 12.99 24.03 12.99 24.51 12.99 24.51 12.99 24.22 12.45 23.99 11.87 23.84 11.27 23.7 10.66 23.62 10.07 23.62 9.5 23.62 9.13 23.68 8.56 23.81 7.79 23.81 7.67 23.83 7.5 23.88 7.27 23.98 7.3 24.08 7.3 24.18 7.27 24.13 7.79 24.09 8.19 24.07 8.46 24.04 8.74 24.03 9 24.03 9.24 24.03 10.08 24.19 10.9 24.51 11.69 24.76 12.31 25.05 12.8 25.4 13.14 25.4 13.14 26.07 13.36 26.07 13.36 25.75 12.67 25.49 11.97 25.31 11.27ZM 37.85 16.08C 36.29 16.08 34.93 15.72 33.77 15 32.46 14.18 31.66 12.99 31.37 11.43 31.24 11.43 31.12 11.48 30.99 11.58 30.67 11.83 30.51 12.25 30.51 12.84 30.51 13.99 31.13 14.9 32.36 15.59 33.45 16.21 34.7 16.52 36.1 16.52 36.43 16.52 36.7 16.51 36.92 16.49 37.32 16.39 37.62 16.32 37.85 16.3 37.85 16.3 37.85 16.08 37.85 16.08ZM 56.22 16.3C 56.44 16.35 56.68 16.4 56.94 16.45 57.2 16.5 57.54 16.52 57.96 16.52 59.39 16.52 60.63 16.23 61.7 15.63 62.93 14.94 63.55 14.01 63.55 12.84 63.55 12.35 63.46 11.99 63.29 11.77 63.11 11.55 62.92 11.43 62.7 11.43 62.4 12.99 61.6 14.18 60.29 15 59.15 15.72 57.79 16.08 56.22 16.08 56.22 16.08 56.22 16.3 56.22 16.3ZM 47 3.25C 47 3.25 44.69 4.72 44.66 6.97 44.72 7 49.25 6.97 49.25 6.97 49.22 4.78 47 3.25 47 3.25ZM 50.08 9.04C 50.27 8.85 50.37 8.64 50.37 8.39 50.37 8.21 50.34 8.06 50.3 7.93 48.33 7.93 45.79 7.92 43.81 7.92 43.74 8.06 43.7 8.22 43.7 8.39 43.7 8.64 43.79 8.85 43.97 9.04 44.16 9.23 44.38 9.31 44.63 9.31 44.63 9.31 47.03 9.31 47.03 9.31 47.03 9.31 49.44 9.31 49.44 9.31 49.69 9.31 49.9 9.23 50.08 9.04ZM 90.44 1.33C 89.43 0.81 88.26 0.55 86.96 0.55 84.91 0.55 83 1.05 81.25 2.04 79.35 3.13 77.82 4.57 76.66 6.38 76.66 6.38 76.4 6.38 76.4 6.38 76.43 6.21 76.52 5.87 76.68 5.36 76.84 4.85 76.92 4.45 76.92 4.15 76.92 3.51 76.87 2.99 76.77 2.59 76.67 2.2 76.45 1.75 76.1 1.26 75.12 1.73 74.24 2.58 73.47 3.82 72.49 5.45 71.96 6.31 71.88 6.38 71.88 6.38 71.37 6.38 71.37 6.38 71.24 5.74 70.99 5.21 70.63 4.79 70.1 4.19 69.36 3.89 68.4 3.89 67.71 3.89 67.1 4.07 66.57 4.41 66.04 4.76 65.61 5.23 65.29 5.83 65.59 5.78 65.79 5.75 65.92 5.75 66.81 5.75 67.55 6.09 68.14 6.75 68.73 7.42 69.03 8.28 69.03 9.31 69.03 9.91 68.94 10.56 68.75 11.27 68.56 11.97 68.32 12.67 67.99 13.36 67.99 13.36 68.66 13.14 68.66 13.14 68.96 12.84 69.26 12.32 69.57 11.56 69.87 10.81 70.03 10.04 70.03 9.24 70.03 8.92 70.01 8.56 69.98 8.16 69.94 7.77 69.91 7.47 69.88 7.27 69.98 7.3 70.08 7.3 70.18 7.27 70.23 7.6 70.28 7.98 70.35 8.44 70.4 8.9 70.44 9.25 70.44 9.5 70.44 10.3 70.34 11.01 70.14 11.66 70.04 12 69.85 12.45 69.55 12.99 69.55 12.99 70.03 12.99 70.03 12.99 71.37 11.48 72.37 10.18 73.05 9.09 73.73 8 74.31 6.78 74.8 5.42 74.8 5.42 75.11 5.42 75.11 5.42 75.06 5.64 75.02 5.81 74.99 5.94 74.79 6.75 74.5 7.51 74.12 8.2 73.74 8.89 73.36 9.59 72.99 10.28 72.52 11 71.76 11.91 70.69 12.99 70.69 12.99 71.37 12.84 71.37 12.84 72.55 11.8 73.66 10.86 74.7 10.02 76.1 8.88 77.52 7.75 78.96 6.6 81.18 4.75 83.19 3.49 85 2.82 86.18 2.37 87.44 2.15 88.77 2.15 89.76 2.15 90.54 2.24 91.1 2.41 91.37 2.48 91.76 2.66 92.25 2.93 91.9 2.31 91.3 1.78 90.44 1.33ZM 42 17.49C 42.39 17.49 42.69 17.47 42.9 17.43 43.11 17.4 43.38 17.28 43.7 17.08 44.64 16.54 45.43 15.48 46.07 13.92 46.59 12.68 46.84 11.74 46.84 11.1 46.84 11.1 47.11 11.1 47.11 11.1 47.11 12.21 47.47 13.44 48.22 14.78 48.78 15.82 49.5 16.59 50.37 17.08 50.63 17.25 50.92 17.36 51.22 17.41 51.51 17.46 51.79 17.49 52.07 17.49 52.54 17.49 52.87 17.53 53.06 17.6 53.27 17.67 53.36 17.87 53.36 18.19 53.36 18.66 53.24 19.01 53 19.23 52.75 19.46 52.44 19.57 52.07 19.57 51.7 19.57 51.44 19.53 51.29 19.44 51.14 19.35 50.98 19.24 50.81 19.12 50.59 19.99 50.37 20.87 50.18 21.76 49.58 23.29 48.53 24.71 47.03 25.99 45.55 24.73 44.51 23.33 43.92 21.8 43.87 21.67 43.65 20.78 43.25 19.12 43.01 19.32 42.82 19.44 42.7 19.49 42.57 19.55 42.34 19.57 42 19.57 41.62 19.57 41.32 19.46 41.07 19.23 40.82 19.01 40.7 18.66 40.7 18.19 40.7 17.85 40.78 17.64 40.96 17.58 41.13 17.52 41.47 17.49 42 17.49ZM 44.81 20.57C 45.23 21.69 45.97 22.61 47.03 23.36 48.09 22.61 48.83 21.69 49.25 20.57 49.55 19.38 49.74 18.59 49.84 18.19 48.96 17.35 48.28 16.45 47.81 15.5 47.34 14.55 47.11 13.71 47.11 12.99 47.11 12.99 46.84 12.99 46.84 12.99 46.84 13.66 46.58 14.53 46.05 15.59 45.52 16.66 44.91 17.53 44.22 18.19 44.41 18.99 44.61 19.78 44.81 20.57Z" fill="rgb(35,33,33)"/></svg>