<?xml version="1.0" encoding="utf-8"?>
<svg xmlns="http://www.w3.org/2000/svg"
	xmlns:xlink="http://www.w3.org/1999/xlink"
	width="15px" height="14px" viewBox="0 0 15 14">
<path fillRule="evenodd" d="M 7.98 14.01C 7.98 14.01 6.75 12.79 6.75 12.79 8.63 11.55 9.88 9.42 9.88 7 9.88 4.58 8.63 2.45 6.75 1.21 6.75 1.21 7.98-0.01 7.98-0.01 7.98-0.01 15.01 7 15.01 7 15.01 7 7.98 14.01 7.98 14.01ZM 2.06 9C 0.96 9 0.06 8.1 0.06 7 0.06 5.9 0.96 5 2.06 5 3.17 5 4.06 5.9 4.06 7 4.06 8.1 3.17 9 2.06 9Z" fill="rgb(35,33,33)"/></svg>