<?xml version="1.0" encoding="utf-8"?>
<svg xmlns="http://www.w3.org/2000/svg"
	xmlns:xlink="http://www.w3.org/1999/xlink"
	width="427px" height="572px" viewBox="0 0 427 572">
<path fillRule="evenodd" d="M-1.1 400.03C-1.1 400.03-1.1 389.13-1.1 389.13 3.4 386.93 8.49 385.73 13.59 385.73 21.18 385.33 29.28 388.43 34.38 395.33 46.87 413.43 34.88 438.32 23.88 451.52 17.19 459.72 7.89 467.82-1.3 475.62-1.3 475.62-1.3 465.42-1.3 465.42 3.8 460.52 8.69 455.12 13.39 449.62 20.78 440.92 30.78 427.83 32.78 418.43 34.78 409.03 32.28 397.73 24.58 395.43 19.49 397.23 15.89 401.03 14.09 405.93 10.99 401.53 17.89 395.43 22.78 394.13 21.48 393.63 20.98 393.63 20.29 393.63 13.39 393.13 8.49 401.03 7.79 407.93 4 401.73 10.89 393.63 15.99 391.83 15.49 391.83 14.19 391.83 13.49 391.83 6.09 391.83 3 401.23 3.5 410.53-1.6 406.73 2.2 396.23 5.99 394.43 2.9 394.63 0.4 396.83-1.1 400.03ZM-1.5 440.62C-1.5 440.62-1.5 433.72-1.5 433.72-1.5 433.72 1.9 433.42 1.9 433.42 1.9 433.42-1.5 440.62-1.5 440.62ZM-1.5 418.03C-1 419.13-0.2 420.23 0.7 420.93 1.2 420.93 2.5 420.93 3.2 420.93 13.69 420.93 12.59 409.13 20.09 406.63 25.68 427.32 8.29 437.22 0.7 450.32-0 451.02-0.8 451.62-1.5 452.32-1.5 452.32-1.5 441.62-1.5 441.62-0 439.82 1.4 438.22 2.5 436.52 6.29 431.42 9.39 428.32 11.19 424.03 8.69 425.83 6.09 426.53 1.8 426.53 0.5 426.53-0 426.53-1.3 426.53-1.3 426.53-1.5 426.53-1.5 426.53-1.5 426.53-1.5 418.03-1.5 418.03ZM 401.83 176.97C 406.23 185.67 422.52 182.07 423.02 195.07 419.22 199.46 412.52 198.86 407.43 201.26 404.93 202.56 403.63 205.06 401.23 205.66 396.14 207.46 390.74 208.76 385.64 208.76 363.86 208.76 345.07 191.87 338.17 177.07 331.28 182.17 326.98 193.97 316.99 193.97 315.69 193.97 314.49 193.97 312.59 193.47 316.99 176.57 308.19 161.07 294.5 158.47 292 157.97 290.11 157.97 288.31 157.97 265.32 157.97 249.73 181.67 247.73 199.86 257.13 192.47 269.52 182.97 285.01 182.97 287.51 182.97 290.61 182.97 293.7 184.27 299.9 201.66 295 226.16 289.31 237.16 294.4 235.36 299.3 234.66 303.6 234.66 323.48 234.66 337.87 250.76 359.06 250.76 362.16 250.76 365.26 250.26 369.05 249.46 372.15 255.65 365.96 262.55 362.16 267.55 350.97 280.65 330.98 291.25 309.79 291.25 304.7 291.25 299.8 290.75 294.2 289.45 296.7 296.35 304.2 299.45 308.49 305.05 315.89 315.04 318.99 326.24 326.58 335.64 333.98 345.04 345.27 349.44 353.36 358.14 345.97 369.33 329.68 381.83 310.39 381.83 308.59 381.83 306 381.83 304.2 381.33 294.8 380.03 288.11 373.13 280.51 371.34 282.31 385.63 285.61 399.93 296.6 400.73 296.6 400.73 297.1 400.73 297.1 400.73 305.8 400.73 309.59 390.23 317.79 390.23 319.59 390.23 321.58 390.73 323.38 391.53 333.38 426.53 309.09 450.02 278.41 450.02 277.11 450.02 276.61 450.02 275.32 450.02 248.53 448.72 229.85 427.02 226.75 403.83 221.65 412.03 209.36 416.33 198.17 416.33 182.08 416.33 166.49 407.63 170.09 387.73 170.59 387.73 171.88 387.73 172.58 387.73 189.47 387.73 195.57 376.53 193.27 358.34 190.77 343.34 176.38 329.74 158.99 329.74 155.2 329.74 150.8 330.24 147.2 332.24 143.4 333.54 140.31 337.34 137.21 339.64 126.71 347.04 116.52 349.04 104.83 357.04 98.63 370.14 89.24 384.43 83.04 395.63 91.74 391.23 101.13 386.93 112.42 384.43 119.82 382.63 128.51 383.13 134.21 380.63 137.31 379.33 141.1 371.93 144.2 371.93 149.3 371.93 152.4 380.63 152.4 387.53 152.9 413.83 141.2 426.83 130.61 439.92 143.7 453.02 153.6 468.52 153.1 489.71 152.6 515.31 137.51 531.61 121.92 540.81 117.52 543.3 112.52 543.9 106.93 547 97.53 551.4 91.34 562 88.24 572 74.45 567.6 71.35 543.9 80.05 532.11 68.25 521.61 74.95 497.81 91.24 495.81 92.54 502.71 99.93 508.31 106.83 508.31 110.62 508.31 113.72 506.51 115.02 502.71 118.82 492.21 111.92 479.72 106.83 473.32 101.73 467.12 90.74 463.32 80.54 461.52 76.75 461.02 73.65 461.02 70.05 461.02 45.77 461.02 32.78 476.62 17.19 489.61 10.99 494.71 4.7 500.11-1.8 505.41-1.8 505.41-1.8 489.61-1.8 489.61 8.69 481.42 19.19 473.32 30.78 465.92 44.57 457.22 55.76 451.62 74.95 451.62 76.75 451.62 78.75 451.62 80.54 451.62 100.43 452.92 117.82 468.52 121.62 486.61 126.01 471.02 112.22 465.92 105.53 459.22 121.12 461.02 129.81 477.32 124.22 496.01 129.81 492.21 128.61 475.32 125.52 469.22 118.62 453.62 95.63 445.52 77.55 442.42 78.05 439.92 82.64 439.32 85.74 439.32 86.24 439.32 87.04 439.32 87.54 439.32 104.93 439.32 118.12 438.02 128.61 425.53 137.31 415.53 143.6 400.53 142.9 383.13 132.91 390.03 113.52 388.23 101.83 394.33 100.03 395.63 98.73 397.43 96.73 398.73 92.94 401.23 87.34 402.53 84.24 404.93 71.15 414.33 64.36 431.22 47.47 439.22 46.17 433.62 51.26 430.52 51.86 424.23 53.66 410.43 48.07 396.83 44.97 386.13 38.07 382.33 33.18 371.83 23.18 370.03 21.38 369.53 18.79 369.53 16.99 369.53 10.99 369.53 4.3 371.03-2 373.33-2 373.33-2 366.04-2 366.04 1.9 364.74 5.69 363.84 9.39 363.64 10.69 363.64 11.89 363.64 13.19 363.64 26.28 363.64 42.57 368.74 44.87 381.03 44.87 356.74 50.47 335.54 66.05 323.54 71.15 319.74 77.85 318.44 81.64 313.54 84.14 310.45 85.44 304.15 87.84 299.25 94.04 285.45 99.03 270.65 102.83 255.55 91.04 255.55 79.85 261.75 71.65 267.35 68.55 271.15 67.25 278.55 62.26 278.55 62.26 278.55 61.76 278.55 60.96 278.55 55.86 278.05 54.76 266.05 54.76 258.65 56.06 244.36 69.05 232.36 73.45 228.06 52.76 224.26 37.97 211.96 36.67 191.27 42.87 192.57 52.26 195.07 60.96 195.07 66.55 195.07 71.45 194.57 75.25 191.27 72.15 188.77 67.85 188.17 64.06 185.07 43.37 170.77 31.68 120.18 53.56 98.48 64.06 110.28 82.14 115.38 99.03 120.98 99.53 117.18 93.44 114.78 90.84 110.98 79.05 95.38 75.85 75.99 73.45 54.29 72.95 49.89 71.65 43.79 69.05 38.69 67.75 35.59 63.96 32.49 64.66 29.99 65.16 26.89 68.45 26.2 72.85 26.2 82.84 26.2 97.83 32.39 100.23 36.19 102.73 27.99 112.02 21.9 112.72 13.2 113.12 10.1 112.02 5.2 110.92 0.5 110.92 0.5 133.01 0.5 133.01 0.5 121.62 15.9 109.33 30.19 101.53 46.89 95.34 39.99 89.74 33.09 76.55 32.59 83.94 45.69 82.14 68.89 87.74 83.68 89.54 73.19 87.74 56.29 87.74 46.89 95.24 57.29 88.34 82.39 93.94 95.38 95.24 82.89 96.43 66.79 94.44 53.49 103.83 66.59 92.64 87.78 98.83 102.08 100.63 105.88 105.03 109.48 107.03 112.58 109.53 116.38 112.12 120.78 115.72 122.58 105.23 108.28 95.83 67.09 111.92 47.69 120.12 24.99 135.81 12 155.2-0 155.2-0 192.37-0 192.37-0 202.86 2.7 212.26 6.9 222.45 11.4 232.94 15.8 243.64 18.3 254.83 21.4 259.23 22.7 263.02 25.2 267.32 25.2 268.62 25.2 269.12 25.2 270.42 25.2 291.11 25.2 305.4 12.7 318.99 2.7 319.19 1.6 319.49 0.7 320.09-0 320.09-0 332.18-0 332.18-0 328.78 8.7 321.68 15.8 314.59 21.6 302.1 31.59 287.81 35.39 272.72 35.39 262.72 35.39 252.83 33.59 242.14 30.29 250.83 68.89 223.45 91.38 189.27 91.38 186.17 91.38 183.08 91.38 179.88 90.88 178.58 79.09 189.87 70.99 187.27 59.69 185.48 50.99 174.18 45.89 165.49 45.39 169.89 59.69 165.49 76.59 167.99 90.38 168.49 93.48 169.79 95.48 170.49 97.78 170.98 102.18 169.99 106.48 170.49 110.28 173.58 123.38 182.98 132.78 188.57 144.57 195.97 160.17 195.47 175.77 199.07 196.37 203.46 151.37 219.75 115.38 252.73 101.08 263.92 95.98 276.41 94.18 288.21 94.18 308.09 94.18 328.08 99.78 343.07 107.98 355.56 114.88 369.85 127.88 388.04 127.88 393.64 127.88 399.23 126.58 405.43 124.08 407.23 122.28 405.43 116.68 409.23 115.88 415.42 117.68 419.72 121.48 423.02 126.38 436.81 150.07 411.23 168.77 401.83 176.97ZM 122.72 442.12C 121.42 444.62 127.81 449.02 130.91 453.92 137.11 463.32 146.5 482.02 139.11 498.11 140.9 473.12 132.91 452.62 116.12 444.42 126.11 456.92 144.2 470.72 137.31 495.51 134.21 507.31 121.22 516.71 109.23 516.71 101.83 516.71 94.24 512.91 90.54 503.61 86.14 504.11 84.34 506.71 83.14 510.51 84.94 512.31 88.74 512.31 90.54 513.61 90.04 514.11 89.24 514.91 88.04 514.91 86.24 514.91 83.64 513.61 82.44 513.61 81.94 513.61 81.94 513.61 81.94 514.11 82.44 519.71 89.34 517.91 93.74 519.21 93.74 521.01 92.44 521.71 91.24 521.71 88.74 521.71 85.04 519.91 83.84 519.91 83.34 519.91 83.34 519.91 83.34 519.91 85.84 524.31 94.54 523.01 101.43 523.71 100.93 525.51 98.93 526.21 96.33 526.21 93.24 526.21 89.44 524.91 86.94 524.91 86.94 524.91 86.44 524.91 86.44 524.91 87.74 527.41 90.84 528.01 94.64 528.01 99.03 528.01 104.03 527.51 107.13 526.71 105.83 529.21 103.33 529.81 99.73 529.81 97.93 529.81 95.93 529.81 93.54 529.81 93.04 529.81 92.24 529.81 91.74 529.81 85.54 534.21 79.95 547.2 86.64 554.8 99.13 532.31 134.61 531.11 143.3 504.21 150.8 479.62 137.81 455.32 122.72 442.12ZM 230.05 365.44C 232.54 374.83 232.54 384.83 233.84 396.03 235.64 413.43 243.84 427.73 255.63 434.62 260.03 437.72 271.72 439.72 282.41 439.72 289.81 439.72 297.4 438.42 301.8 436.62 312.29 431.02 320.49 411.63 316.79 398.03 312.99 400.53 315.49 405.43 315.49 409.23 312.99 426.13 293.7 437.32 275.62 437.32 267.42 437.32 259.53 434.82 252.63 429.92 243.94 423.03 241.44 411.23 238.84 396.93 246.23 406.33 243.94 421.23 254.43 428.12 260.03 431.92 269.42 433.72 277.41 433.72 278.71 433.72 279.91 433.72 280.51 433.72 297.9 432.42 313.49 419.93 311.69 400.03 306.59 403.13 309.19 408.23 307.89 411.83 306.1 418.03 299.7 424.93 294.1 427.43 288.51 429.92 283.61 430.52 279.11 430.52 263.02 430.52 250.53 418.73 245.44 406.23 241.64 396.23 242.34 384.43 241.04 373.23 238.54 358.24 231.64 343.34 221.65 335.14 227.85 346.94 239.74 364.54 236.64 385.73 232.24 363.24 226.65 340.74 210.36 329.54 218.25 338.04 225.65 349.84 230.05 365.44ZM 216.95 352.94C 218.75 347.84 213.86 342.94 211.86 339.14 211.36 343.64 216.25 348.04 216.95 352.94ZM 218.75 355.44C 218.75 355.44 218.25 354.94 218.25 354.94 217.75 354.94 220.05 361.84 220.05 364.34 221.35 380.43 216.25 399.33 205.06 404.23 225.65 403.53 227.45 373.53 218.75 355.44ZM 195.07 404.73C 209.36 404.73 218.05 387.33 217.55 367.94 216.25 348.04 202.56 329.34 191.97 322.44 201.36 332.94 220.05 362.34 210.66 385.53 206.86 394.23 198.87 399.83 189.47 404.23 191.37 404.73 193.27 404.73 195.07 404.73ZM 180.18 319.94C 183.28 323.74 188.37 325.04 191.97 327.34 188.87 324.24 185.08 321.24 180.18 319.94ZM 187.07 402.23C 191.47 402.23 196.47 398.43 198.87 396.63 201.36 394.13 206.26 388.43 207.56 385.43 214.96 369.84 206.26 348.64 200.17 337.94 208.86 355.34 211.36 397.73 182.08 398.43 183.28 400.93 185.08 402.23 187.07 402.23ZM 193.77 337.34C 204.26 351.64 204.96 384.83 189.97 391.03 188.67 391.53 187.47 391.53 186.17 391.53 185.68 391.53 185.68 391.53 184.88 391.53 181.78 391.03 178.68 391.53 179.28 395.93 183.68 395.43 189.77 394.13 193.57 391.53 209.16 381.53 206.66 346.04 192.27 331.04 187.87 326.64 181.08 321.64 174.18 321.64 172.38 321.64 169.79 322.14 167.99 323.44 176.38 326.14 187.57 329.34 193.77 337.34ZM 185.08 313.04C 190.67 313.04 196.87 313.54 203.16 316.14 221.85 321.74 241.74 337.94 247.33 358.04 253.53 379.83 249.83 402.23 264.72 414.73 269.12 418.53 277.21 420.93 284.61 420.93 294 420.93 303.3 416.53 302.7 405.33 294 402.23 283.31 402.23 279.01 392.83 274.62 383.43 277.21 369.84 274.62 357.84 275.12 357.84 275.12 357.84 275.92 357.84 281.01 357.84 283.31 362.94 287.11 365.24 292.7 369.64 302.1 372.13 310.79 372.13 323.88 372.13 337.07 367.04 341.97 355.24 312.09 341.44 305.7 303.45 277.11 282.95 267.72 276.05 245.94 267.95 231.64 266.85 227.85 266.35 224.25 266.35 220.45 266.35 185.48 266.35 166.29 283.25 146.4 301.35 161.99 293.95 183.18 292.65 204.86 290.85 213.06 290.35 220.45 289.55 226.65 289.55 242.24 289.55 254.03 292.65 264.72 302.65 274.12 312.65 277.21 320.74 288.41 330.04 280.21 330.04 274.12 321.34 267.22 316.24 267.22 315.74 266.72 315.74 266.72 315.74 266.72 315.74 266.72 316.24 267.22 317.04 281.01 336.94 301.5 349.44 326.98 357.64 326.48 357.64 325.68 357.64 324.48 357.64 315.79 357.64 307.59 353.84 301.5 350.74 294.1 346.94 287.71 342.04 281.61 335.74 264.72 320.14 257.33 297.65 228.75 295.15 243.74 300.75 255.03 305.65 263.72 316.94 270.62 325.64 275.52 336.84 284.91 343.74 294.9 351.14 306.69 353.14 317.89 361.14 317.89 361.14 317.39 361.14 317.39 361.14 312.29 361.14 306.2 358.04 299.3 354.94 291.11 351.14 282.41 345.54 276.81 339.34 265.62 326.24 256.93 305.65 236.24 301.25 240.04 305.65 244.94 306.85 248.73 309.95 259.93 318.64 265.62 333.64 275.52 343.64 284.21 351.84 294.9 355.44 305.4 362.34 304.9 362.34 304.1 362.34 303.6 362.34 299.2 362.34 294.9 358.54 291.11 356.74 278.01 349.84 266.82 338.64 259.93 326.14 260.43 329.94 265.02 336.64 265.02 343.54 259.43 340.44 258.13 333.04 253.83 327.94 245.14 317.44 231.34 305.45 215.26 301.65 207.06 299.85 198.37 298.55 189.67 298.55 167.89 298.55 146.7 304.75 133.01 316.64 145.5 312.24 161.59 303.55 180.98 302.35 183.48 302.35 185.38 302.35 187.87 302.35 209.66 302.35 230.25 308.55 240.24 321.04 232.84 317.94 225.25 311.05 216.55 308.55 209.16 306.75 200.47 305.45 192.27 305.45 162.39 305.45 131.21 317.94 116.92 334.84 131.21 327.94 151.2 311.85 173.58 309.25 177.38 308.75 180.48 308.75 184.08 308.75 201.46 308.75 216.45 313.84 229.05 321.84 220.85 321.34 214.76 314.44 206.56 313.14 200.97 311.85 195.37 311.85 190.47 311.85 158.79 311.85 130.01 327.44 112.62 343.54 134.01 334.24 156.49 313.04 185.08 313.04ZM 107.23 331.14C 110.33 311.25 121.52 299.95 123.32 279.35 117.72 292.45 115.12 307.45 107.73 317.44 110.82 301.35 120.22 287.55 122.02 271.95 122.02 271.95 122.02 271.95 121.52 271.95 121.02 271.95 120.22 272.45 119.72 272.45 106.63 314.34 89.84 351.64 69.95 385.93 70.45 390.33 68.65 392.13 69.45 396.43 74.55 386.43 79.45 377.03 84.44 367.04 82.64 383.93 69.45 395.63 65.75 412.53 82.94 389.13 92.84 358.04 107.23 331.14ZM 55.56 383.53C 56.06 384.83 56.06 387.33 56.06 387.33 56.06 387.33 56.06 386.03 56.06 383.53 56.56 374.83 53.56 362.34 56.06 354.14 59.86 371.03 59.16 390.93 58.56 409.03 66.75 395.23 59.86 367.94 62.96 350.54 64.76 338.74 71.15 331.84 74.75 321.94 57.96 329.94 48.67 360.54 55.56 383.53ZM 85.94 319.24C 80.84 331.04 72.15 341.74 70.95 352.94 72.25 347.84 75.35 344.74 79.15 341.74 76.65 351.14 69.15 354.84 69.15 366.74 84.74 338.14 99.03 308.25 110.23 275.05 112.72 271.25 117.62 265.65 114.62 261.25 109.53 272.45 105.23 284.95 100.33 295.55 100.83 282.45 109.73 271.25 112.12 257.45 107.73 259.95 107.73 265.65 105.93 269.95 100.33 284.95 92.84 303.05 85.94 319.24ZM 105.33 120.98C 105.33 120.98 104.83 124.78 104.83 124.78 106.63 125.28 108.63 126.08 110.43 126.58 108.43 124.78 106.63 122.98 105.33 120.98ZM 165.19 2.4C 163.89 2.9 162.69 4.2 161.39 4.9 164.49 4.4 167.59 3.6 170.79 3.1 170.79 3.1 165.19 2.4 165.19 2.4ZM 231.24 21.3C 231.24 21.3 229.95 21.3 229.45 20.8 229.45 21.3 229.95 21.3 229.45 20.8 230.75 22.1 231.24 22.6 231.94 23.9 231.94 23.9 231.24 21.3 231.24 21.3ZM 187.57 81.59C 198.07 76.49 207.46 69.79 206.96 54.19 203.76 66.79 191.37 69.79 187.57 81.59ZM 191.37 54.29C 195.17 51.79 195.17 42.49 193.87 36.89 192.57 36.89 192.07 36.89 191.37 36.89 192.67 44.29 188.17 49.39 191.37 54.29ZM 191.97 61.09C 197.57 57.99 201.36 48.59 198.87 39.89 197.07 47.39 195.07 54.29 191.97 61.09ZM 191.97 69.29C 194.47 69.29 202.46 59.89 204.46 54.99 205.76 51.19 204.96 47.59 203.96 44.49 202.66 56.09 195.07 60.39 191.97 69.29ZM 187.57 47.39C 190.07 44.29 188.87 38.69 187.57 35.59 186.27 35.59 185.78 35.59 184.48 35.59 185.78 39.19 183.78 46.09 187.57 47.39ZM 181.48 42.49C 183.28 39.99 181.98 35.09 179.68 35.09 179.18 35.09 178.38 35.09 177.88 35.59 177.68 39.19 179.48 41.19 181.48 42.49ZM 191.37 28.19C 195.77 28.69 201.36 32.59 205.16 35.09 209.56 36.39 211.36 40.69 215.16 40.69 215.66 45.79 216.95 50.09 217.65 54.99 221.45 49.89 219.45 41.89 218.15 35.59 228.15 46.09 216.35 62.39 211.96 70.59 220.65 64.39 228.85 49.89 222.45 35.59 227.55 36.89 228.65 46.79 227.55 52.99 225.75 65.49 212.56 72.89 205.76 79.79 223.85 76.69 243.84 44.29 225.65 26.09 216.25 16.7 196.27 11.1 180.68 10 178.88 10 177.58 10 175.58 10 159.49 10 148.8 16.9 139.31 26.09 123.22 41.69 102.53 73.59 114.32 105.28 118.12 115.28 124.82 122.18 128.61 132.68 125.52 116.58 114.82 105.28 114.32 87.18 113.02 51.69 134.21 30.99 161.79 22.3 161.79 22.3 162.29 22.3 162.29 22.3 137.11 36.09 111.02 55.99 119.22 98.38 116.12 59.79 139.11 26.09 177.18 26.09 181.48 26.2 186.37 26.89 191.37 28.19ZM 132.21 135.98C 132.21 135.98 125.32 133.48 125.32 133.48 127.81 134.78 129.71 136.58 132.21 138.58 132.21 137.78 132.21 137.28 132.21 135.98ZM 132.71 106.08C 137.11 96.08 132.21 74.89 132.21 60.59 127.81 72.89 131.41 94.88 132.71 106.08ZM 124.62 111.68C 124.12 106.58 122.12 103.48 120.82 99.18 119.72 99.78 124.62 111.68 124.62 111.68ZM 134.71 54.99C 137.21 69.29 136.51 86.18 138.51 100.48 139.81 99.18 141 97.38 142.3 96.08 139.21 82.99 140.51 66.19 137.21 53.69 135.81 53.69 135.81 54.99 134.71 54.99ZM 151.4 81.09C 150.9 69.29 150.1 55.49 148.3 44.79 144.5 47.29 147 50.99 147.8 55.29 149.1 67.09 147.8 82.69 150.3 92.58 154.6 91.08 152.1 84.88 151.4 81.09ZM 155.2 91.08C 158.99 77.29 155.7 57.39 152.7 44.89 152.7 44.89 152.7 44.89 152.2 44.89 151.7 44.89 150.9 44.89 150.9 45.39 153.9 59.29 154.6 75.49 155.2 91.08ZM 175.08 38.69C 177.58 38.19 174.58 36.89 175.08 35.59 175.08 35.59 174.58 35.59 174.58 35.59 173.28 35.59 173.28 36.09 172.08 36.09 171.48 38.69 174.58 36.89 175.08 38.69ZM 166.99 38.09C 166.99 36.79 166.49 36.29 166.99 34.99 166.99 34.99 166.49 32.49 166.49 32.49 162.09 33.79 157.79 34.99 154 37.59 154 37.59 154 38.89 154 38.89 154 38.89 154 38.89 154.5 38.89 154.5 38.89 155.8 38.89 155.8 38.89 155.8 38.89 155.8 37.59 155.8 37.59 155.8 37.59 165.19 38.09 165.19 38.09 165.89 38.09 166.39 38.09 166.99 38.09ZM 335.78 116.08C 323.98 107.38 301.5 98.68 280.91 98.68 269.72 98.68 258.43 101.18 249.23 107.38 244.84 110.48 241.04 114.78 236.74 118.58 218.65 132.88 211.16 153.57 207.36 181.67 204.86 200.36 201.76 219.76 187.97 230.26 185.48 228.46 188.47 223.36 188.47 220.26 193.57 170.47 171.58 140.48 157.89 108.08 157.89 103.68 157.39 100.68 154.8 99.38 149.2 100.68 144.3 103.78 141 107.58 132.81 119.38 139.71 139.28 135.91 152.57 130.31 152.07 130.81 146.37 127.71 143.87 109.63 125.78 72.25 128.28 52.86 111.48 41.67 148.27 58.46 178.17 85.84 188.17 83.34 196.87 72.75 200.66 61.56 200.66 56.46 200.66 51.56 200.16 47.27 198.86 52.86 214.96 70.95 218.26 89.64 221.36 91.44 226.96 80.25 226.96 84.54 229.56 87.04 227.76 90.14 227.06 94.54 227.06 95.04 227.06 96.33 227.06 97.63 227.06 87.14 230.86 75.15 233.26 68.25 241.36 75.65 238.86 85.14 231.96 98.13 231.96 99.43 231.96 100.63 231.96 101.93 231.96 100.13 234.46 96.83 234.46 94.54 234.46 94.04 234.46 93.24 234.46 92.04 234.46 90.84 234.46 89.54 234.46 88.24 234.46 77.05 236.96 65.26 243.86 61.46 254.36 61.46 254.36 61.96 254.36 61.96 254.36 65.06 254.36 66.35 249.26 69.35 246.96 75.55 241.86 84.94 236.96 95.63 236.96 98.73 236.96 101.23 237.46 104.33 238.26 85.64 239.56 68.05 246.46 61.96 261.95 70.15 255.06 83.14 242.56 99.23 242.56 101.73 242.56 104.83 243.06 107.43 243.86 117.42 246.36 123.02 256.95 126.81 266.85 130.61 256.85 120.62 248.76 116.32 241.86 130.11 246.26 131.91 264.85 128.81 279.95 136.21 268.15 130.11 250.56 122.62 242.66 128.81 245.16 133.11 252.66 134.41 260.75 136.21 272.55 130.01 283.25 125.72 290.15 125.72 290.15 125.72 290.15 126.21 290.15 130.61 290.15 136.71 277.05 136.71 268.35 137.21 245.36 118.02 230.26 105.53 219.76 106.83 219.26 108.03 219.26 108.63 219.26 114.82 219.26 121.12 223.66 124.72 227.46 140.8 241.76 149.7 269.85 135.21 290.55 129.01 299.95 117.82 304.35 114.02 317.34 131.41 298.65 159.49 281.05 154.6 241.96 150.8 214.56 136.51 195.17 117.82 180.87 97.13 163.97 68.05 152.77 56.06 125.38 77.85 146.07 111.52 162.67 136.51 186.47 156.39 205.16 170.19 240.66 156.39 273.85 166.89 255.75 168.19 218.96 157.69 199.76 168.89 207.16 169.49 240.86 164.59 259.05 170.79 249.66 170.79 228.46 168.39 213.56 164.59 193.67 150.3 181.87 144.7 166.07 149.1 166.07 151.6 171.17 154.7 174.27 164.69 185.47 175.38 199.26 175.88 220.46 175.88 232.26 173.38 245.46 169.69 256.75 169.69 256.75 169.69 257.25 170.19 257.25 171.48 257.25 174.58 252.86 177.08 251.66 187.57 244.76 202.06 241.66 215.66 239.16 234.34 235.36 249.93 226.06 260.63 216.16 250.13 254.26 183.28 239.86 167.69 271.05 190.17 257.25 221.35 253.66 254.23 253.66 277.91 253.66 302.8 255.45 326.48 257.45 320.29 257.95 313.39 258.75 307.09 258.75 287.71 258.75 266.52 256.25 246.63 256.25 236.14 256.25 225.95 256.75 216.75 259.35 222.35 260.65 229.25 261.15 236.64 261.15 239.74 261.15 242.84 261.15 246.04 261.15 248.53 261.15 251.63 261.15 254.23 261.15 273.62 261.15 293.5 263.65 312.69 263.65 323.18 263.65 333.88 263.15 343.87 260.55 338.77 264.95 328.88 265.65 320.19 265.65 318.89 265.65 317.09 265.65 315.79 265.65 311.99 265.65 308.39 265.65 305.3 265.65 304 265.65 302.8 265.65 301.5 265.65 299.7 265.65 297.7 265.65 295.3 265.65 279.21 265.65 265.42 263.15 249.13 263.15 246.63 263.15 243.54 263.15 240.44 263.15 254.23 266.95 274.72 269.35 295.3 269.35 310.29 269.35 324.68 268.05 336.38 265.55 331.28 270.65 322.08 271.15 313.39 271.75 309.59 271.75 305.2 271.75 301.6 271.75 289.11 271.75 276.02 270.45 264.82 269.25 264.32 269.25 263.52 269.25 263.52 269.25 272.92 273.05 286.51 274.85 300.3 274.85 309.69 274.85 318.39 274.35 326.58 273.05 321.49 276.15 313.49 276.85 305.4 276.85 300.3 276.85 295.4 276.85 290.41 276.85 288.61 276.85 286.61 276.85 284.81 276.85 293 278.05 300.5 279.35 307.89 279.35 329.08 279.35 348.97 268.85 358.96 255.06 357.16 255.06 355.16 255.55 353.36 255.55 330.88 255.55 319.09 241.26 300.5 241.26 300 241.26 300 241.26 299.2 241.26 287.41 241.76 278.51 248.16 263.72 248.16 262.42 248.16 261.23 248.16 259.93 248.16 276.81 238.16 293.6 217.56 285.51 191.97 262.52 191.97 255.63 208.06 234.94 210.66 233.14 206.26 236.74 203.26 238.74 198.86 243.84 186.37 246.14 172.57 254.33 162.57 262.52 153.17 276.81 145.67 290.61 145.67 294.4 145.67 298 146.17 301.1 147.47 314.19 151.87 320.99 162.47 322.28 180.47 349.67 157.47 314.89 119.38 288.01 115.58 286.21 115.58 284.21 115.08 282.91 115.08 270.42 115.08 259.93 121.28 253.53 127.58 236.14 143.67 235.44 166.17 221.15 184.27 225.55 143.17 246.73 109.38 283.51 109.38 286.61 109.38 289.71 109.38 292.9 109.88 306.69 111.68 318.49 120.38 326.58 128.58 334.78 136.78 335.98 147.97 340.87 159.77 343.37 165.97 353.36 182.77 358.96 187.17 362.76 190.27 365.86 190.97 371.45 193.37 339.77 176.47 342.87 124.18 307.29 110.38 335.88 112.18 340.97 156.57 355.86 175.77 359.66 180.87 365.26 183.97 369.65 187.57 373.45 190.67 377.05 196.27 382.74 196.27 383.24 196.27 384.54 196.27 385.24 195.77 349.77 185.27 352.26 137.28 327.78 115.98 320.89 109.78 312.19 108.58 302.8 103.48 348.97 107.88 345.17 164.57 375.05 187.77 380.65 193.97 388.14 193.97 394.94 198.96 393.64 193.37 386.74 194.57 383.74 192.77 354.36 179.67 353.86 140.97 335.78 116.08ZM 414.92 127.28C 409.83 134.18 402.43 136.68 394.24 136.68 378.65 136.68 360.56 128.48 352.36 124.18 362.06 155.87 374.55 190.87 411.33 192.17 402.63 185.97 391.44 181.67 386.34 170.97 405.73 167.17 428.21 147.27 414.92 127.28ZM 162.59 22.2C 162.79 22 162.99 21.8 163.29 21.8 163.19 22 162.79 22.2 162.59 22.2ZM 266.02 18.2C 245.94 16.7 230.15 6.1 212.76 0.4 212.76 0.4 219.45 0.4 219.45 0.4 229.05 4.8 238.44 10 247.93 12.5 254.83 14.3 262.92 15.6 270.92 15.6 285.91 15.6 300.3 11.8 309.49 3.1 301 13.1 286.71 18.2 271.12 18.2 269.32 18.2 268.02 18.2 266.02 18.2ZM 235.64 0.6C 235.44 0.4 235.14 0.4 234.94 0.2 234.94 0.2 239.44 0.2 239.44 0.2 251.53 4.7 264.12 8.5 276.91 8.5 285.11 8.5 293 7.2 301.2 3.4 293.8 9.6 285.61 11.6 277.51 11.6 263.72 11.8 248.63 5.7 235.64 0.6ZM 259.53 0.4C 259.53 0.4 279.41 0.4 279.41 0.4 281.21 0.9 283.01 1.5 284.81 1.9 281.71 3.2 279.21 3.7 276.12 3.7 270.62 3.7 265.12 2.2 259.53 0.4Z" fill="rgb(205,195,174)"/></svg>