<?xml version="1.0" encoding="utf-8"?>
<svg xmlns="http://www.w3.org/2000/svg"
	xmlns:xlink="http://www.w3.org/1999/xlink"
	width="25px" height="14px" viewBox="0 0 25 14">
<path fillRule="evenodd" d="M 17.02 14.01C 17.02 14.01 15.8 12.79 15.8 12.79 17.69 11.55 18.94 9.42 18.94 7 18.94 4.58 17.69 2.45 15.8 1.21 15.8 1.21 17.02-0.01 17.02-0.01 17.02-0.01 24.07 7 24.07 7 24.07 7 17.02 14.01 17.02 14.01ZM 7.83 11.13C 9.19 10.24 10.09 8.7 10.09 6.95 10.09 5.2 9.18 3.66 7.81 2.76 7.81 2.76 8.7 1.88 8.7 1.88 8.7 1.88 13.8 6.94 13.8 6.94 13.8 6.94 8.7 12.01 8.7 12.01 8.7 12.01 7.83 11.13 7.83 11.13ZM 2.06 9C 0.96 9 0.06 8.1 0.06 7 0.06 5.9 0.96 5 2.06 5 3.17 5 4.06 5.9 4.06 7 4.06 8.1 3.17 9 2.06 9Z" fill="rgb(35,33,33)"/></svg>