<?xml version="1.0" encoding="iso-8859-1"?>
<!-- Generator: Adobe Illustrator 16.0.0, SVG Export Plug-In . SVG Version: 6.00 Build 0)  -->
<!DOCTYPE svg PUBLIC "-//W3C//DTD SVG 1.0//EN" "http://www.w3.org/TR/2001/REC-SVG-20010904/DTD/svg10.dtd">
<svg version="1.0" id="&#x421;&#x43B;&#x43E;&#x439;_1"
	 xmlns="http://www.w3.org/2000/svg" xmlns:xlink="http://www.w3.org/1999/xlink" x="0px" y="0px" width="14px" height="15px"
	 viewBox="0 0 33 26" style="enable-background:new 0 0 33 26;" xml:space="preserve">
<g id="Rectangle_60_copy_4_1_">
	<g>
		<path style="fill-rule:evenodd;clip-rule:evenodd;fill:#746d6d;" d="M13.68,21.268h4.725v-4.726H13.68V21.268z M13.68,14.182
			h4.725V9.458H13.68V14.182z M6.594,21.268h4.724v-4.726H6.594V21.268z M6.594,14.182h4.724V9.458H6.594V14.182z M25.49,2.37V0.008
			h-4.725V2.37h-2.361V0.008H13.68V2.37h-2.362V0.008H6.594V2.37H1.87v23.621h28.345V2.37H25.49z M27.854,23.629H4.231V4.733h7.086
			v2.362h2.362V4.733h4.725v2.362h2.361V4.733h7.088V23.629z M20.766,14.182h4.725V9.458h-4.725V14.182z M20.766,21.268h4.725
			v-4.726h-4.725V21.268z"/>
	</g>
</g>
</svg>
