<?xml version="1.0" encoding="utf-8"?>
<svg xmlns="http://www.w3.org/2000/svg"
	xmlns:xlink="http://www.w3.org/1999/xlink"
	width="16px" height="11px" viewBox="0 0 16 11">
<path fillRule="evenodd" d="M 0.53 1.03C 0.97 1.28 6.97 4.72 7.2 4.85 7.42 4.98 7.71 5.04 8 5.04 8.29 5.04 8.58 4.98 8.81 4.85 9.03 4.72 15.04 1.28 15.47 1.03 15.91 0.78 16.32 0 15.52 0 15.52 0 0.49 0 0.49 0-0.31 0 0.1 0.78 0.53 1.03ZM 15.66 2.93C 15.16 3.2 9.11 6.58 8.81 6.75 8.51 6.91 8.29 6.94 8 6.94 7.71 6.94 7.5 6.91 7.2 6.75 6.9 6.58 0.84 3.2 0.35 2.93 0 2.73 0.01 2.96 0.01 3.13 0.01 3.31 0.01 10.09 0.01 10.09 0.01 10.49 0.5 11 0.89 11 0.89 11 15.12 11 15.12 11 15.5 11 16 10.49 16 10.09 16 10.09 16 3.31 16 3.13 16 2.96 16 2.73 15.66 2.93Z" fill="rgb(35,33,33)"/></svg>