<?xml version="1.0" encoding="utf-8"?>
<svg xmlns="http://www.w3.org/2000/svg"
	xmlns:xlink="http://www.w3.org/1999/xlink"
	width="16px" height="16px" viewBox="0 0 16 16">
<path fillRule="evenodd" d="M 8 16C 3.58 16-0 12.42-0 8-0 3.58 3.58 0 8 0 12.42 0 16 3.58 16 8 16 12.42 12.42 16 8 16ZM 8 2C 4.69 2 2 4.69 2 8 2 11.31 4.69 14 8 14 11.31 14 14 11.31 14 8 14 4.69 11.31 2 8 2ZM 11 9C 11 9 8 9 8 9 7.45 9 7 8.55 7 8 7 8 7 4 7 4 7 3.45 7.45 3 8 3 8.55 3 9 3.45 9 4 9 4 9 7 9 7 9 7 11 7 11 7 11.55 7 12 7.45 12 8 12 8.55 11.55 9 11 9Z" fill="rgb(35,33,33)"/></svg>