<?xml version="1.0" encoding="utf-8"?>
<svg xmlns="http://www.w3.org/2000/svg"
	xmlns:xlink="http://www.w3.org/1999/xlink"
	width="16px" height="12px" viewBox="0 0 16 12">
<path fillRule="evenodd" d="M 14 12C 14 12 2 12 2 12 0.9 12-0 11.1-0 10-0 10-0 5-0 5-0 5 16 5 16 5 16 5 16 10 16 10 16 11.1 15.1 12 14 12ZM 11 8C 11 8 9 8 9 8 9 8 9 10 9 10 9 10 11 10 11 10 11 10 11 8 11 8ZM 14 8C 14 8 12 8 12 8 12 8 12 10 12 10 12 10 14 10 14 10 14 10 14 8 14 8ZM-0 2C-0 0.9 0.9-0 2-0 2-0 14-0 14-0 15.1-0 16 0.9 16 2 16 2 16 3 16 3 16 3-0 3-0 3-0 3-0 2-0 2Z" fill="rgb(35,33,33)"/></svg>