<?xml version="1.0" encoding="utf-8"?>
<!-- Generator: Adobe Illustrator 19.0.0, SVG Export Plug-In . SVG Version: 6.00 Build 0)  -->
<svg version="1.1" id="Layer_1" xmlns="http://www.w3.org/2000/svg" xmlns:xlink="http://www.w3.org/1999/xlink" x="0px" y="0px"
	 width="84px" height="120px" viewBox="48.5 10.2 84 120" style="enable-background:new 48.5 10.2 84 120;" xml:space="preserve">
<style type="text/css">
	.st0{fill:#859AAA;}
	.st1{fill:#E1E6ED;}
</style>
<path class="st0" d="M48.5,130.2l1.2-1.2h3.5l6.6-13.7l4.3,1.6l-7.8,11.3h-1.2l-1.2,2H48.5z M58.3,90.8c0-5.1,5.5-6.6,5.5-6.6
	l-2.3-1.6l3.1-1.2l0.4-1.6l2.7,0.8L68,79l2,1.2l0.8-1.6l1.2,1.2l0.8-0.4l0.8,1.2l1.2-0.8l0.8,1.6l1.6-0.8l1.2,1.2c0,0,1.4,0,3.5,0
	c2.1,0,3.4-3.2,3.9-5.1c0.5-1.9,0-8.1-6.6-14.1c-6.6-5.9-3.4-10.1-0.4-14.9c3-4.7,8.7-14.7,10.2-21.5c1.4-6.5,0.4-16,0.4-16
	s6.3,2.9,6.3,14.1c0,6.9-4.6,17.3-7,20.7c-2.5,3.4-7.8,5.5-7.8,9.8c0,2.9,6.5,10.4,7,12.5c0.4,1.4,0,5.7,0,8.2c0,2.5-3.1,7-4.7,7
	c-18.2,0-20.3,4.6-20.3,8.6c0,4.4,5.9,16,5.9,16l-0.8,2C67.6,109.1,58.3,95.9,58.3,90.8z M83.3,52.4c0.7-1.1,9.2-8.3,12.5-14.1
	c3.3-5.7,7.4-15.6,7.4-15.6c3.2,5.5,1.2,13.9-2.3,19.9c-3.5,6-16.3,15-17.7,14.8C81.8,57.3,82.1,54.4,83.3,52.4z M100.9,47
	c2.9-3,8.2-9.8,8.2-9.8c2.3,3.7,0.5,9.7-4.3,14.1c-5.4,4.9-15,7-16.8,8.6c-1.4,1.3-0.9,2.3-1.2,2.7c-1,0-1.8-2.8-0.8-4.3
	S95,53.1,100.9,47z M86.4,100.5c0,0-3.7-0.2-5.5,1.2c1.8-2.3,1.6-8.6,1.6-8.6C82.9,97.1,86.4,100.5,86.4,100.5z M79.4,116.9
	l-5.9-1.6l4.7-8.2c0,0-0.5,3.8-0.4,5.9C78,115.7,79.4,116.9,79.4,116.9z M70.8,116.9l-8.6,11.7l4.3,1.6H54.7l0.8-1.2h3.9l6.3-13.3
	L70.8,116.9z"/>
<path class="st1" d="M62.9,77.5l5.5-3.1l-4.7,1.6L63.3,72c0,0-3.5-3.7-3.1-4.7c0.3-1,7.4,1.6,7.4,1.6s-5.5-3.2-8.2-2.7
	c-1.7,0.3-2,2-2,2s0-3.2,1.2-3.9c0.9-0.6,6.6,0.8,6.6,0.8s-1.2-1.8-0.4-2c2.7-0.4,15.2,2.7,15.2,2.7l-2.7,2.3L80.5,81h-2L77,79.4
	l-1.2,0.8l-0.8-1.6l-1.6,1.2l-0.4-1.6L71.9,79l-1.2-1.2l-1.6,1.6l-1.6-1.2l-0.4,1.6L64.5,79l-0.8,2l-3.5,2c0,0,1.8,0.9,2.3,1.2
	c-2.5,0.3-4.7,3.5-4.7,3.5l0.4-2h-0.8l0.4-2.3l-0.4-0.4l0.4-0.8v-0.4l0.4-0.4v-1.2l1.6-0.4v-1.2H61l0.4-0.4h1.2L62.9,77.5z
	 M71.9,66.5L68.8,65l-0.8,2L71.9,66.5z M82.9,83.3c2,0,4.7-3.8,5.5-6.6c1.3-4.8-0.7-13.1,2-16c3.1-3.4,17.4-3.3,30.9-12.5
	c5.8-3.9,10.6-11.3,10.6-11.3c1.4,13.6-11.2,19.9-18.4,23.1c-7.1,3.1-15.8,1.3-18.8,3.9c-1.7,1.5-0.3,3.1-3.1,12.9
	c-2.8,9.8-9,9.8-9,9.8s-0.2,7.7-1.6,12.5s-9,17.2-9,17.2l-6.3-1.2l3.5-7c0,0-2.4-5.9-3.9-10.2c-1.4-4.1-4.2-7.6,0.4-11.3
	C70.3,82.7,80.9,83.3,82.9,83.3z M115.7,62.6c6.8-1.5,16.8-6.3,16.8-6.3c-2.1,7-11.4,12.3-18.4,12.9c-7,0.6-19.5-1.6-19.5-1.6
	s1-2.4,2.3-3.1C98.5,63.8,106.7,64.6,115.7,62.6z M115.7,72c5.8-0.4,12.1-1.6,12.1-1.6s-2.8,6.9-10.9,7c-9.6,0.2-17.9-5-19.5-5.5
	c-1.3-0.4-2.7,0-2.7,0s0.5-1.6,2.7-1.6C99.6,70.4,108,72.5,115.7,72z M111.4,79.4c4.8,1,10.6,1.6,10.6,1.6s-4.7,4.5-11.3,2.7
	c-7.9-2.1-13.2-7.9-14.5-8.7c-1-0.6-2.2-0.6-2.2-0.6s0.8-1.2,2.6-0.6C98.4,74.3,105,78.1,111.4,79.4z M106.5,84.6
	c3.6,2,7.6,3.4,7.6,3.4s-4.5,3.1-9.4,0c-5.8-3.6-8.6-9.6-9.4-10.6c-0.6-0.7-2.1-1.4-2.1-1.4s1.3-0.4,2.6,0.5
	C97.3,77.4,101.7,82,106.5,84.6z M109.8,100.5c0,0,6.9,9.6,2.3,14.1c-2.8,2.7-10.9,0.4-10.9,0.4l-1.2-2c0,0,8.8,3.4,11.3,0.4
	c3.5-4.1-1.1-13-3.5-12.9c-2.3,0.1-4,2.9-5.9,3.1c-1.4,0.1-3.1-2.3-3.1-2.3s2.2,0.2,3.5-0.4c1.4-0.6,0.9-2.9,3.9-3.5
	C109.4,96.8,109.8,100.5,109.8,100.5z M98.5,90.4c-3.6-4.4-4.3-9.6-4.7-10.5c-0.3-0.7-0.8-1.7-0.8-1.7s0.7,0.1,1.5,1.1
	c0.8,1,3,5.8,6,9.1c2.3,2.5,5.4,4.7,5.4,4.7S101.5,94,98.5,90.4z M92.5,81.5c0.3,1.1,1.4,5.8,2.9,9.6c1.1,2.8,2.7,5.1,2.7,5.1
	s-4-0.7-5.5-4.7c-1-2.6-0.7-7.1-0.8-8.6c0-0.7-0.3-2.8-0.3-2.8S92.2,80.4,92.5,81.5z M90.3,91.1c0.1,1.8,1.2,5.5,1.2,5.5
	s-3.1-2.9-3.1-5.1c0-2.9,1.1-5,1.2-7.4c0,0,0.7,0.8,0.8,1.6C90.4,86.5,90.2,89.2,90.3,91.1z M86.4,91.5c-0.2,1.8,0.4,5.1,0.4,5.1
	s-2.2-1.6-2-3.9c0.2-2.3,3.1-6.6,3.1-6.6S86.6,89.7,86.4,91.5z M93,104.4c2.2,2.5,14.9,23.8,14.9,23.8l-0.8,1.6H83.3
	c0,0,2.5-3.7,3.5-3.5c9.8,1.8,12.9,0,12.9,0s-15.3-6.2-18.4-8.2c-3.2-2.1-3.7-9.1-1.6-13.3C82.5,99.4,90.1,101,93,104.4z
	 M91.5,126.3l-16.8-9.4c0,0,3.6,0.3,4.3,0.8c2.4,1.7,18,8.6,18,8.6H91.5z M84.8,126.7l-2.3,3.1H77l3.1-3.9L84.8,126.7z M64.5,115
	l0.4,0.4l-0.4,0.8l-4.7-1.6l4.7-9l2.7,4.3L64.5,115z"/>
</svg>
