<?xml version="1.0" encoding="utf-8"?>
<!-- Generator: Adobe Illustrator 19.0.0, SVG Export Plug-In . SVG Version: 6.00 Build 0)  -->
<svg version="1.1" id="Layer_1" xmlns="http://www.w3.org/2000/svg" xmlns:xlink="http://www.w3.org/1999/xlink" x="0px" y="0px"
	 width="84px" height="120px" viewBox="48.5 10.2 84 120" style="enable-background:new 48.5 10.2 84 120;" xml:space="preserve">
<style type="text/css">
	.st0{fill:#859AAA;}
	.st1{fill:#E1E6ED;}
</style>
<path class="st0" d="M127,130.2l-1.2-2h-1.2l-7.8-11.3l4.3-1.6l6.6,13.7h3.5l1.2,1.2H127z M113.4,109.1l-0.8-2c0,0,5.9-11.6,5.9-16
	c0-4-2.1-8.6-20.3-8.6c-1.6,0-4.7-4.5-4.7-7c0-2.5-0.4-6.8,0-8.2c0.5-2.1,7-9.6,7-12.5c0-4.2-5.3-6.3-7.8-9.8
	c-2.5-3.4-7-13.8-7-20.7c0-11.1,6.3-14.1,6.3-14.1s-1,9.5,0.4,16c1.5,6.8,7.1,16.8,10.2,21.5c3,4.7,6.2,8.9-0.4,14.9
	c-6.6,5.9-7.1,12.2-6.6,14.1c0.5,1.9,1.8,5.1,3.9,5.1c2.1,0,3.5,0,3.5,0l1.2-1.2l1.6,0.8l0.8-1.6l1.2,0.8l0.8-1.2l0.8,0.4l1.2-1.2
	l0.8,1.6l2-1.2l0.4,1.6l2.7-0.8l0.4,1.6l3.1,1.2l-2.3,1.6c0,0,5.5,1.5,5.5,6.6C122.7,95.9,113.4,109.1,113.4,109.1z M97.9,57.5
	c-1.4,0.2-14.2-8.8-17.7-14.8c-3.5-6-5.5-14.4-2.3-19.9c0,0,4.1,9.9,7.4,15.6c3.3,5.8,11.8,13,12.5,14.1
	C98.9,54.4,99.2,57.3,97.9,57.5z M95,58.3c1.1,1.5,0.2,4.3-0.8,4.3c-0.3-0.4,0.3-1.4-1.2-2.7c-1.8-1.6-11.4-3.7-16.8-8.6
	c-4.8-4.3-6.6-10.4-4.3-14.1c0,0,5.3,6.8,8.2,9.8C86,53.1,93.9,56.8,95,58.3z M98.5,93.1c0,0-0.3,6.3,1.6,8.6
	c-1.8-1.3-5.5-1.2-5.5-1.2S98.1,97.1,98.5,93.1z M103.2,113c0.2-2-0.4-5.9-0.4-5.9l4.7,8.2l-5.9,1.6
	C101.6,116.9,103,115.7,103.2,113z M115.3,115.8l6.3,13.3h3.9l0.8,1.2h-11.7l4.3-1.6l-8.6-11.7L115.3,115.8z"/>
<path class="st1" d="M118.4,78.2h1.2l0.4,0.4h1.2v1.2l1.6,0.4v1.2l0.4,0.4v0.4l0.4,0.8l-0.4,0.4l0.4,2.3h-0.8l0.4,2
	c0,0-2.2-3.2-4.7-3.5c0.5-0.3,2.3-1.2,2.3-1.2l-3.5-2l-0.8-2l-2.7,0.8l-0.4-1.6l-1.6,1.2l-1.6-1.6l-1.2,1.2l-1.2-0.8l-0.4,1.6
	l-1.6-1.2l-0.8,1.6l-1.2-0.8l-1.6,1.6h-2l3.1-12.9l-2.7-2.3c0,0,12.6-3.1,15.2-2.7c0.9,0.1-0.4,2-0.4,2s5.7-1.4,6.6-0.8
	c1.2,0.7,1.2,3.9,1.2,3.9s-0.3-1.7-2-2c-2.7-0.5-8.2,2.7-8.2,2.7s7.1-2.5,7.4-1.6c0.3,1-3.1,4.7-3.1,4.7l-0.4,3.9l-4.7-1.6l5.5,3.1
	L118.4,78.2z M113,66.9l-0.8-2l-3.1,1.6L113,66.9z M115.3,86.5c4.6,3.7,1.8,7.3,0.4,11.3c-1.5,4.2-3.9,10.2-3.9,10.2l3.5,7l-6.3,1.2
	c0,0-7.6-12.4-9-17.2s-1.6-12.5-1.6-12.5s-6.2,0.1-9-9.8c-2.8-9.8-1.4-11.4-3.1-12.9c-3-2.6-11.6-0.8-18.8-3.9
	c-7.1-3.1-19.7-9.5-18.4-23.1c0,0,4.8,7.4,10.6,11.3c13.5,9.2,27.8,9.1,30.9,12.5c2.7,3,0.7,11.3,2,16c0.8,2.9,3.5,6.7,5.5,6.6
	C100.1,83.3,110.7,82.7,115.3,86.5z M84.1,64.6c1.4,0.7,2.3,3.1,2.3,3.1s-12.6,2.2-19.5,1.6c-7-0.6-16.3-5.9-18.4-12.9
	c0,0,10,4.8,16.8,6.3C74.3,64.6,82.5,63.8,84.1,64.6z M83.7,70.4c2.2,0,2.7,1.6,2.7,1.6s-1.4-0.4-2.7,0c-1.6,0.5-10,5.6-19.5,5.5
	c-8.1-0.1-10.9-7-10.9-7s6.3,1.2,12.1,1.6C73,72.5,81.4,70.4,83.7,70.4z M84.5,73.8c1.8-0.5,2.6,0.6,2.6,0.6s-1.3,0-2.2,0.6
	c-1.2,0.8-6.5,6.5-14.5,8.7C63.7,85.5,59,81,59,81s5.7-0.5,10.6-1.6C76,78.1,82.6,74.3,84.5,73.8z M85,76.5c1.3-0.9,2.6-0.5,2.6-0.5
	s-1.4,0.7-2.1,1.4c-0.8,0.9-3.5,6.9-9.4,10.6c-4.9,3.1-9.4,0-9.4,0s4-1.4,7.6-3.4C79.3,82,83.7,77.4,85,76.5z M74.7,97.4
	c3,0.6,2.6,2.9,3.9,3.5c1.4,0.6,3.5,0.4,3.5,0.4s-1.7,2.5-3.1,2.3c-1.9-0.2-3.6-3.1-5.9-3.1c-2.4-0.1-7,8.8-3.5,12.9
	c2.6,3,11.3-0.4,11.3-0.4l-1.2,2c0,0-8.2,2.3-10.9-0.4c-4.6-4.5,2.3-14.1,2.3-14.1S71.6,96.8,74.7,97.4z M75.1,93.1
	c0,0,3.1-2.2,5.4-4.7c3-3.3,5.2-8.1,6-9.1c0.8-1,1.5-1.1,1.5-1.1s-0.5,0.9-0.8,1.7c-0.4,0.9-1.1,6.1-4.7,10.5
	C79.5,94,75.1,93.1,75.1,93.1z M89.4,80.1c0,0-0.2,2.1-0.3,2.8c-0.1,1.5,0.2,6-0.8,8.6c-1.5,4-5.5,4.7-5.5,4.7s1.6-2.2,2.7-5.1
	c1.5-3.8,2.5-8.5,2.9-9.6C88.8,80.4,89.4,80.1,89.4,80.1z M90.7,85.7c0.1-0.8,0.8-1.6,0.8-1.6c0.1,2.5,1.2,4.6,1.2,7.4
	c0,2.2-3.1,5.1-3.1,5.1s1.1-3.6,1.2-5.5C90.8,89.2,90.6,86.5,90.7,85.7z M93,86.1c0,0,2.9,4.3,3.1,6.6c0.2,2.3-2,3.9-2,3.9
	s0.6-3.3,0.4-5.1C94.4,89.7,93,86.1,93,86.1z M101.2,104.8c2.1,4.2,1.7,11.1-1.6,13.3c-3.1,2.1-18.4,8.2-18.4,8.2s3.1,1.8,12.9,0
	c1-0.2,3.5,3.5,3.5,3.5H73.9l-0.8-1.6c0,0,12.7-21.4,14.9-23.8C90.9,101,98.5,99.4,101.2,104.8z M84.1,126.3c0,0,15.6-6.9,18-8.6
	c0.7-0.5,4.3-0.8,4.3-0.8l-16.8,9.4H84.1z M100.9,125.9l3.1,3.9h-5.5l-2.3-3.1L100.9,125.9z M113.8,109.9l2.7-4.3l4.7,9l-4.7,1.6
	l-0.4-0.8l0.4-0.4L113.8,109.9z"/>
</svg>
