<?xml version="1.0" encoding="utf-8"?>
<svg xmlns="http://www.w3.org/2000/svg"
	xmlns:xlink="http://www.w3.org/1999/xlink"
	width="14px" height="17px" viewBox="0 0 14 17">
<path fillRule="evenodd" d="M 7 17.01C 7 17.01-0.01 9.98-0.01 9.98-0.01 9.98 1.21 8.75 1.21 8.75 2.45 10.63 4.58 11.87 7 11.87 9.42 11.87 11.55 10.63 12.79 8.75 12.79 8.75 14.01 9.98 14.01 9.98 14.01 9.98 7 17.01 7 17.01ZM 1.88 1.68C 1.88 1.68 2.77 0.79 2.77 0.79 3.66 2.16 5.2 3.06 6.95 3.06 8.7 3.06 10.23 2.16 11.13 0.81 11.13 0.81 12.01 1.68 12.01 1.68 12.01 1.68 6.94 6.76 6.94 6.76 6.94 6.76 1.88 1.68 1.88 1.68Z" fill="rgb(195,189,181)"/></svg>