<?xml version="1.0" encoding="utf-8"?>
<svg xmlns="http://www.w3.org/2000/svg"
	xmlns:xlink="http://www.w3.org/1999/xlink"
	width="40px" height="40px" viewBox="0 0 40 40">
<circle cx="20.00" cy="20.00" r="20.00" fill="rgb(255,255,255)"/><path fillRule="evenodd" d="M 19 24C 21.76 24 24 21.76 24 19 24 16.24 21.76 14 19 14 16.24 14 14 16.24 14 19 14 21.76 16.24 24 19 24M 19 26C 15.13 26 12 22.87 12 19 12 15.13 15.13 12 19 12 22.87 12 26 15.13 26 19 26 22.87 22.87 26 19 26 19 26 19 26 19 26Z" fill="rgb(115,109,109)"/><path fillRule="evenodd" d="M 25.29 22.88C 25.29 22.88 28.12 25.71 28.12 25.71 28.12 25.71 26.71 27.12 26.71 27.12 26.71 27.12 23.88 24.29 23.88 24.29 23.88 24.29 25.29 22.88 25.29 22.88Z" fill="rgb(115,109,109)"/></svg>