<?xml version="1.0" encoding="utf-8"?>
<svg xmlns="http://www.w3.org/2000/svg"
	xmlns:xlink="http://www.w3.org/1999/xlink"
	width="226px" height="80px" viewBox="0 0 226 80">
<path fillRule="evenodd" d="M 223.17 61.2C 223.57 62.54 224.24 63.21 225.17 63.21 225.17 63.21 225.99 63.21 225.99 63.21 225.99 63.21 225.99 64.54 225.99 64.54 225.99 64.54 216.55 64.54 216.55 64.54 216.55 64.54 216.55 63.21 216.55 63.21 216.55 63.21 217.42 63.21 217.42 63.21 218.24 63.21 218.85 62.68 219.27 61.63 219.57 60.88 219.73 58.98 219.73 55.9 219.73 55.9 219.73 41.73 219.73 41.73 219.55 41.75 219.38 41.77 219.22 41.78 219.05 41.79 218.9 41.79 218.77 41.79 218.42 41.79 217.97 41.77 217.42 41.73 217.42 41.73 209.96 64.54 209.96 64.54 209.96 64.54 204.07 64.54 204.07 64.54 204.07 64.54 204.07 63.21 204.07 63.21 205.27 62.92 206.25 62.24 207 61.2 207.74 60.14 208.64 58.01 209.68 54.79 209.68 54.79 214.23 40.78 214.23 40.78 212.37 39.88 211.01 38.32 210.13 36.12 209.24 33.91 208.8 31.3 208.8 28.3 208.8 25.49 209.19 23.08 209.96 21.05 210.74 19.02 211.68 17.63 212.79 16.88 213.9 16.12 215.63 15.74 217.97 15.74 217.97 15.74 225.99 15.74 225.99 15.74 225.99 15.74 225.99 17.08 225.99 17.08 225.99 17.08 225.17 17.08 225.17 17.08 224.34 17.08 223.7 17.61 223.28 18.66 222.98 19.4 222.83 21.3 222.83 24.37 222.83 24.37 222.83 55.9 222.83 55.9 222.83 58.68 222.94 60.45 223.17 61.2ZM 219.73 19.17C 218.65 18.71 217.8 18.48 217.17 18.48 215.75 18.48 214.61 19.44 213.75 21.34 212.89 23.24 212.46 25.73 212.46 28.77 212.46 31.89 212.99 34.46 214.06 36.47 215.13 38.49 216.71 39.49 218.81 39.49 218.91 39.49 219.04 39.48 219.19 39.47 219.34 39.46 219.51 39.46 219.73 39.46 219.73 39.46 219.73 19.17 219.73 19.17ZM 194.27 63.21C 195.64 63.12 196.51 62.64 196.89 61.76 197.27 60.9 197.46 58.87 197.46 55.65 197.46 55.65 197.46 18.4 197.46 18.4 197.46 18.4 190.63 18.4 190.63 18.4 190.63 18.4 190.63 32.08 190.63 32.08 190.63 45.87 190.09 54.82 189.02 58.94 187.95 63.05 186.47 65.12 184.59 65.12 183.78 65.12 183.16 64.68 182.73 63.8 182.3 62.93 182.08 61.91 182.08 60.76 182.08 59.87 182.22 59.11 182.5 58.46 182.79 57.81 183.13 57.49 183.53 57.49 183.86 57.49 184.25 57.85 184.68 58.57 185.17 59.36 185.61 59.75 186 59.75 186.94 59.75 187.71 58.02 188.31 54.55 188.9 51.09 189.2 44.52 189.2 34.85 189.2 34.85 189.2 24.63 189.2 24.63 189.2 21.41 189.01 19.37 188.63 18.52 188.25 17.66 187.38 17.18 186.02 17.08 186.02 17.08 186.02 15.74 186.02 15.74 186.02 15.74 203.75 15.74 203.75 15.74 203.75 15.74 203.75 17.08 203.75 17.08 202.38 17.18 201.51 17.66 201.13 18.52 200.75 19.37 200.56 21.41 200.56 24.63 200.56 24.63 200.56 55.65 200.56 55.65 200.56 58.87 200.75 60.9 201.13 61.76 201.51 62.64 202.38 63.12 203.75 63.21 203.75 63.21 203.75 64.54 203.75 64.54 203.75 64.54 194.27 64.54 194.27 64.54 194.27 64.54 194.27 63.21 194.27 63.21ZM 162.58 64.54C 162.58 64.54 162.58 63.21 162.58 63.21 162.58 63.21 163.36 63.21 163.36 63.21 163.87 63.21 164.37 62.93 164.83 62.38 165.18 62 165.42 61.42 165.55 60.66 165.67 59.88 165.73 58.31 165.73 55.94 165.73 55.94 165.73 24.24 165.73 24.24 165.73 21.14 165.59 19.24 165.31 18.52 164.92 17.56 164.27 17.08 163.36 17.08 163.36 17.08 162.58 17.08 162.58 17.08 162.58 17.08 162.58 15.74 162.58 15.74 162.58 15.74 179.56 15.74 179.56 15.74 179.56 15.74 179.81 26.43 179.81 26.43 179.81 26.43 179.17 26.43 179.17 26.43 178.94 23.86 178.69 22.1 178.42 21.14 178.14 20.19 177.73 19.45 177.19 18.95 176.76 18.59 175.99 18.4 174.9 18.4 174.9 18.4 168.85 18.4 168.85 18.4 168.85 18.4 168.85 37.69 168.85 37.69 168.85 37.69 173.69 37.69 173.69 37.69 174.95 37.69 175.79 37.27 176.21 36.44 176.78 35.33 177.09 33.39 177.16 30.6 177.16 30.6 177.76 30.6 177.76 30.6 177.76 30.6 177.76 47.59 177.76 47.59 177.76 47.59 177.16 47.59 177.16 47.59 177.01 45.22 176.85 43.7 176.7 43.02 176.51 42.18 176.19 41.52 175.74 41.04 175.3 40.56 174.62 40.32 173.69 40.32 173.69 40.32 168.85 40.32 168.85 40.32 168.85 40.32 168.85 56.41 168.85 56.41 168.85 58.57 168.9 59.88 168.98 60.35 169.07 60.82 169.22 61.19 169.43 61.47 169.65 61.74 170.07 61.87 170.67 61.87 170.67 61.87 174.41 61.87 174.41 61.87 175.65 61.87 176.56 61.69 177.12 61.3 177.69 60.92 178.23 60.17 178.75 59.04 179.42 57.55 180.11 55.3 180.81 52.31 180.81 52.31 181.46 52.31 181.46 52.31 181.46 52.31 179.56 64.54 179.56 64.54 179.56 64.54 162.58 64.54 162.58 64.54ZM 151.82 63.21C 153.17 63.12 154.04 62.64 154.42 61.79 154.8 60.94 154.99 58.89 154.99 55.65 154.99 55.65 154.99 18.4 154.99 18.4 154.99 18.4 144.76 18.4 144.76 18.4 144.76 18.4 144.76 55.65 144.76 55.65 144.76 58.87 144.95 60.9 145.32 61.76 145.7 62.64 146.57 63.12 147.95 63.21 147.95 63.21 147.95 64.54 147.95 64.54 147.95 64.54 138.45 64.54 138.45 64.54 138.45 64.54 138.45 63.21 138.45 63.21 139.82 63.12 140.7 62.64 141.07 61.76 141.45 60.9 141.64 58.87 141.64 55.65 141.64 55.65 141.64 24.63 141.64 24.63 141.64 21.41 141.45 19.37 141.07 18.52 140.7 17.66 139.82 17.18 138.45 17.08 138.45 17.08 138.45 15.74 138.45 15.74 138.45 15.74 161.3 15.74 161.3 15.74 161.3 15.74 161.3 17.08 161.3 17.08 159.93 17.18 159.05 17.66 158.68 18.52 158.3 19.37 158.11 21.41 158.11 24.63 158.11 24.63 158.11 55.65 158.11 55.65 158.11 58.87 158.3 60.9 158.68 61.76 159.05 62.64 159.93 63.12 161.3 63.21 161.3 63.21 161.3 64.54 161.3 64.54 161.3 64.54 151.82 64.54 151.82 64.54 151.82 64.54 151.82 63.21 151.82 63.21ZM 81.43 1.22C 81.43 1.22 81.43 1.22 81.43 1.22 60.81 1.22 41.79 4.18 26.54 9.17 26.54 9.17 22.77 9.17 22.77 9.17 38.67 3.45 59.12 0 81.43 0 81.43 0 81.43-0 81.43-0 103.68-0 124.09 3.44 139.99 9.17 139.99 9.17 136.42 9.17 136.42 9.17 121.17 4.19 102.11 1.22 81.43 1.22ZM 27.31 28.28C 27.31 28.45 27.1 28.47 26.93 28.47 26.93 28.47 26.3 28.5 26.3 28.5 26.3 28.5 22.53 28.28 22.53 28.28 22.81 28.85 23.01 29.21 23.29 29.74 23.79 30.7 23.4 30.7 23.49 31.71 23.49 31.71 23.54 32.39 23.54 32.39 24.14 33.27 26.01 34.31 26.01 35.67 26.01 36.17 25.45 36.22 25.07 36.38 24.6 36.59 24.32 36.59 24.32 37.27 24.32 37.61 24.45 38.1 24.56 38.33 24.44 38.57 24.23 38.62 23.88 38.62 23.85 38.75 23.83 38.71 23.83 38.82 23.83 39.11 24.09 39.14 24.12 39.54 23.79 39.62 23.5 39.87 23.5 40.27 23.5 40.27 23.52 40.79 23.52 40.79 23.52 40.79 23.69 42.05 23.69 42.05 23.83 42.91 22.34 43.12 21.57 43.11 21.57 43.11 21.52 43.02 21.52 43.02 21.45 43.32 21.16 43.63 21.04 43.99 20.9 44.41 20.79 44.69 20.79 45.24 20.79 45.32 20.86 45.49 20.94 45.49 21.15 45.49 21.11 45.39 21.32 45.39 21.32 45.39 21.37 45.39 21.37 45.39 21.62 45.39 21.92 45.87 22.01 46.1 22.18 46.51 22.19 46.73 22.19 47.27 22.47 47.69 22.86 47.97 23.22 48.33 23.44 48.55 23.42 48.75 23.67 48.94 23.9 49.11 24.06 49.21 24.26 49.41 24.89 50.05 25.73 50.99 26.4 51.52 26.78 51.81 27.11 52.25 27.53 52.52 28.1 52.9 28.21 53.03 28.68 53.5 29.04 53.86 29.36 54.24 29.53 54.78 29.57 54.92 29.68 55.52 29.68 55.68 29.68 56.13 29.78 56.4 29.78 56.65 29.78 56.65 29.78 57.72 29.78 57.72 29.78 58.81 29.31 60.19 29.02 61.07 28.86 61.57 28.67 62.09 28.47 62.55 28.23 63.13 28.74 63.39 29.05 63.86 29.05 63.86 29.1 64.39 29.1 64.39 29.16 64.88 28.62 65.25 28.62 65.98 28.62 65.98 28.6 66.32 28.6 66.32 17.75 54.55 4.01 54.36 4.01 54.36 4.23 53.93 4.11 53.53 4.35 53.11 4.57 52.71 4.73 52.51 4.89 52.05 5.09 51.49 5.67 50.29 5.67 49.64 5.67 49.64 5.67 49.6 5.67 49.6 5.67 49.32 5.5 49.09 5.35 48.95 4.98 48.62 5.16 48.94 4.9 48.43 5.17 47.26 5.81 46.18 6.05 44.94 6.17 44.27 6.33 43.71 6.44 43.02 6.56 42.22 7.14 42.19 7.45 41.71 7.45 41.71 7.51 41.09 7.51 41.09 7.52 40.99 6.31 40.08 6.21 39.63 6.12 39.23 6.09 38.88 5.89 38.59 5.66 38.25 5.62 38 5.62 37.46 5.45 37.2 5.26 37.08 5.12 36.8 4.97 36.5 4.88 36.32 4.7 36.06 4.78 35.74 5.11 35.16 5.27 34.89 5.44 34.63 5.41 34.6 5.63 34.38 5.7 34.32 6.06 33.98 6.06 33.93 6.15 33.65-3.54 38.3 5.5 32.5 5.51 32.49 5.49 32.47 5.48 32.45 4.68 30.47 3.26 27.13 3.03 26.56 2.54 25.32 2 24.12 1.52 22.9 1.27 22.27 1.02 21.7 0.76 21.05 0.55 20.52 0.14 19.71 0.01 19.18 0.01 19.18 14.61 12.76 14.61 12.76 16.23 15.83 17.71 19.07 19.28 22.2 19.64 22.92 20.04 23.94 20.45 24.55 20.69 24.9 20.89 25.26 21.12 25.63 21.32 25.94 21.51 26.54 21.95 26.58 22.81 26.67 27.31 27.81 27.31 28.28ZM 21.41 41.39C 21.02 41.32 20.74 41.31 20.38 41.2 20.05 41.11 19.77 41.04 19.44 40.94 19.06 40.84 18.8 40.85 18.38 40.79 16.95 40.6 15.48 40.51 13.83 40.51 13.83 40.51 13.83 40.56 13.83 40.56 14.67 40.56 17.13 41.23 18.01 41.45 18.41 41.56 18.65 41.55 19.02 41.7 19.34 41.82 19.6 41.94 19.91 42.06 20.38 42.24 21.27 42.72 21.7 42.82 21.7 42.82 22.31 41.73 22.31 41.73 22.01 41.65 21.66 41.43 21.41 41.39ZM 93.34 51.48C 93.34 51.48 92.75 51.48 92.75 51.48 92.65 50.55 92.47 49.83 92.23 49.32 91.98 48.82 91.7 48.48 91.38 48.32 91.07 48.16 90.53 48.08 89.77 48.08 89.77 48.08 88.72 48.08 88.72 48.08 88.72 48.08 88.72 59.91 88.72 59.91 88.72 61.17 88.77 61.98 88.88 62.32 88.99 62.65 89.17 62.88 89.42 62.99 89.66 63.11 90.22 63.18 91.1 63.22 91.1 63.22 91.1 63.91 91.1 63.91 91.1 63.91 84.55 63.91 84.55 63.91 84.55 63.91 84.55 63.22 84.55 63.22 85.4 63.19 85.94 63 86.18 62.64 86.42 62.28 86.54 61.37 86.54 59.91 86.54 59.91 86.54 48.08 86.54 48.08 86.54 48.08 85.46 48.08 85.46 48.08 84.71 48.08 84.2 48.14 83.92 48.28 83.65 48.4 83.39 48.72 83.14 49.2 82.89 49.69 82.68 50.46 82.51 51.48 82.51 51.48 81.91 51.48 81.91 51.48 81.91 51.48 82.41 46.87 82.41 46.87 82.41 46.87 92.82 46.87 92.82 46.87 92.82 46.87 93.34 51.48 93.34 51.48ZM 79.84 46.67C 80.31 46.67 80.69 46.83 80.97 47.15 81.25 47.47 81.39 47.9 81.39 48.42 81.39 48.85 81.29 49.22 81.09 49.52 80.89 49.83 80.6 49.98 80.25 49.98 80.05 49.98 79.81 49.9 79.52 49.75 79.16 49.57 78.87 49.48 78.68 49.48 78.28 49.48 77.94 49.97 77.68 50.94 77.38 52.07 77.17 52.8 77.03 53.13 76.89 53.46 76.62 53.9 76.23 54.44 76.5 54.55 76.79 54.83 77.11 55.3 77.43 55.76 78.03 57.06 78.89 59.22 79.59 60.94 80.1 62.03 80.45 62.49 80.8 62.95 81.29 63.19 81.95 63.22 81.95 63.22 81.95 63.91 81.95 63.91 81.95 63.91 78.41 63.91 78.41 63.91 77.3 61.64 76.3 59.31 75.41 56.93 75.2 56.38 75.01 55.98 74.84 55.71 74.67 55.44 74.43 55.31 74.14 55.31 74.03 55.31 73.86 55.32 73.64 55.35 73.64 55.35 73.64 59.91 73.64 59.91 73.64 61.13 73.69 61.92 73.79 62.26 73.89 62.6 74.07 62.84 74.33 62.99 74.59 63.14 75.04 63.22 75.66 63.22 75.66 63.22 75.66 63.91 75.66 63.91 75.66 63.91 69.64 63.91 69.64 63.91 69.64 63.91 69.64 63.22 69.64 63.22 70.42 63.22 70.92 63.02 71.14 62.61 71.36 62.21 71.47 61.31 71.47 59.91 71.47 59.91 71.47 50.87 71.47 50.87 71.47 49.54 71.42 48.76 71.33 48.52 71.23 48.28 71.08 48.06 70.88 47.87 70.68 47.67 70.26 47.58 69.64 47.58 69.64 47.58 69.64 46.87 69.64 46.87 69.64 46.87 75.66 46.87 75.66 46.87 75.66 46.87 75.66 47.58 75.66 47.58 74.93 47.58 74.48 47.65 74.31 47.8 74.14 47.95 73.99 48.13 73.85 48.35 73.71 48.56 73.64 49.41 73.64 50.87 73.64 50.87 73.64 54.22 73.64 54.22 73.84 54.24 73.98 54.25 74.04 54.25 74.58 54.25 75.08 54.04 75.55 53.61 76.02 53.18 76.43 52.28 76.8 50.89 77.15 49.57 77.43 48.69 77.65 48.23 77.87 47.77 78.19 47.4 78.58 47.1 78.98 46.81 79.4 46.67 79.84 46.67ZM 68.11 55.07C 68.11 56.6 67.85 58.14 67.33 59.7 66.81 61.27 66.1 62.45 65.2 63.24 64.29 64.03 63.28 64.43 62.17 64.43 60.35 64.43 58.91 63.4 57.85 61.36 56.94 59.63 56.49 57.7 56.49 55.56 56.49 53.99 56.76 52.44 57.31 50.9 57.86 49.36 58.58 48.21 59.47 47.48 60.37 46.74 61.31 46.37 62.31 46.37 64.13 46.37 65.59 47.35 66.7 49.31 67.64 50.98 68.11 52.9 68.11 55.07ZM 64.28 49.36C 63.66 48.17 62.87 47.58 61.9 47.58 61.44 47.58 60.98 47.77 60.5 48.16 60.04 48.56 59.66 49.24 59.37 50.22 59.08 51.2 58.94 52.45 58.94 53.99 58.94 56.47 59.29 58.61 59.98 60.41 60.68 62.2 61.59 63.11 62.73 63.11 63.58 63.11 64.28 62.61 64.84 61.62 65.39 60.62 65.66 58.92 65.66 56.5 65.66 53.48 65.2 51.1 64.28 49.36ZM 54.99 47.58C 54.4 47.58 54 47.66 53.8 47.83 53.61 48 53.45 48.2 53.34 48.45 53.22 48.7 53.17 49.5 53.17 50.87 53.17 50.87 53.17 59.29 53.17 59.29 53.17 61.07 53.28 62.15 53.49 62.56 53.7 62.96 54.2 63.18 54.99 63.22 54.99 63.22 54.99 68.63 54.99 68.63 54.99 68.63 54.5 68.63 54.5 68.63 54.46 67.61 54.28 66.72 53.96 65.97 53.64 65.21 53.2 64.68 52.63 64.37 52.06 64.06 51.22 63.91 50.11 63.91 50.11 63.91 47.01 63.91 47.01 63.91 46.04 63.91 45.29 64.03 44.75 64.27 44.2 64.51 43.75 65.02 43.39 65.78 43.02 66.55 42.8 67.5 42.72 68.63 42.72 68.63 42.24 68.63 42.24 68.63 42.24 68.63 42.24 63.22 42.24 63.22 42.95 63.18 43.61 62.78 44.19 62.01 44.78 61.24 45.3 59.73 45.74 57.49 46.19 55.25 46.41 53.04 46.41 50.87 46.41 48.73 45.73 47.64 44.38 47.58 44.38 47.58 44.38 46.87 44.38 46.87 44.38 46.87 54.99 46.87 54.99 46.87 54.99 46.87 54.99 47.58 54.99 47.58ZM 50.98 48.08C 50.98 48.08 47.28 48.08 47.28 48.08 47.28 48.08 47.28 49.1 47.28 49.1 47.28 55.19 46.5 59.72 44.94 62.7 44.94 62.7 49.41 62.7 49.41 62.7 50.21 62.7 50.68 62.6 50.8 62.41 50.93 62.22 50.98 61.51 50.98 60.28 50.98 60.28 50.98 48.08 50.98 48.08ZM 47.39 28.16C 48.09 29.85 48.61 30.92 48.96 31.37 49.32 31.82 49.82 32.06 50.49 32.09 50.49 32.09 50.49 32.76 50.49 32.76 50.49 32.76 46.9 32.76 46.9 32.76 45.78 30.53 44.77 28.25 43.87 25.91 43.65 25.37 43.46 24.98 43.29 24.71 43.11 24.45 42.88 24.32 42.58 24.32 42.47 24.32 42.3 24.33 42.07 24.36 42.07 24.36 42.07 28.83 42.07 28.83 42.07 30.04 42.12 30.81 42.22 31.14 42.33 31.47 42.51 31.72 42.78 31.86 43.04 32.01 43.49 32.09 44.12 32.09 44.12 32.09 44.12 32.76 44.12 32.76 44.12 32.76 38.03 32.76 38.03 32.76 38.03 32.76 38.03 32.09 38.03 32.09 38.82 32.09 39.32 31.89 39.55 31.49 39.77 31.09 39.88 30.21 39.88 28.83 39.88 28.83 39.88 19.96 39.88 19.96 39.88 18.66 39.83 17.89 39.73 17.65 39.63 17.42 39.48 17.2 39.28 17.01 39.07 16.83 38.66 16.73 38.03 16.73 38.03 16.73 38.03 16.03 38.03 16.03 38.03 16.03 44.12 16.03 44.12 16.03 44.12 16.03 44.12 16.73 44.12 16.73 43.38 16.73 42.93 16.8 42.75 16.95 42.58 17.09 42.43 17.27 42.28 17.49 42.14 17.7 42.07 18.53 42.07 19.96 42.07 19.96 42.07 23.25 42.07 23.25 42.27 23.27 42.41 23.28 42.48 23.28 43.02 23.28 43.53 23.08 44.01 22.65 44.48 22.23 44.9 21.34 45.27 19.98 45.62 18.69 45.91 17.82 46.13 17.37 46.36 16.92 46.68 16.55 47.08 16.27 47.48 15.98 47.91 15.83 48.35 15.83 48.83 15.83 49.21 16 49.49 16.31 49.78 16.63 49.92 17.04 49.92 17.55 49.92 17.98 49.81 18.34 49.61 18.64 49.41 18.94 49.12 19.09 48.76 19.09 48.56 19.09 48.32 19.01 48.03 18.86 47.66 18.68 47.37 18.6 47.17 18.6 46.77 18.6 46.43 19.08 46.17 20.03 45.86 21.14 45.65 21.85 45.5 22.18 45.36 22.5 45.09 22.93 44.69 23.47 44.96 23.57 45.26 23.85 45.59 24.31 45.91 24.76 46.51 26.04 47.39 28.16ZM 61.93 31.14C 62.03 31.39 62.18 31.61 62.39 31.8 62.6 31.99 63.02 32.09 63.64 32.09 63.64 32.09 63.64 32.76 63.64 32.76 63.64 32.76 57.34 32.76 57.34 32.76 57.34 32.76 57.34 32.09 57.34 32.09 58.02 32.09 58.49 32.04 58.75 31.94 59.01 31.84 59.22 31.61 59.37 31.23 59.52 30.86 59.6 30.06 59.6 28.83 59.6 28.83 59.6 17.22 59.6 17.22 59.6 17.22 55.54 17.22 55.54 17.22 55.54 17.22 55.54 24.27 55.54 24.27 55.54 26.93 55.45 28.81 55.28 29.89 55.11 30.96 54.77 31.75 54.25 32.27 53.75 32.79 53.17 33.05 52.51 33.05 51.37 33.05 50.81 32.4 50.81 31.11 50.81 30.68 50.9 30.32 51.08 30.04 51.26 29.76 51.5 29.62 51.79 29.62 52.1 29.62 52.39 29.79 52.65 30.15 53 30.61 53.26 30.84 53.44 30.84 53.84 30.84 54.13 30.38 54.31 29.46 54.49 28.55 54.58 26.93 54.58 24.63 54.58 24.63 54.58 20.94 54.58 20.94 54.58 19.05 54.48 17.89 54.28 17.48 54.08 17.06 53.57 16.81 52.75 16.73 52.75 16.73 52.75 16.03 52.75 16.03 52.75 16.03 63.64 16.03 63.64 16.03 63.64 16.03 63.64 16.73 63.64 16.73 63.04 16.73 62.63 16.81 62.43 16.98 62.23 17.14 62.08 17.34 61.96 17.59 61.85 17.83 61.79 18.62 61.79 19.96 61.79 19.96 61.79 28.83 61.79 28.83 61.79 30.12 61.84 30.9 61.93 31.14ZM 76.49 31.14C 76.59 31.39 76.74 31.61 76.95 31.8 77.16 31.99 77.57 32.09 78.19 32.09 78.19 32.09 78.19 32.76 78.19 32.76 78.19 32.76 72.3 32.76 72.3 32.76 72.3 32.76 72.3 32.09 72.3 32.09 73.04 32.09 73.53 31.9 73.78 31.52 74.03 31.16 74.16 30.26 74.16 28.83 74.16 28.83 74.16 20.96 74.16 20.96 74.16 20.96 68.89 29.34 68.89 29.34 68.9 30.38 69.01 31.09 69.21 31.48 69.4 31.87 69.82 32.07 70.47 32.09 70.47 32.09 70.47 32.76 70.47 32.76 70.47 32.76 64.85 32.76 64.85 32.76 64.85 32.76 64.85 32.09 64.85 32.09 65.64 32.09 66.14 31.89 66.36 31.49 66.59 31.09 66.69 30.21 66.69 28.83 66.69 28.83 66.69 19.96 66.69 19.96 66.69 18.66 66.64 17.89 66.55 17.65 66.45 17.42 66.3 17.2 66.1 17.01 65.89 16.83 65.47 16.73 64.85 16.73 64.85 16.73 64.85 16.03 64.85 16.03 64.85 16.03 70.74 16.03 70.74 16.03 70.74 16.03 70.74 16.73 70.74 16.73 70.14 16.73 69.74 16.81 69.54 16.98 69.34 17.14 69.18 17.34 69.06 17.59 68.95 17.83 68.89 18.62 68.89 19.96 68.89 19.96 68.89 27.61 68.89 27.61 68.89 27.61 74.16 19.25 74.16 19.25 74.14 18.32 74.01 17.66 73.77 17.3 73.53 16.93 73.12 16.74 72.53 16.73 72.53 16.73 72.53 16.03 72.53 16.03 72.53 16.03 78.19 16.03 78.19 16.03 78.19 16.03 78.19 16.73 78.19 16.73 77.6 16.73 77.2 16.81 77 16.98 76.8 17.14 76.63 17.34 76.52 17.59 76.41 17.83 76.35 18.62 76.35 19.96 76.35 19.96 76.35 28.83 76.35 28.83 76.35 30.12 76.4 30.9 76.49 31.14ZM 91.02 30.93C 91.09 31.27 91.25 31.55 91.51 31.76 91.76 31.98 92.18 32.09 92.77 32.09 92.77 32.09 92.77 32.76 92.77 32.76 92.77 32.76 86.88 32.76 86.88 32.76 86.88 32.76 86.88 32.09 86.88 32.09 87.61 32.09 88.11 31.9 88.36 31.52 88.6 31.16 88.73 30.26 88.73 28.83 88.73 28.83 88.73 24.69 88.73 24.69 88.73 24.69 83.46 24.69 83.46 24.69 83.46 24.69 83.46 28.83 83.46 28.83 83.46 29.89 83.5 30.59 83.56 30.93 83.63 31.27 83.79 31.55 84.04 31.76 84.3 31.98 84.73 32.09 85.31 32.09 85.31 32.09 85.31 32.76 85.31 32.76 85.31 32.76 79.42 32.76 79.42 32.76 79.42 32.76 79.42 32.09 79.42 32.09 80.21 32.09 80.71 31.89 80.94 31.49 81.16 31.09 81.27 30.21 81.27 28.83 81.27 28.83 81.27 19.96 81.27 19.96 81.27 18.9 81.24 18.2 81.17 17.86 81.1 17.52 80.94 17.25 80.68 17.04 80.42 16.83 80.01 16.73 79.42 16.73 79.42 16.73 79.42 16.03 79.42 16.03 79.42 16.03 85.31 16.03 85.31 16.03 85.31 16.03 85.31 16.73 85.31 16.73 84.76 16.73 84.36 16.81 84.1 16.99 83.85 17.16 83.68 17.41 83.6 17.72 83.5 18.05 83.46 18.79 83.46 19.96 83.46 19.96 83.46 23.5 83.46 23.5 83.46 23.5 88.73 23.5 88.73 23.5 88.73 23.5 88.73 19.96 88.73 19.96 88.73 18.9 88.7 18.21 88.63 17.89 88.57 17.57 88.42 17.29 88.17 17.07 87.93 16.84 87.5 16.73 86.88 16.73 86.88 16.73 86.88 16.03 86.88 16.03 86.88 16.03 92.77 16.03 92.77 16.03 92.77 16.03 92.77 16.73 92.77 16.73 92.22 16.73 91.82 16.81 91.56 16.99 91.31 17.16 91.14 17.41 91.05 17.72 90.97 18.05 90.92 18.79 90.92 19.96 90.92 19.96 90.92 28.83 90.92 28.83 90.92 29.89 90.95 30.59 91.02 30.93ZM 110.79 46.44C 110.79 46.44 110.79 50.42 110.79 50.42 111.41 48.92 112.04 47.87 112.66 47.27 113.29 46.67 113.95 46.37 114.64 46.37 115.85 46.37 116.86 47.04 117.66 48.38 118.65 50.02 119.15 52.14 119.15 54.78 119.15 57.71 118.55 60.14 117.36 62.06 116.38 63.64 115.14 64.43 113.65 64.43 113.01 64.43 112.45 64.3 111.97 64.04 111.62 63.85 111.23 63.48 110.79 62.92 110.79 62.92 110.79 68.11 110.79 68.11 110.79 69.28 110.84 70.01 110.94 70.33 111.04 70.65 111.22 70.9 111.47 71.08 111.72 71.27 112.17 71.36 112.83 71.36 112.83 71.36 112.83 72.05 112.83 72.05 112.83 72.05 106.52 72.05 106.52 72.05 106.52 72.05 106.52 71.36 106.52 71.36 106.52 71.36 106.85 71.36 106.85 71.36 107.33 71.38 107.74 71.24 108.08 70.97 108.25 70.84 108.38 70.61 108.48 70.31 108.57 70.01 108.61 69.24 108.61 68 108.61 68 108.61 51.89 108.61 51.89 108.61 50.79 108.58 50.09 108.51 49.79 108.43 49.49 108.32 49.27 108.17 49.12 108.02 48.97 107.81 48.9 107.55 48.9 107.34 48.9 107.07 48.98 106.74 49.16 106.74 49.16 106.59 48.56 106.59 48.56 106.59 48.56 110.29 46.44 110.29 46.44 110.29 46.44 110.79 46.44 110.79 46.44ZM 110.79 57.88C 110.79 59.26 110.83 60.16 110.91 60.6 111.03 61.32 111.33 61.94 111.81 62.49 112.29 63.04 112.89 63.31 113.62 63.31 114.49 63.31 115.2 62.83 115.74 61.86 116.45 60.6 116.81 58.81 116.81 56.52 116.81 53.92 116.41 51.91 115.6 50.52 115.04 49.55 114.37 49.06 113.61 49.06 113.18 49.06 112.77 49.22 112.35 49.51 112.04 49.74 111.52 50.4 110.79 51.52 110.79 51.52 110.79 57.88 110.79 57.88ZM 99.89 46.37C 101.71 46.37 103.17 47.35 104.28 49.31 105.21 50.98 105.68 52.9 105.68 55.07 105.68 56.6 105.42 58.14 104.91 59.7 104.39 61.27 103.68 62.45 102.77 63.24 101.87 64.03 100.86 64.43 99.74 64.43 97.93 64.43 96.49 63.4 95.42 61.36 94.52 59.63 94.07 57.7 94.07 55.56 94.07 53.99 94.34 52.44 94.89 50.9 95.43 49.36 96.16 48.21 97.05 47.48 97.94 46.74 98.89 46.37 99.89 46.37ZM 96.51 53.99C 96.51 56.47 96.86 58.61 97.56 60.41 98.25 62.2 99.17 63.11 100.31 63.11 101.16 63.11 101.86 62.61 102.41 61.62 102.96 60.62 103.24 58.92 103.24 56.5 103.24 53.48 102.78 51.1 101.86 49.36 101.24 48.17 100.44 47.58 99.48 47.58 99.02 47.58 98.55 47.77 98.08 48.16 97.61 48.56 97.23 49.24 96.95 50.22 96.65 51.2 96.51 52.45 96.51 53.99ZM 105.64 31.14C 105.74 31.39 105.89 31.61 106.1 31.8 106.31 31.99 106.72 32.09 107.34 32.09 107.34 32.09 107.34 32.76 107.34 32.76 107.34 32.76 101.45 32.76 101.45 32.76 101.45 32.76 101.45 32.09 101.45 32.09 102.18 32.09 102.68 31.9 102.93 31.52 103.17 31.16 103.3 30.26 103.3 28.83 103.3 28.83 103.3 20.96 103.3 20.96 103.3 20.96 98.03 29.34 98.03 29.34 98.05 30.38 98.16 31.09 98.35 31.48 98.55 31.87 98.97 32.07 99.62 32.09 99.62 32.09 99.62 32.76 99.62 32.76 99.62 32.76 93.99 32.76 93.99 32.76 93.99 32.76 93.99 32.09 93.99 32.09 94.78 32.09 95.29 31.89 95.51 31.49 95.73 31.09 95.84 30.21 95.84 28.83 95.84 28.83 95.84 19.96 95.84 19.96 95.84 18.66 95.79 17.89 95.69 17.65 95.59 17.42 95.45 17.2 95.24 17.01 95.04 16.83 94.62 16.73 93.99 16.73 93.99 16.73 93.99 16.03 93.99 16.03 93.99 16.03 99.88 16.03 99.88 16.03 99.88 16.03 99.88 16.73 99.88 16.73 99.29 16.73 98.89 16.81 98.69 16.98 98.48 17.14 98.32 17.34 98.2 17.59 98.09 17.83 98.03 18.62 98.03 19.96 98.03 19.96 98.03 27.61 98.03 27.61 98.03 27.61 103.3 19.25 103.3 19.25 103.28 18.32 103.15 17.66 102.92 17.3 102.67 16.93 102.26 16.74 101.68 16.73 101.68 16.73 101.68 16.03 101.68 16.03 101.68 16.03 107.34 16.03 107.34 16.03 107.34 16.03 107.34 16.73 107.34 16.73 106.75 16.73 106.35 16.81 106.15 16.98 105.94 17.14 105.78 17.34 105.67 17.59 105.55 17.83 105.49 18.62 105.49 19.96 105.49 19.96 105.49 28.83 105.49 28.83 105.49 30.12 105.54 30.9 105.64 31.14ZM 117.92 28.16C 118.63 29.85 119.15 30.92 119.5 31.37 119.85 31.82 120.36 32.06 121.02 32.09 121.02 32.09 121.02 32.76 121.02 32.76 121.02 32.76 117.43 32.76 117.43 32.76 116.32 30.53 115.3 28.25 114.4 25.91 114.19 25.37 114 24.98 113.82 24.71 113.65 24.45 113.41 24.32 113.11 24.32 113 24.32 112.84 24.33 112.6 24.36 112.6 24.36 112.6 28.83 112.6 28.83 112.6 30.04 112.66 30.81 112.76 31.14 112.86 31.47 113.04 31.72 113.31 31.86 113.58 32.01 114.02 32.09 114.66 32.09 114.66 32.09 114.66 32.76 114.66 32.76 114.66 32.76 108.57 32.76 108.57 32.76 108.57 32.76 108.57 32.09 108.57 32.09 109.35 32.09 109.86 31.89 110.08 31.49 110.3 31.09 110.41 30.21 110.41 28.83 110.41 28.83 110.41 19.96 110.41 19.96 110.41 18.66 110.36 17.89 110.27 17.65 110.17 17.42 110.02 17.2 109.81 17.01 109.61 16.83 109.19 16.73 108.57 16.73 108.57 16.73 108.57 16.03 108.57 16.03 108.57 16.03 114.66 16.03 114.66 16.03 114.66 16.03 114.66 16.73 114.66 16.73 113.92 16.73 113.46 16.8 113.29 16.95 113.12 17.09 112.96 17.27 112.82 17.49 112.68 17.7 112.6 18.53 112.6 19.96 112.6 19.96 112.6 23.25 112.6 23.25 112.81 23.27 112.95 23.28 113.02 23.28 113.56 23.28 114.07 23.08 114.54 22.65 115.01 22.23 115.44 21.34 115.81 19.98 116.16 18.69 116.44 17.82 116.67 17.37 116.89 16.92 117.21 16.55 117.61 16.27 118.01 15.98 118.44 15.83 118.88 15.83 119.36 15.83 119.74 16 120.02 16.31 120.31 16.63 120.45 17.04 120.45 17.55 120.45 17.98 120.35 18.34 120.15 18.64 119.94 18.94 119.66 19.09 119.29 19.09 119.1 19.09 118.85 19.01 118.56 18.86 118.19 18.68 117.91 18.6 117.71 18.6 117.31 18.6 116.97 19.08 116.7 20.03 116.4 21.14 116.18 21.85 116.04 22.18 115.89 22.5 115.62 22.93 115.23 23.47 115.5 23.57 115.8 23.85 116.12 24.31 116.45 24.76 117.05 26.04 117.92 28.16ZM 123.4 51.98C 123.19 52.3 122.92 52.45 122.59 52.45 122.26 52.45 122 52.29 121.79 51.97 121.59 51.64 121.48 51.2 121.48 50.65 121.48 49.58 121.87 48.6 122.64 47.71 123.41 46.82 124.49 46.37 125.89 46.37 126.96 46.37 127.83 46.62 128.52 47.13 129.03 47.52 129.41 48.12 129.66 48.94 129.82 49.47 129.89 50.56 129.89 52.21 129.89 52.21 129.89 57.99 129.89 57.99 129.89 59.61 129.92 60.61 129.96 60.98 130.01 61.34 130.08 61.59 130.18 61.71 130.28 61.84 130.4 61.9 130.53 61.9 130.66 61.9 130.79 61.86 130.89 61.77 131.08 61.61 131.43 61.15 131.96 60.41 131.96 60.41 131.96 61.45 131.96 61.45 130.98 63.31 130.04 64.24 129.14 64.24 128.72 64.24 128.38 64.03 128.12 63.61 127.87 63.19 127.74 62.46 127.73 61.45 126.49 62.8 125.72 63.58 125.4 63.79 124.93 64.1 124.43 64.26 123.89 64.26 123.06 64.26 122.37 63.85 121.83 63.05 121.3 62.24 121.03 61.18 121.03 59.87 121.03 59.04 121.16 58.32 121.42 57.71 121.78 56.87 122.4 56.08 123.29 55.33 124.18 54.59 125.66 53.69 127.73 52.62 127.73 52.62 127.73 51.95 127.73 51.95 127.73 50.25 127.54 49.08 127.16 48.45 126.78 47.82 126.22 47.5 125.49 47.5 124.94 47.5 124.5 47.71 124.18 48.14 123.85 48.56 123.68 49.04 123.68 49.59 123.68 49.59 123.71 50.66 123.71 50.66 123.71 51.24 123.61 51.67 123.4 51.98ZM 125.17 55.33C 124.47 55.88 123.98 56.45 123.68 57.04 123.38 57.64 123.23 58.29 123.23 59 123.23 59.89 123.42 60.63 123.8 61.22 124.18 61.8 124.61 62.1 125.1 62.1 125.77 62.1 126.64 61.48 127.73 60.24 127.73 60.24 127.73 53.75 127.73 53.75 126.4 54.5 125.55 55.03 125.17 55.33ZM 124.14 21.06C 123.93 21.36 123.66 21.51 123.32 21.51 122.99 21.51 122.72 21.36 122.52 21.04 122.31 20.72 122.2 20.29 122.2 19.74 122.2 18.7 122.59 17.74 123.37 16.86 124.15 15.98 125.25 15.54 126.66 15.54 127.74 15.54 128.62 15.79 129.32 16.29 129.84 16.67 130.23 17.26 130.48 18.07 130.64 18.59 130.71 19.65 130.71 21.27 130.71 21.27 130.71 26.95 130.71 26.95 130.71 28.55 130.74 29.52 130.78 29.89 130.83 30.24 130.9 30.48 131 30.6 131.1 30.73 131.22 30.79 131.35 30.79 131.49 30.79 131.62 30.75 131.72 30.66 131.91 30.5 132.27 30.05 132.8 29.32 132.8 29.32 132.8 30.35 132.8 30.35 131.81 32.17 130.86 33.09 129.95 33.09 129.52 33.09 129.18 32.88 128.92 32.47 128.66 32.05 128.53 31.34 128.52 30.35 127.27 31.67 126.49 32.44 126.16 32.65 125.69 32.95 125.18 33.11 124.64 33.11 123.8 33.11 123.1 32.71 122.56 31.92 122.01 31.13 121.74 30.09 121.74 28.8 121.74 27.98 121.87 27.28 122.14 26.68 122.5 25.85 123.13 25.08 124.03 24.34 124.93 23.61 126.43 22.73 128.52 21.68 128.52 21.68 128.52 21.02 128.52 21.02 128.52 19.36 128.33 18.21 127.94 17.59 127.56 16.97 127 16.66 126.26 16.66 125.7 16.66 125.26 16.86 124.93 17.28 124.59 17.69 124.43 18.17 124.43 18.7 124.43 18.7 124.45 19.76 124.45 19.76 124.45 20.32 124.35 20.75 124.14 21.06ZM 125.93 24.34C 125.23 24.88 124.73 25.44 124.43 26.02 124.12 26.61 123.97 27.24 123.97 27.94 123.97 28.81 124.16 29.54 124.54 30.12 124.93 30.7 125.37 30.99 125.86 30.99 126.54 30.99 127.42 30.38 128.52 29.16 128.52 29.16 128.52 22.79 128.52 22.79 127.18 23.52 126.32 24.04 125.93 24.34ZM 81.43 78.78C 101.26 78.78 119.6 76.04 134.53 71.4 134.53 71.4 138.47 71.4 138.47 71.4 122.81 76.78 102.99 80 81.43 80 81.43 80 81.43 80 81.43 80 60.75 80 46.84 77.7 31.48 73.58 31.48 73.58 30.68 72.47 30.68 72.47 30.68 72.47 30.33 72.03 30.33 72.03 45.34 76.42 61.56 78.78 81.43 78.78 81.43 78.78 81.43 78.78 81.43 78.78Z" fill="rgb(255,255,255)"/></svg>