<?xml version="1.0" encoding="utf-8"?>
<svg xmlns="http://www.w3.org/2000/svg"
	xmlns:xlink="http://www.w3.org/1999/xlink"
	width="40px" height="60px" viewBox="0 0 40 60">
<path fillRule="evenodd" d="M 20 0C 8.97 0 0 8.9 0 19.85 0 24.25 2.84 31.44 8.67 41.81 12.8 49.15 16.86 55.27 17.03 55.53 17.03 55.53 20 60 20 60 20 60 22.97 55.53 22.97 55.53 23.14 55.27 27.2 49.15 31.33 41.81 37.16 31.44 40 24.25 40 19.85 40 8.9 31.03 0 20 0ZM 20 30C 14.27 30 9.63 25.39 9.63 19.71 9.63 14.03 14.27 9.42 20 9.42 25.73 9.42 30.37 14.03 30.37 19.71 30.37 25.39 25.73 30 20 30Z" fill="rgb(241,73,73)"/></svg>