<?xml version="1.0" encoding="utf-8"?>
<svg xmlns="http://www.w3.org/2000/svg"
	xmlns:xlink="http://www.w3.org/1999/xlink"
	width="50px" height="50px" viewBox="0 0 50 50">
<path fillRule="evenodd" d="M 25 49C 38.23 49 49 38.23 49 25 49 11.77 38.23 1 25 1 11.77 1 1 11.77 1 25 1 38.23 11.77 49 25 49M 25 50C 11.19 50 0 38.81 0 25 0 11.19 11.19 0 25 0 38.81 0 50 11.19 50 25 50 38.81 38.81 50 25 50 25 50 25 50 25 50Z" fill="rgb(115,109,109)"/><path fillRule="evenodd" d="M 40.59 24.5C 41.44 24.81 42.02 25.01 42 25 42 25 39.24 25 39.24 25 37.67 25.59 35.79 26.34 34.63 26.95 32.56 28.04 24.32 34.97 18.18 35 16.15 35.01 13 33.2 13 30.19 13 27.63 14.63 25.72 17.14 25.72 19.65 25.72 20.6 27.3 20.6 29.16 20.6 31.01 18.52 31.56 18.52 31.56 18.52 31.56 18.54 31.52 18.56 31.47 18.38 31.52 18.2 31.56 18 31.56 16.95 31.56 16.09 30.72 16.09 29.67 16.09 28.63 16.95 27.78 18 27.78 18.38 27.78 18.72 27.89 19.02 28.08 18.77 27.4 18.23 26.75 17.14 26.75 15.46 26.75 14.36 28.66 14.38 30.19 14.4 31.36 15.97 33.28 18.18 33.28 23.58 33.28 24.54 26.41 24.7 24.5 24.54 22.59 23.58 15.72 18.18 15.72 15.97 15.72 14.4 17.64 14.38 18.81 14.36 20.34 15.46 22.25 17.14 22.25 18.23 22.25 18.77 21.6 19.02 20.92 18.72 21.11 18.38 21.22 18 21.22 16.95 21.22 16.09 20.37 16.09 19.33 16.09 18.28 16.95 17.44 18 17.44 18.2 17.44 18.38 17.48 18.56 17.53 18.54 17.48 18.52 17.44 18.52 17.44 18.52 17.44 20.6 17.99 20.6 19.84 20.6 21.7 19.65 23.28 17.14 23.28 14.63 23.28 13 21.37 13 18.81 13 15.8 16.15 13.99 18.18 14 24.32 14.03 32.56 20.96 34.63 22.05 35.79 22.66 37.67 23.41 39.24 24 39.24 24 42 24 42 24 42.02 23.99 41.44 24.19 40.59 24.5Z" fill="rgb(115,109,109)"/></svg>