<?xml version="1.0" encoding="utf-8"?>
<svg xmlns="http://www.w3.org/2000/svg"
	xmlns:xlink="http://www.w3.org/1999/xlink"
	width="11px" height="16px" viewBox="0 0 11 16">
<path fillRule="evenodd" d="M 9.91 11.48C 9.21 10.45 8.44 9.75 7.45 10.39 7.45 10.39 7.16 10.58 7.16 10.58 6.73 10.86 5.16 11.95 3.9 9.39 2.66 6.88 4.23 5.8 4.66 5.52 4.66 5.52 4.95 5.33 4.95 5.33 5.93 4.69 5.8 3.57 5.39 2.35 5.39 2.35 5.14 1.61 5.14 1.61 4.73 0.4 4.22-0.42 3.23 0.22 3.23 0.22 2.68 0.54 2.68 0.54 2.26 0.76 0.95 1.6 0.36 3.45-0.35 5.67-0.03 7.97 1.48 11 3.03 14.15 4.5 15.47 6.52 15.9 8.2 16.26 9.5 15.39 9.88 15.08 9.88 15.08 10.4 14.7 10.4 14.7 11.38 14.05 11.03 13.12 10.33 12.1 10.33 12.1 9.91 11.48 9.91 11.48Z" fill="rgb(253,223,151)"/></svg>