<?xml version="1.0" encoding="utf-8"?>
<svg xmlns="http://www.w3.org/2000/svg"
	xmlns:xlink="http://www.w3.org/1999/xlink"
	width="128px" height="34px" viewBox="0 0 128 34">
<path fillRule="evenodd" d="M 19.48 18.84C 19.13 19.01 18.6 19.1 17.89 19.1 16.13 19.1 14.34 18.49 12.52 17.28 12 16.93 10.89 16.02 9.18 14.53 7.04 12.72 5.53 11.53 4.67 10.97 3.23 10.02 1.94 9.55 0.78 9.55 0.78 9.55-0 9.67-0 9.67-0 9.67-0 9.41-0 9.41 0.54 9.01 1.12 8.68 1.74 8.4 2.63 8.01 3.45 7.81 4.18 7.81 5.77 7.81 7.07 8.14 8.11 8.81 8.31 8.94 8.79 9.38 9.55 10.15 9.87 9.68 10.13 9.39 10.33 9.29 10.73 9.1 11.26 9 11.92 9 12.37 9 12.84 9.14 13.33 9.42 13.83 9.71 14.23 10.1 14.55 10.59 14.04 10.59 13.61 10.72 13.26 10.97 12.72 11.36 12.45 11.98 12.45 12.82 12.45 14.73 13.08 16.18 14.37 17.17 15.56 18.08 17.12 18.54 19.08 18.54 19.08 18.54 19.48 18.84 19.48 18.84ZM 13 10.33C 12.73 9.89 12.26 9.67 11.59 9.67 10.9 9.67 10.43 9.91 10.19 10.41 10.04 10.7 9.96 11.16 9.96 11.78 9.96 11.78 9.78 11.78 9.78 11.78 9.31 10.84 8.8 10.13 8.26 9.67 7.24 8.77 5.89 8.33 4.18 8.33 3.79 8.33 3.44 8.38 3.13 8.5 2.82 8.61 2.48 8.77 2.11 9 3.17 9.37 4.21 9.89 5.22 10.56 6.98 11.72 9.05 13.48 11.44 15.83 11.44 15.83 11.92 15.68 11.92 15.68 11.01 14.67 10.07 13.7 9.11 12.79 8.07 11.79 6.98 10.9 5.81 10.11 5.81 10.11 6.04 9.96 6.04 9.96 6.85 10.33 8.07 11.28 9.7 12.79 11.11 14.1 11.96 14.96 12.26 15.38 12.26 15.38 12.45 15.2 12.45 15.2 12.02 14.33 11.81 13.47 11.81 12.6 11.81 12 11.91 11.5 12.11 11.08 12.31 10.66 12.6 10.41 13 10.33ZM 110.81 13.6C 110.81 16.08 109.78 17.84 107.7 18.88 106.32 19.57 104.62 19.92 102.59 19.92 101.78 19.92 100.94 19.85 100.07 19.73 98 19.43 96.59 19.29 95.85 19.29 94.74 19.29 93.82 19.42 93.11 19.69 92.62 19.87 92.08 20.19 91.48 20.66 91.48 20.66 91.33 20.44 91.33 20.44 92.05 19.64 92.84 18.98 93.7 18.43 94.89 17.69 95.99 17.31 97.03 17.31 97.65 17.31 98.15 17.39 98.54 17.52 98.92 17.66 99.33 17.92 99.78 18.32 99.78 18.32 100 18.32 100 18.32 99.95 18.07 99.93 17.87 99.93 17.73 99.93 17.25 100.04 16.88 100.25 16.59 100.48 16.31 100.83 16.17 101.29 16.17 101.44 16.17 101.61 16.22 101.79 16.31 101.98 16.41 102.11 16.48 102.18 16.5 102.06 16.65 101.97 16.76 101.92 16.83 101.78 17.03 101.7 17.24 101.7 17.46 101.7 17.99 101.92 18.44 102.37 18.84 102.81 19.24 103.38 19.43 104.07 19.43 105.7 19.43 107.11 18.97 108.31 18.04 109.51 17.11 110.11 15.97 110.11 14.6 110.11 13.32 109.78 12.38 109.11 11.8 108.44 11.22 107.49 10.93 106.26 10.93 104.43 10.93 102 11.83 98.96 13.64 96.86 14.9 94.43 16.64 91.67 18.84 90.33 19.93 89 21.02 87.66 22.11 86.35 23 84.66 23.9 82.59 24.82 79.93 26.01 77.84 26.6 76.33 26.6 73.89 26.6 71.8 25.87 70.07 24.39 68.34 22.92 67.09 20.78 66.29 17.99 66.29 17.99 64 17.99 64 17.99 64 17.99 61.7 17.99 61.7 17.99 60.91 20.76 59.65 22.89 57.92 24.38 56.2 25.86 54.11 26.6 51.66 26.6 50.13 26.6 48.06 26.02 45.44 24.86 43.42 23.94 41.71 23.02 40.33 22.11 39 21.04 37.68 19.97 36.37 18.88 33.48 16.58 31.05 14.83 29.08 13.64 26.04 11.83 23.59 10.93 21.74 10.93 20.5 10.93 19.55 11.21 18.89 11.78 18.22 12.35 17.89 13.29 17.89 14.6 17.89 15.97 18.48 17.11 19.67 18.04 20.85 18.97 22.27 19.43 23.93 19.43 24.59 19.43 25.15 19.24 25.61 18.86 26.06 18.47 26.29 18.01 26.29 17.46 26.29 17.22 26.13 16.89 25.81 16.5 25.94 16.45 26.09 16.38 26.26 16.3 26.43 16.21 26.58 16.17 26.7 16.17 27.15 16.17 27.48 16.32 27.72 16.63 27.95 16.94 28.07 17.31 28.07 17.76 28.07 17.89 28.05 18.07 28 18.32 28 18.32 28.22 18.32 28.22 18.32 28.67 17.92 29.08 17.66 29.46 17.52 29.85 17.39 30.35 17.31 30.97 17.31 31.97 17.31 33.07 17.69 34.26 18.43 35.17 19 35.97 19.67 36.67 20.44 36.67 20.44 36.52 20.66 36.52 20.66 35.9 20.19 35.37 19.87 34.93 19.69 34.21 19.42 33.28 19.29 32.15 19.29 31.26 19.29 29.86 19.42 27.96 19.69 26.92 19.84 26.07 19.92 25.41 19.92 23.36 19.92 21.67 19.58 20.33 18.91 18.23 17.85 17.18 16.08 17.18 13.6 17.18 11.99 17.84 10.66 19.16 9.59 20.49 8.53 22.07 7.99 23.93 7.99 25.68 7.99 27.37 8.33 29.02 9.01 30.66 9.7 32.15 10.67 33.48 11.93 33.48 11.07 33.61 10.33 33.87 9.72 34.13 9.11 34.54 8.65 35.11 8.33 36.1 8.82 36.78 9.24 37.15 9.59 37.76 10.19 38.43 11.19 39.15 12.6 39.52 12.13 39.86 11.79 40.18 11.6 40.73 11.28 41.46 11.11 42.37 11.11 43.51 11.11 44.52 11.49 45.41 12.23 46.59 13.22 47.18 14.09 47.18 14.83 47.18 14.83 47.03 15.05 47.03 15.05 46.86 14.85 46.57 14.69 46.17 14.57 45.76 14.45 45.37 14.38 45 14.38 44.28 14.38 43.71 14.67 43.28 15.24 42.85 15.81 42.63 16.48 42.63 17.24 42.63 19.15 43.48 20.99 45.18 22.78 47.11 24.81 49.38 25.82 52 25.82 54.07 25.82 55.88 25.23 57.41 24.04 59.13 22.7 60.39 20.68 61.19 17.99 61.19 17.99 60.78 17.99 60.78 17.99 60.11 20.04 59.2 21.66 58.04 22.85 56.68 24.24 55.07 24.93 53.22 24.93 50.53 24.93 48.59 24.29 47.41 23 46.62 22.13 46.22 21.1 46.22 19.92 46.22 19.27 46.44 18.71 46.87 18.23 47.3 17.74 47.85 17.5 48.52 17.5 49.01 17.5 49.38 17.54 49.61 17.62 49.84 17.69 50.04 17.92 50.18 18.32 49.96 18.54 49.84 18.68 49.81 18.73 49.71 18.9 49.67 19.14 49.67 19.43 49.67 20.67 50.26 21.69 51.44 22.48 52.5 23.2 53.7 23.56 55.04 23.56 56.12 23.56 57.17 23.02 58.17 21.94 59.16 20.86 59.93 19.55 60.44 17.99 60.07 17.84 59.8 17.61 59.61 17.3 59.43 16.99 59.33 16.69 59.33 16.39 59.33 15.82 59.47 15.38 59.74 15.09 59.76 15.06 60 14.9 60.44 14.6 60.44 13.54 60.26 12.56 59.89 11.67 59.37 10.43 58.6 9.81 57.59 9.81 56.95 9.81 56.38 9.99 55.89 10.35 55.39 10.71 55.15 11.24 55.15 11.93 55.15 12.57 55.35 13.06 55.76 13.4 56.17 13.73 56.37 13.95 56.37 14.05 56.37 14.37 56.12 14.64 55.63 14.87 55.13 15.09 54.78 15.2 54.55 15.2 53.47 15.2 52.65 14.82 52.11 14.05 51.66 13.43 51.44 12.67 51.44 11.78 51.44 10.82 51.82 9.97 52.57 9.24 53.33 8.51 54.31 8.14 55.52 8.14 56.31 8.14 57 8.24 57.59 8.44 58.21 8.71 58.67 8.9 58.96 9 59.13 7.16 59.64 5.53 60.48 4.09 61.25 2.78 62.42 1.42 64 0.01 65.61 1.44 66.78 2.79 67.52 4.06 68.36 5.47 68.87 7.12 69.04 9 69.33 8.9 69.67 8.77 70.03 8.63 70.85 8.3 71.67 8.14 72.48 8.14 73.67 8.14 74.64 8.51 75.4 9.26 76.17 10 76.56 10.84 76.56 11.78 76.56 12.67 76.35 13.42 75.92 14.01 75.36 14.81 74.53 15.2 73.45 15.2 73.2 15.2 72.87 15.11 72.48 14.94 71.91 14.69 71.63 14.39 71.63 14.05 71.63 13.92 71.83 13.69 72.24 13.36 72.65 13.03 72.85 12.55 72.85 11.93 72.85 11.26 72.59 10.74 72.09 10.37 71.59 10 71.02 9.81 70.41 9.81 69.39 9.81 68.63 10.43 68.11 11.67 67.74 12.56 67.56 13.54 67.56 14.6 67.95 14.85 68.17 15.02 68.22 15.09 68.52 15.41 68.67 15.84 68.67 16.39 68.67 16.71 68.58 17.02 68.41 17.31 68.23 17.62 67.95 17.84 67.56 17.99 68.07 19.55 68.83 20.86 69.84 21.94 70.84 23.02 71.88 23.56 72.96 23.56 74.29 23.56 75.49 23.2 76.56 22.48 77.74 21.69 78.33 20.67 78.33 19.43 78.33 19.16 78.29 18.95 78.2 18.8 78.12 18.65 77.98 18.49 77.81 18.32 77.96 17.97 78.17 17.75 78.44 17.65 78.71 17.55 79.06 17.5 79.48 17.5 80.14 17.5 80.7 17.74 81.13 18.23 81.56 18.71 81.78 19.27 81.78 19.92 81.78 21.55 81.1 22.83 79.74 23.74 78.56 24.54 76.9 24.93 74.78 24.93 72.9 24.93 71.29 24.25 69.96 22.89 68.83 21.72 67.91 20.09 67.22 17.99 67.22 17.99 66.81 17.99 66.81 17.99 67.6 20.66 68.85 22.66 70.55 24 72.11 25.22 73.92 25.82 76 25.82 78.64 25.82 80.91 24.82 82.82 22.81 84.52 21.03 85.37 19.17 85.37 17.24 85.37 16.48 85.16 15.81 84.72 15.24 84.29 14.67 83.71 14.38 83 14.38 82.56 14.38 82.15 14.44 81.79 14.55 81.44 14.66 81.16 14.83 80.96 15.05 80.96 15.05 80.81 14.83 80.81 14.83 80.81 14.38 81.17 13.74 81.89 12.9 82.9 11.71 84.15 11.11 85.63 11.11 86.49 11.11 87.21 11.28 87.77 11.6 88.12 11.79 88.48 12.13 88.85 12.6 89.57 11.19 90.23 10.19 90.85 9.59 91.22 9.24 91.9 8.82 92.89 8.33 93.58 8.72 94.05 9.37 94.29 10.26 94.44 10.78 94.51 11.34 94.51 11.93 95.85 10.67 97.33 9.7 98.96 9.01 100.59 8.33 102.29 7.99 104.07 7.99 105.9 7.99 107.48 8.53 108.81 9.59 110.14 10.66 110.81 11.99 110.81 13.6ZM 45.74 13.83C 45.42 13.25 45 12.79 44.48 12.43 43.96 12.07 43.35 11.89 42.63 11.89 41.67 11.89 40.93 12.18 40.41 12.75 40.04 13.15 39.79 13.69 39.66 14.38 39.66 14.38 39.15 14.38 39.15 14.38 39.05 14.28 38.52 13.44 37.56 11.86 36.79 10.57 35.91 9.7 34.93 9.26 34.61 9.75 34.39 10.19 34.28 10.58 34.17 10.96 34.11 11.49 34.11 12.15 34.11 12.53 34.2 12.98 34.37 13.53 34.54 14.07 34.63 14.36 34.63 14.38 34.63 14.38 34.37 14.38 34.37 14.38 33.56 13.09 32.51 11.97 31.22 11 29.08 9.37 26.69 8.55 24.07 8.55 22.77 8.55 21.62 8.8 20.63 9.29 19.76 9.72 19.15 10.26 18.78 10.93 19.32 10.66 19.69 10.48 19.89 10.41 20.46 10.24 21.25 10.15 22.26 10.15 23.57 10.15 24.82 10.37 26 10.82 27.85 11.51 29.88 12.77 32.07 14.6 32.39 14.88 33.47 15.75 35.29 17.21 37 18.57 38.45 19.78 39.66 20.85 39.66 20.85 40.33 20.99 40.33 20.99 39.37 20 38.62 19.1 38.07 18.28 37.95 18.08 37.56 17.38 36.89 16.17 36.59 15.62 36.34 15.02 36.15 14.34 36.1 14.12 36.03 13.81 35.92 13.42 35.92 13.42 36.22 13.42 36.22 13.42 36.74 14.85 37.31 16.07 37.93 17.06 38.54 18.05 39.57 19.36 41 20.99 41 20.99 41.48 20.99 41.48 20.99 41.18 20.45 40.96 19.87 40.81 19.27 40.67 18.66 40.59 18.07 40.59 17.5 40.59 17.13 40.65 16.56 40.78 15.79 40.78 15.67 40.8 15.5 40.85 15.27 40.95 15.3 41.05 15.3 41.15 15.27 41.1 15.79 41.06 16.19 41.04 16.46 41.01 16.74 41 17 41 17.24 41 18.08 41.16 18.9 41.48 19.69 41.73 20.31 42.02 20.8 42.37 21.14 42.37 21.14 43.04 21.36 43.04 21.36 42.71 20.67 42.46 19.97 42.27 19.27 42.09 18.56 42 17.91 42 17.31 42 16.28 42.3 15.42 42.89 14.75 43.48 14.09 44.22 13.75 45.11 13.75 45.23 13.75 45.44 13.78 45.74 13.83ZM 24.33 14.6C 24.33 15.5 23.97 16.31 23.26 17.06 22.64 17.7 21.96 18.12 21.22 18.32 21.22 18.32 20.89 18.13 20.89 18.13 22.67 17.27 23.56 16.31 23.56 15.27 23.56 14.78 23.3 14.46 22.8 14.31 22.29 14.16 22.03 14 22.03 13.83 22.03 13.63 22.12 13.47 22.3 13.34 22.47 13.22 22.64 13.16 22.81 13.16 23.28 13.16 23.66 13.29 23.93 13.57 24.2 13.84 24.33 14.18 24.33 14.6ZM 54.81 24.3C 54.81 24.3 54.81 24.08 54.81 24.08 53.26 24.08 51.9 23.72 50.74 23 49.43 22.18 48.63 20.99 48.33 19.43 48.21 19.43 48.09 19.48 47.96 19.58 47.64 19.83 47.48 20.25 47.48 20.85 47.48 21.99 48.1 22.9 49.33 23.59 50.42 24.21 51.66 24.52 53.07 24.52 53.39 24.52 53.67 24.51 53.89 24.49 54.28 24.39 54.59 24.32 54.81 24.3ZM 57.15 9.29C 56.71 9 56.16 8.85 55.52 8.85 54.68 8.85 53.94 9.13 53.31 9.68 52.68 10.24 52.37 10.99 52.37 11.93 52.37 12.9 52.67 13.61 53.26 14.09 53.7 14.43 54.19 14.6 54.74 14.6 54.86 14.6 55.01 14.56 55.18 14.48 55.36 14.39 55.48 14.28 55.55 14.16 54.81 13.66 54.44 13 54.44 12.15 54.44 11.31 54.72 10.65 55.26 10.16 55.8 9.68 56.43 9.39 57.15 9.29ZM 70.33 26.19C 70.33 26.66 70.21 27.01 69.96 27.23 69.72 27.46 69.4 27.57 69.04 27.57 68.67 27.57 68.41 27.53 68.26 27.44 68.11 27.35 67.95 27.24 67.78 27.12 67.56 27.99 67.34 28.87 67.15 29.76 66.55 31.29 65.5 32.71 64 33.99 62.52 32.73 61.48 31.33 60.89 29.8 60.84 29.67 60.61 28.78 60.22 27.12 59.98 27.32 59.79 27.44 59.67 27.49 59.54 27.54 59.31 27.57 58.96 27.57 58.59 27.57 58.28 27.46 58.04 27.23 57.79 27.01 57.67 26.66 57.67 26.19 57.67 25.85 57.75 25.64 57.92 25.58 58.09 25.52 58.44 25.49 58.96 25.49 59.36 25.49 59.66 25.47 59.87 25.43 60.08 25.4 60.34 25.28 60.67 25.08 61.6 24.54 62.39 23.48 63.04 21.92 63.56 20.68 63.81 19.74 63.81 19.1 63.81 19.1 64.07 19.1 64.07 19.1 64.07 20.21 64.44 21.44 65.19 22.78 65.75 23.82 66.47 24.59 67.33 25.08 67.6 25.25 67.89 25.36 68.19 25.41 68.48 25.47 68.76 25.49 69.04 25.49 69.51 25.49 69.84 25.52 70.03 25.6 70.23 25.68 70.33 25.87 70.33 26.19ZM 67.44 9.67C 67.44 8.57 67.04 7.33 66.24 5.93 65.44 4.53 64.69 3.64 64 3.24 63.31 3.64 62.58 4.5 61.81 5.84 60.97 7.3 60.56 8.57 60.56 9.67 60.56 11.35 60.82 12.59 61.33 13.4 61.85 14.2 62.74 14.6 64 14.6 65.23 14.6 66.11 14.2 66.65 13.38 67.18 12.56 67.44 11.32 67.44 9.67ZM 67.33 16.39C 67.33 15.72 67.03 15.38 66.41 15.38 66.41 15.38 64 15.38 64 15.38 64 15.38 61.59 15.38 61.59 15.38 61.32 15.38 61.1 15.48 60.92 15.68 60.75 15.88 60.67 16.12 60.67 16.39 60.67 16.64 60.76 16.85 60.94 17.04 61.13 17.23 61.35 17.31 61.59 17.31 61.59 17.31 64 17.31 64 17.31 64 17.31 66.41 17.31 66.41 17.31 66.65 17.31 66.87 17.23 67.05 17.04 67.24 16.85 67.33 16.64 67.33 16.39ZM 66.81 26.19C 65.93 25.35 65.25 24.45 64.78 23.5 64.31 22.55 64.07 21.71 64.07 20.99 64.07 20.99 63.81 20.99 63.81 20.99 63.81 21.66 63.55 22.53 63.02 23.59 62.49 24.66 61.88 25.52 61.19 26.19 61.38 26.99 61.58 27.78 61.78 28.57 62.2 29.69 62.94 30.61 64 31.36 65.06 30.61 65.8 29.69 66.22 28.57 66.52 27.38 66.71 26.59 66.81 26.19ZM 75.63 11.93C 75.63 10.99 75.31 10.24 74.68 9.68 74.06 9.13 73.32 8.85 72.48 8.85 71.84 8.85 71.29 9 70.85 9.29 71.56 9.39 72.2 9.68 72.74 10.16 73.28 10.65 73.56 11.31 73.56 12.15 73.56 13 73.18 13.66 72.45 14.16 72.64 14.46 72.92 14.6 73.26 14.6 73.8 14.6 74.28 14.45 74.7 14.12 75.32 13.65 75.63 12.92 75.63 11.93ZM 80.52 20.85C 80.52 20.35 80.43 19.99 80.26 19.77 80.08 19.55 79.89 19.43 79.66 19.43 79.37 20.99 78.57 22.18 77.26 23 76.12 23.72 74.76 24.08 73.18 24.08 73.18 24.08 73.18 24.3 73.18 24.3 73.41 24.35 73.65 24.4 73.91 24.45 74.16 24.5 74.51 24.52 74.93 24.52 76.35 24.52 77.6 24.23 78.66 23.63 79.9 22.94 80.52 22.01 80.52 20.85ZM 109.22 10.93C 108.87 10.31 108.27 9.78 107.41 9.33 106.4 8.81 105.23 8.55 103.92 8.55 101.88 8.55 99.97 9.05 98.22 10.04 96.32 11.13 94.79 12.57 93.63 14.38 93.63 14.38 93.37 14.38 93.37 14.38 93.39 14.21 93.49 13.87 93.65 13.36 93.8 12.85 93.89 12.45 93.89 12.15 93.89 11.51 93.83 10.99 93.74 10.59 93.64 10.2 93.42 9.75 93.07 9.26 92.09 9.73 91.21 10.58 90.44 11.82 89.45 13.45 88.92 14.31 88.85 14.38 88.85 14.38 88.33 14.38 88.33 14.38 88.21 13.74 87.96 13.21 87.59 12.79 87.07 12.19 86.33 11.89 85.37 11.89 84.68 11.89 84.07 12.07 83.54 12.41 83.01 12.76 82.58 13.23 82.26 13.83 82.56 13.78 82.76 13.75 82.89 13.75 83.77 13.75 84.52 14.09 85.11 14.75 85.7 15.42 86 16.28 86 17.31 86 17.91 85.9 18.56 85.72 19.27 85.53 19.97 85.28 20.67 84.96 21.36 84.96 21.36 85.63 21.14 85.63 21.14 85.93 20.85 86.23 20.32 86.54 19.56 86.84 18.81 87 18.04 87 17.24 87 16.92 86.98 16.56 86.94 16.17 86.91 15.77 86.88 15.47 86.85 15.27 86.95 15.3 87.05 15.3 87.15 15.27 87.2 15.6 87.25 15.99 87.32 16.44 87.37 16.9 87.41 17.25 87.41 17.5 87.41 18.3 87.31 19.01 87.11 19.66 87.01 20 86.82 20.45 86.52 20.99 86.52 20.99 87 20.99 87 20.99 88.33 19.48 89.34 18.18 90.02 17.09 90.7 16 91.28 14.78 91.77 13.42 91.77 13.42 92.08 13.42 92.08 13.42 92.03 13.64 91.99 13.81 91.96 13.94 91.76 14.75 91.47 15.51 91.09 16.2 90.71 16.89 90.33 17.59 89.96 18.28 89.49 19 88.73 19.91 87.66 20.99 87.66 20.99 88.33 20.85 88.33 20.85 89.52 19.8 90.63 18.86 91.67 18.02 93.07 16.88 94.49 15.75 95.93 14.6 98.15 12.75 100.16 11.49 101.97 10.82 103.15 10.37 104.41 10.15 105.74 10.15 106.73 10.15 107.5 10.24 108.07 10.41 108.34 10.48 108.73 10.66 109.22 10.93ZM 107.11 18.13C 107.11 18.13 106.77 18.32 106.77 18.32 106.06 18.12 105.39 17.7 104.78 17.06 104.04 16.29 103.67 15.47 103.67 14.6 103.67 14.21 103.8 13.87 104.05 13.58 104.31 13.3 104.69 13.16 105.19 13.16 105.4 13.16 105.59 13.23 105.74 13.38 105.89 13.53 105.96 13.68 105.96 13.83 105.96 13.98 105.71 14.12 105.2 14.27 104.69 14.42 104.44 14.75 104.44 15.27 104.44 15.87 104.68 16.4 105.15 16.87 105.54 17.27 106.2 17.69 107.11 18.13ZM 128 9.67C 128 9.67 127.22 9.55 127.22 9.55 125.79 9.55 124.15 10.25 122.29 11.63 122.07 11.81 120.91 12.77 118.81 14.53 117.01 16.09 115.91 17.01 115.51 17.28 113.69 18.49 111.89 19.1 110.11 19.1 109.76 19.1 109.44 19.07 109.12 19.01 108.82 18.94 108.61 18.89 108.52 18.84 108.52 18.84 108.92 18.54 108.92 18.54 110.87 18.54 112.43 18.1 113.59 17.21 114.9 16.19 115.55 14.73 115.55 12.82 115.55 11.98 115.29 11.37 114.78 11 114.4 10.73 113.96 10.59 113.45 10.59 113.76 10.1 114.17 9.71 114.66 9.42 115.16 9.14 115.63 9 116.07 9 116.74 9 117.26 9.08 117.63 9.26 117.85 9.36 118.12 9.65 118.45 10.15 119.3 9.28 120.01 8.72 120.55 8.48 121.52 8.03 122.6 7.81 123.81 7.81 124.6 7.81 125.42 7.99 126.26 8.37 126.8 8.61 127.38 8.96 128 9.41 128 9.41 128 9.67 128 9.67ZM 125.89 9C 125.64 8.82 125.32 8.67 124.92 8.53 124.53 8.4 124.15 8.33 123.81 8.33 122.13 8.33 120.78 8.77 119.74 9.67 119.2 10.13 118.69 10.84 118.22 11.78 118.22 11.78 118.04 11.78 118.04 11.78 118.04 11.16 117.96 10.7 117.82 10.41 117.56 9.91 117.1 9.67 116.4 9.67 116.16 9.67 115.89 9.73 115.61 9.87 115.33 10.01 115.12 10.16 115 10.33 115.37 10.41 115.66 10.66 115.87 11.1 116.08 11.53 116.18 12.03 116.18 12.6 116.18 13.47 115.97 14.33 115.55 15.2 115.55 15.2 115.74 15.38 115.74 15.38 115.99 15.04 116.84 14.18 118.3 12.82 119.98 11.26 121.2 10.31 121.96 9.96 121.96 9.96 122.18 10.11 122.18 10.11 121.02 10.9 119.95 11.79 118.96 12.77 117.97 13.75 117.01 14.72 116.07 15.68 116.07 15.68 116.55 15.83 116.55 15.83 118.9 13.53 120.96 11.78 122.74 10.59 123.8 9.9 124.85 9.37 125.89 9Z" fill="rgb(35,33,33)"/></svg>