<?xml version="1.0" encoding="utf-8"?>
<svg xmlns="http://www.w3.org/2000/svg"
	xmlns:xlink="http://www.w3.org/1999/xlink"
	width="29px" height="16px" viewBox="0 0 29 16">
<path fillRule="evenodd" d="M 25.71 6.69C 26.13 6.17 26.45 5.76 26.69 5.45 28.44 3.21 29.19 1.78 28.96 1.16 28.96 1.16 28.87 1.01 28.87 1.01 28.81 0.92 28.65 0.84 28.4 0.77 28.15 0.7 27.83 0.68 27.43 0.73 27.43 0.73 23.09 0.76 23.09 0.76 22.99 0.75 22.88 0.75 22.78 0.77 22.68 0.78 22.62 0.8 22.59 0.81 22.56 0.83 22.53 0.84 22.51 0.85 22.51 0.85 22.45 0.89 22.45 0.89 22.4 0.92 22.35 0.97 22.29 1.05 22.23 1.12 22.17 1.2 22.13 1.3 21.66 2.48 21.12 3.57 20.52 4.59 20.15 5.19 19.8 5.71 19.49 6.16 19.18 6.6 18.92 6.92 18.71 7.13 18.5 7.34 18.3 7.51 18.13 7.64 17.96 7.76 17.83 7.82 17.74 7.8 17.65 7.78 17.56 7.76 17.48 7.74 17.34 7.65 17.23 7.53 17.14 7.38 17.06 7.23 17 7.04 16.97 6.81 16.94 6.58 16.92 6.39 16.92 6.22 16.91 6.06 16.92 5.82 16.93 5.52 16.94 5.22 16.94 5.01 16.94 4.91 16.94 4.54 16.95 4.14 16.96 3.7 16.98 3.27 16.99 2.93 17 2.67 17.01 2.42 17.02 2.15 17.02 1.87 17.02 1.59 17 1.37 16.96 1.21 16.93 1.05 16.87 0.89 16.81 0.74 16.73 0.59 16.63 0.47 16.5 0.39 16.36 0.31 16.19 0.24 15.99 0.19 15.46 0.07 14.78 0.01 13.95 0 12.08-0.02 10.88 0.1 10.34 0.35 10.13 0.46 9.94 0.6 9.77 0.79 9.59 1 9.56 1.12 9.69 1.14 10.3 1.23 10.72 1.44 10.98 1.77 10.98 1.77 11.07 1.94 11.07 1.94 11.14 2.07 11.21 2.29 11.28 2.62 11.35 2.94 11.39 3.29 11.41 3.68 11.46 4.39 11.46 5 11.41 5.51 11.36 6.01 11.32 6.41 11.27 6.69 11.23 6.97 11.16 7.2 11.07 7.37 10.98 7.55 10.92 7.66 10.89 7.7 10.86 7.73 10.83 7.76 10.81 7.77 10.68 7.82 10.54 7.84 10.4 7.84 10.26 7.84 10.09 7.77 9.89 7.64 9.69 7.5 9.48 7.31 9.26 7.07 9.05 6.84 8.8 6.5 8.53 6.07 8.26 5.65 7.98 5.14 7.69 4.56 7.69 4.56 7.44 4.13 7.44 4.13 7.29 3.86 7.09 3.46 6.82 2.94 6.56 2.42 6.33 1.92 6.13 1.43 6.05 1.23 5.93 1.07 5.77 0.96 5.77 0.96 5.69 0.92 5.69 0.92 5.64 0.88 5.56 0.84 5.45 0.8 5.34 0.75 5.22 0.72 5.1 0.7 5.1 0.7 0.97 0.73 0.97 0.73 0.54 0.73 0.26 0.82 0.11 1.01 0.11 1.01 0.05 1.1 0.05 1.1 0.01 1.15-0 1.22-0 1.33-0 1.44 0.03 1.57 0.09 1.72 0.69 3.1 1.35 4.42 2.06 5.69 2.77 6.97 3.39 8 3.91 8.78 4.43 9.56 4.97 10.29 5.51 10.98 6.06 11.67 6.41 12.11 6.59 12.31 6.77 12.5 6.91 12.65 7.01 12.75 7.01 12.75 7.38 13.1 7.38 13.1 7.62 13.33 7.98 13.61 8.45 13.94 8.92 14.26 9.43 14.58 10 14.9 10.57 15.22 11.23 15.47 11.99 15.67 12.74 15.87 13.48 15.95 14.19 15.92 14.19 15.92 15.93 15.92 15.93 15.92 16.28 15.89 16.55 15.78 16.73 15.59 16.73 15.59 16.79 15.52 16.79 15.52 16.83 15.46 16.87 15.37 16.9 15.25 16.94 15.13 16.96 15 16.96 14.85 16.95 14.43 16.98 14.05 17.05 13.72 17.13 13.38 17.22 13.13 17.31 12.96 17.41 12.79 17.51 12.65 17.64 12.53 17.76 12.41 17.84 12.34 17.89 12.32 17.94 12.29 17.98 12.28 18.01 12.27 18.25 12.19 18.54 12.26 18.87 12.49 19.19 12.72 19.5 13 19.79 13.34 20.07 13.67 20.42 14.05 20.82 14.47 21.22 14.89 21.58 15.2 21.88 15.4 21.88 15.4 22.18 15.58 22.18 15.58 22.38 15.7 22.64 15.8 22.97 15.9 23.29 16 23.57 16.02 23.81 15.97 23.81 15.97 27.68 15.92 27.68 15.92 28.06 15.92 28.36 15.86 28.57 15.73 28.78 15.61 28.9 15.48 28.95 15.33 28.99 15.19 28.99 15.02 28.95 14.84 28.92 14.65 28.88 14.52 28.85 14.45 28.81 14.38 28.78 14.32 28.75 14.27 28.25 13.39 27.28 12.32 25.86 11.04 25.86 11.04 25.83 11.01 25.83 11.01 25.83 11.01 25.82 11 25.82 11 25.82 11 25.8 10.98 25.8 10.98 25.8 10.98 25.79 10.98 25.79 10.98 25.15 10.39 24.74 9.99 24.57 9.78 24.25 9.4 24.18 9 24.36 8.6 24.48 8.3 24.93 7.66 25.71 6.69Z" fill="rgb(255,255,255)"/></svg>